<?xml version="1.0" encoding="utf-8"?>
<!-- Generator: Adobe Illustrator 16.0.0, SVG Export Plug-In . SVG Version: 6.00 Build 0)  -->
<!DOCTYPE svg PUBLIC "-//W3C//DTD SVG 1.1//EN" "http://www.w3.org/Graphics/SVG/1.1/DTD/svg11.dtd">
<svg version="1.1" id="Layer_1" xmlns="http://www.w3.org/2000/svg" xmlns:xlink="http://www.w3.org/1999/xlink" x="0px" y="0px"
	 width="30px" height="30px" viewBox="268.465 268.465 30 30" enable-background="new 268.465 268.465 30 30" xml:space="preserve">
<g>
	<g>
		<g>
			<g>
				<g>
					<path fill="#91F2BD" d="M281.438,280.422c0.396,3.182-1.857,6.084-5.038,6.479c-1.092,0.14-2.136-0.046-3.088-0.464
						c-1.789-0.789-3.135-2.485-3.391-4.574c-0.394-3.182,1.858-6.085,5.04-6.479C278.142,274.989,281.044,277.241,281.438,280.422z
						"/>
				</g>
			</g>
		</g>
		<g>
			<g>
				<g>
					<path fill="#6DC289" d="M276.4,287.598c-0.349,0-0.65-0.256-0.696-0.604c-0.047-0.371,0.231-0.72,0.604-0.766
						c1.346-0.163,2.554-0.858,3.39-1.928c0.836-1.069,1.207-2.416,1.044-3.762c-0.046-0.372,0.233-0.72,0.604-0.767
						c0.372-0.047,0.72,0.232,0.767,0.604c0.208,1.718-0.255,3.437-1.324,4.808c-1.068,1.37-2.601,2.251-4.319,2.461
						C276.446,287.598,276.423,287.598,276.4,287.598z"/>
				</g>
			</g>
		</g>
		<g>
			<g>
				<g>
					<path fill="#6DC289" d="M275.68,286.251c-0.395,0-0.696-0.302-0.696-0.696c0-0.396,0.302-0.696,0.696-0.696
						c0.163,0,0.301,0,0.464-0.023c0.976-0.116,1.858-0.627,2.462-1.393c0.231-0.303,0.673-0.349,0.974-0.118
						c0.303,0.232,0.349,0.673,0.117,0.976c-0.836,1.069-2.044,1.765-3.39,1.928C276.099,286.229,275.889,286.251,275.68,286.251z"
						/>
				</g>
			</g>
		</g>
		<g>
			<g>
				<g>
					<path fill="#444B54" d="M275.68,287.645c-0.905,0-1.812-0.187-2.647-0.559c-2.09-0.928-3.529-2.854-3.808-5.13
						c-0.209-1.672,0.232-3.345,1.254-4.715c0.232-0.302,0.673-0.372,0.976-0.139c0.301,0.232,0.371,0.674,0.138,0.975
						c-0.789,1.068-1.138,2.369-0.975,3.694c0.233,1.787,1.347,3.296,2.996,4.039c0.836,0.372,1.788,0.511,2.716,0.396
						c0.372-0.047,0.72,0.232,0.767,0.604c0.046,0.371-0.233,0.72-0.605,0.767C276.215,287.621,275.936,287.645,275.68,287.645z"/>
				</g>
			</g>
		</g>
		<g>
			<g>
				<g>
					<path fill="#FFFFFF" d="M271.292,282.374c-0.349,0-0.65-0.255-0.697-0.603c-0.163-1.348,0.209-2.695,1.046-3.763
						c0.232-0.302,0.673-0.349,0.975-0.116c0.302,0.232,0.348,0.673,0.116,0.976c-0.604,0.79-0.883,1.765-0.767,2.74
						c0.046,0.372-0.232,0.72-0.604,0.767C271.361,282.374,271.337,282.374,271.292,282.374z"/>
				</g>
			</g>
		</g>
	</g>
	<g>
		<g>
			<g>
				<g>
					<path fill="#FFF0B3" d="M296.766,278.704c1.091,3.692-1.021,7.57-4.715,8.661c-1.253,0.372-2.554,0.372-3.737,0.069
						c-2.275-0.603-4.205-2.344-4.923-4.759c-1.092-3.693,1.021-7.571,4.714-8.662C291.796,272.922,295.674,275.012,296.766,278.704
						z"/>
				</g>
			</g>
		</g>
		<g>
			<g>
				<g>
					<path fill="#EFCD89" d="M293.608,285.3l-0.022-0.023c-0.999-0.743-1.511-1.927-0.978-3.066c0.07-0.163,0.14-0.325,0.209-0.488
						c0.117-0.301,0.025-0.672-0.255-0.858c-0.372-0.232-0.859-0.07-1.021,0.324c-0.697,1.72-1.904,3.16-3.461,4.134l0,0
						c-1.671-0.72-2.786-2.229-3.019-4.017c-0.045-0.372-0.371-0.65-0.742-0.627c-0.396,0.023-0.696,0.395-0.652,0.789
						c0.024,0.21,0.07,0.396,0.095,0.581c-0.187-0.116-0.442-0.14-0.674-0.023c-0.325,0.163-0.44,0.534-0.347,0.86
						c0.579,1.902,1.835,3.482,3.53,4.436c0.069,0.068,0.161,0.114,0.255,0.138c0.512,0.256,1.045,0.466,1.603,0.628
						c0.068,0.022,0.116,0.022,0.186,0.022c0.302,0,0.58-0.208,0.674-0.511c0.045-0.209,0-0.395-0.094-0.557
						c0.394,0.068,0.79,0.116,1.185,0.116c0.278,0,0.533-0.022,0.812-0.048c0.883-0.115,1.718-0.395,2.484-0.835
						C293.678,286.065,293.794,285.624,293.608,285.3z"/>
				</g>
			</g>
		</g>
		<g>
			<g>
				<g>
					<path fill="#444B54" d="M290.078,288.342c-0.511,0-1.021-0.047-1.532-0.163c-0.371-0.07-0.627-0.441-0.536-0.813
						c0.095-0.371,0.441-0.626,0.813-0.533c0.674,0.14,1.347,0.162,2.043,0.069c1.673-0.209,3.136-1.045,4.182-2.368
						c1.044-1.324,1.485-2.973,1.276-4.622c-0.232-1.904-1.324-3.576-2.949-4.574c-0.325-0.209-0.44-0.627-0.231-0.953
						s0.626-0.441,0.952-0.232c1.996,1.231,3.319,3.274,3.6,5.597c0.256,2.021-0.303,4.04-1.557,5.643
						c-1.254,1.625-3.066,2.646-5.108,2.902C290.705,288.318,290.381,288.342,290.078,288.342z"/>
				</g>
			</g>
		</g>
	</g>
	<g>
		<g>
			<g>
				<g>
					<g>
						<path fill="#FF5576" d="M291.402,276.893c0.557,4.458-2.602,8.522-7.06,9.056c-1.533,0.187-2.997-0.047-4.32-0.649
							c-2.508-1.115-4.389-3.484-4.76-6.433c-0.558-4.459,2.601-8.523,7.058-9.058C286.781,269.276,290.866,272.435,291.402,276.893
							z"/>
					</g>
				</g>
			</g>
			<g>
				<g>
					<g>
						<path fill="#DB3E64" d="M283.343,285.322c-0.394,0-0.696-0.301-0.696-0.696c0-0.395,0.302-0.697,0.696-0.697
							c3.322,0,6.038-2.716,6.038-6.038c0-0.395,0.303-0.696,0.697-0.696s0.696,0.301,0.696,0.696
							C290.774,281.979,287.431,285.322,283.343,285.322z"/>
					</g>
				</g>
			</g>
			<g>
				<g>
					<g>
						<path fill="#FFFFFF" d="M277.329,275.546c-0.117,0-0.209-0.023-0.325-0.069c-0.348-0.186-0.488-0.604-0.302-0.929
							c0.906-1.765,2.462-3.112,4.319-3.715c0.372-0.117,0.766,0.069,0.882,0.441c0.117,0.371-0.069,0.766-0.44,0.883
							c-1.51,0.487-2.765,1.579-3.484,2.995C277.84,275.407,277.584,275.546,277.329,275.546z"/>
					</g>
				</g>
			</g>
			<g>
				<g>
					<g>
						<g>
							<circle fill="#FFFFFF" cx="276.609" cy="277.659" r="0.697"/>
						</g>
					</g>
				</g>
			</g>
		</g>
		<g>
			<g>
				<path fill="#444B54" d="M292.168,277.892c0-4.876-3.948-8.824-8.825-8.824c-4.876,0-8.824,3.948-8.824,8.824
					c0,3.111,1.603,5.944,4.272,7.547c0.326,0.21,0.767,0.093,0.953-0.231c0.208-0.327,0.093-0.767-0.232-0.953
					c-2.252-1.369-3.599-3.738-3.599-6.362c0-4.087,3.343-7.431,7.43-7.431c4.088,0,7.432,3.344,7.432,7.431
					s-3.344,7.431-7.432,7.431l0,0c-0.047,0-0.091,0-0.116,0.023c-0.023,0-0.023,0-0.045,0c-0.024,0-0.047,0.024-0.071,0.024
					c-0.023,0-0.023,0.022-0.045,0.022c-0.024,0-0.047,0.022-0.069,0.046c-0.024,0-0.024,0.024-0.047,0.024c0,0,0,0-0.023,0
					l-1.857,1.393c-0.302,0.23-0.372,0.673-0.14,0.975c0.233,0.302,0.674,0.371,0.975,0.14l1.439-1.068l1.439,1.068
					c0.118,0.093,0.279,0.139,0.42,0.139c0.208,0,0.418-0.092,0.556-0.278c0.232-0.302,0.164-0.744-0.138-0.975l-0.442-0.325
					C289.173,285.671,292.168,282.118,292.168,277.892z"/>
			</g>
		</g>
	</g>
	<g>
		<g>
			<g>
				<path fill="#444B54" d="M282.021,295.332c-0.349,0-0.628-0.256-0.697-0.604c-0.186-1.208,0.301-2.112,0.72-2.927
					c0.441-0.812,0.835-1.602,0.649-2.786c-0.069-0.371,0.209-0.742,0.581-0.789c0.372-0.047,0.743,0.209,0.79,0.58
					c0.256,1.649-0.326,2.764-0.79,3.645c-0.372,0.721-0.673,1.302-0.557,2.068c0.046,0.372-0.209,0.744-0.58,0.789
					C282.089,295.332,282.066,295.332,282.021,295.332z"/>
			</g>
		</g>
	</g>
	<g>
		<g>
			<g>
				<circle fill="#444B54" cx="282.414" cy="297.166" r="0.697"/>
			</g>
		</g>
	</g>
</g>
</svg>
