<?xml version="1.0" encoding="utf-8"?>
<!-- Generator: Adobe Illustrator 16.0.0, SVG Export Plug-In . SVG Version: 6.00 Build 0)  -->
<!DOCTYPE svg PUBLIC "-//W3C//DTD SVG 1.1//EN" "http://www.w3.org/Graphics/SVG/1.1/DTD/svg11.dtd">
<svg version="1.1" id="ﾃ神xA1_ﾃ神xBB_ﾃ神xBE_ﾃ神xB9__x5F_1"
	 xmlns="http://www.w3.org/2000/svg" xmlns:xlink="http://www.w3.org/1999/xlink" x="0px" y="0px" width="30px" height="30px"
	 viewBox="268.465 268.465 30 30" enable-background="new 268.465 268.465 30 30" xml:space="preserve">
<g>
	<g>
		<g>
			<g>
				<path fill="#CBDED6" d="M282.171,289.645h-3.127l-2.466-10.918c-0.538-1.881,0.854-3.761,2.809-3.761l0,0
					c1.539,0,2.785,1.245,2.785,2.783V289.645L282.171,289.645z"/>
			</g>
		</g>
		<g>
			<g>
				<path fill="#7AAD9B" d="M284.76,289.645h3.15l2.345-8.183c0.123-0.293,0.196-0.587,0.22-0.88c0.122-1.661-1.172-3.15-2.931-3.15
					l0,0c-1.538,0-2.784,1.246-2.784,2.785V289.645z"/>
			</g>
		</g>
		<g>
			<g>
				<path fill="#5F9380" d="M288.105,281.486h-0.122l0.562-3.884c-0.317-0.122-0.66-0.171-1.002-0.171l0,0
					c-1.538,0-2.784,1.246-2.784,2.785v9.428h2.369l0.635-6.693h0.342c0.415,0,0.733-0.316,0.733-0.732
					C288.839,281.804,288.497,281.486,288.105,281.486z"/>
			</g>
		</g>
		<g>
			<g>
				<path fill="#454B54" d="M287.91,290.377c-0.073,0-0.146,0-0.195-0.024c-0.391-0.123-0.61-0.513-0.513-0.903l2.344-8.183
					c0-0.024,0.025-0.049,0.025-0.073c0.098-0.244,0.146-0.465,0.171-0.66c0.049-0.61-0.171-1.196-0.586-1.66
					c-0.416-0.464-1.001-0.709-1.612-0.709c-0.415,0-0.732-0.317-0.732-0.732s0.317-0.732,0.732-0.732
					c1.026,0,1.979,0.416,2.688,1.173c0.684,0.757,1.05,1.758,0.977,2.76c-0.024,0.342-0.123,0.684-0.27,1.074l-2.345,8.134
					C288.521,290.156,288.229,290.377,287.91,290.377z"/>
			</g>
		</g>
		<g>
			<g>
				<path fill="#7AAD9B" d="M282.171,289.645v-11.871c0-1.539-1.246-2.784-2.785-2.784l0,0c-0.416,0-0.806,0.098-1.172,0.245
					l1.832,14.41H282.171z"/>
			</g>
		</g>
		<g>
			<g>
				<path fill="#E1ECE7" d="M285.907,289.473h-4.885l-0.952-15.876c-0.146-1.978,1.417-3.663,3.395-3.663l0,0
					c1.979,0,3.542,1.686,3.395,3.663L285.907,289.473z"/>
			</g>
		</g>
		<g>
			<g>
				
					<ellipse transform="matrix(0.7071 -0.7071 0.7071 0.7071 -109.7905 278.9237)" fill="#FFFFFF" cx="281.795" cy="271.991" rx="1.222" ry="0.733"/>
			</g>
		</g>
		<g>
			<g>
				<path fill="#A1C4B7" d="M284.026,270.129c-0.635-0.098-1.221-0.024-1.758,0.195c1.368,0.513,2.295,1.881,2.174,3.419
					l-0.244,13.019c-0.123,1.563-1.661,2.418-3.176,2.883l0,0h4.885l0.952-15.779C286.982,272.083,285.785,270.422,284.026,270.129z
					"/>
			</g>
		</g>
		<g>
			<g>
				<path fill="#454B54" d="M279.044,290.377c-0.342,0-0.635-0.221-0.708-0.562l-2.466-10.894c-0.318-1.099-0.098-2.271,0.586-3.198
					c0.708-0.929,1.759-1.466,2.931-1.466c0.415,0,0.732,0.317,0.732,0.732s-0.317,0.733-0.732,0.733
					c-0.708,0-1.344,0.317-1.759,0.879c-0.415,0.562-0.537,1.271-0.342,1.93c0,0.024,0,0.024,0,0.048l2.468,10.894
					c0.097,0.392-0.147,0.782-0.562,0.88C279.142,290.353,279.093,290.377,279.044,290.377z"/>
			</g>
		</g>
		<g>
			<g>
				<path fill="#454B54" d="M285.907,290.377h-4.885c-0.39,0-0.708-0.294-0.732-0.685l-0.953-15.876
					c-0.073-1.123,0.317-2.271,1.099-3.102c0.782-0.83,1.881-1.318,3.028-1.318c1.148,0,2.247,0.488,3.029,1.318
					c0.781,0.831,1.172,1.979,1.099,3.127l-0.953,15.876C286.616,290.06,286.298,290.377,285.907,290.377z M281.707,288.911h3.517
					l0.929-15.216c0.049-0.758-0.196-1.466-0.709-2.027c-0.513-0.562-1.196-0.855-1.954-0.855c-0.757,0-1.44,0.293-1.954,0.855
					c-0.514,0.562-0.757,1.27-0.708,2.027L281.707,288.911z"/>
			</g>
		</g>
		<g>
			<g>
				<path fill="#454B54" d="M291.208,281.315h-0.733c-0.415,0-0.732-0.318-0.732-0.733s0.317-0.732,0.732-0.732h0.733
					c0.415,0,0.732,0.317,0.732,0.732S291.623,281.315,291.208,281.315z"/>
			</g>
		</g>
		<g>
			<g>
				<path fill="#454B54" d="M276.455,278.971h-0.732c-0.416,0-0.733-0.318-0.733-0.733s0.318-0.732,0.733-0.732h0.732
					c0.415,0,0.733,0.317,0.733,0.732S276.87,278.971,276.455,278.971z"/>
			</g>
		</g>
		<g>
			<g>
				<g>
					
						<path fill="none" stroke="#454B54" stroke-width="6" stroke-linecap="round" stroke-linejoin="round" stroke-miterlimit="10" d="
						M286.885,273.646"/>
				</g>
			</g>
		</g>
		<g>
			<g>
				<path fill="#454B54" d="M286.152,271.961c-0.245,0-0.465-0.122-0.611-0.318c-0.22-0.342-0.122-0.78,0.196-1.025l0.732-0.488
					c0.342-0.221,0.781-0.122,1.025,0.195c0.22,0.343,0.122,0.781-0.195,1.026l-0.732,0.488
					C286.421,271.912,286.298,271.961,286.152,271.961z"/>
			</g>
		</g>
		<g>
			<g>
				<path fill="#454B54" d="M287.617,281.706h-0.732c-0.415,0-0.732-0.317-0.732-0.732s0.317-0.733,0.732-0.733h0.732
					c0.415,0,0.733,0.318,0.733,0.733S288.009,281.706,287.617,281.706z"/>
			</g>
		</g>
	</g>
	<g>
		<g>
			<g>
				<path fill="#FFFFFF" d="M285.907,296.801h-4.885c-1.611,0-2.93-1.319-2.93-2.932v-4.396h10.747v4.396
					C288.839,295.481,287.544,296.801,285.907,296.801z"/>
			</g>
		</g>
		<g>
			<g>
				<path fill="#EAE7F4" d="M286.396,289.473v4.396c0,1.612-1.319,2.932-2.932,2.932h2.442c1.612,0,2.932-1.319,2.932-2.932v-4.396
					H286.396z"/>
			</g>
		</g>
		<g>
			<g>
				<path fill="#454B54" d="M285.907,297.533h-4.885c-2.026,0-3.664-1.636-3.664-3.664v-4.396c0-0.415,0.318-0.732,0.733-0.732
					h10.747c0.415,0,0.732,0.317,0.732,0.732v4.396C289.571,295.897,287.935,297.533,285.907,297.533z M278.824,290.206v3.663
					c0,1.222,0.977,2.198,2.198,2.198h4.885c1.222,0,2.198-0.977,2.198-2.198v-3.663H278.824z"/>
			</g>
		</g>
	</g>
</g>
</svg>
