<?xml version="1.0" encoding="utf-8"?>
<!-- Generator: Adobe Illustrator 16.0.0, SVG Export Plug-In . SVG Version: 6.00 Build 0)  -->
<!DOCTYPE svg PUBLIC "-//W3C//DTD SVG 1.1//EN" "http://www.w3.org/Graphics/SVG/1.1/DTD/svg11.dtd">
<svg version="1.1" id="Layer_1" xmlns="http://www.w3.org/2000/svg" xmlns:xlink="http://www.w3.org/1999/xlink" x="0px" y="0px"
	 width="30px" height="30px" viewBox="268.465 268.465 30 30" enable-background="new 268.465 268.465 30 30" xml:space="preserve">
<g>
	<g>
		<g>
			<path fill="#71C2FF" d="M276.449,272.954c-0.26,0-0.52-0.13-0.675-0.39c-0.208-0.363-0.078-0.857,0.286-1.065
				c2.234-1.299,4.808-1.975,7.405-1.975c2.599,0,5.17,0.676,7.406,1.975c0.363,0.208,0.493,0.702,0.285,1.065
				c-0.207,0.364-0.701,0.494-1.064,0.286c-2.002-1.144-4.287-1.767-6.626-1.767c-2.338,0-4.625,0.623-6.625,1.767
				C276.709,272.929,276.58,272.954,276.449,272.954z"/>
		</g>
		<g>
			<path fill="#71C2FF" d="M292.038,278.359c-0.233,0-0.467-0.104-0.623-0.286c-1.922-2.468-4.832-3.871-7.951-3.871
				c-0.779,0-1.584,0.104-2.338,0.285c-0.416,0.104-0.831-0.155-0.936-0.571c-0.104-0.415,0.156-0.832,0.572-0.936
				c0.883-0.233,1.793-0.338,2.702-0.338c3.586,0,6.938,1.611,9.173,4.443c0.26,0.337,0.208,0.831-0.132,1.091
				C292.376,278.307,292.194,278.359,292.038,278.359z"/>
		</g>
		<g>
			<path fill="#71C2FF" d="M274.89,278.359c-0.155,0-0.337-0.053-0.493-0.156c-0.338-0.26-0.39-0.753-0.13-1.091
				c0.909-1.144,2-2.104,3.274-2.858c0.363-0.208,0.858-0.104,1.065,0.285c0.208,0.364,0.103,0.857-0.287,1.066
				c-1.09,0.649-2.052,1.48-2.832,2.468C275.358,278.281,275.125,278.359,274.89,278.359z"/>
		</g>
		<g>
			<path fill="#71C2FF" d="M291.26,289.272c-0.441,0-0.779-0.338-0.779-0.779v-4.157c0-1.144-0.286-2.287-0.831-3.3
				c-0.208-0.39-0.052-0.858,0.312-1.066c0.39-0.207,0.857-0.052,1.064,0.312c0.676,1.248,1.013,2.651,1.013,4.055v4.157
				C292.038,288.935,291.701,289.272,291.26,289.272z"/>
		</g>
		<g>
			<path fill="#71C2FF" d="M288.063,278.827c-0.156,0-0.312-0.053-0.468-0.156c-1.194-0.883-2.625-1.351-4.131-1.351
				c-1.272,0-2.546,0.338-3.612,1.013c-0.363,0.233-0.857,0.104-1.064-0.26c-0.234-0.363-0.104-0.858,0.26-1.065
				c1.325-0.831,2.857-1.247,4.417-1.247c1.844,0,3.586,0.571,5.067,1.638c0.339,0.26,0.417,0.753,0.182,1.09
				C288.531,278.696,288.297,278.827,288.063,278.827z"/>
		</g>
		<g>
			<path fill="#71C2FF" d="M275.67,285.115c-0.442,0-0.78-0.338-0.78-0.779c0-1.508,0.391-2.988,1.144-4.288
				c0.208-0.363,0.701-0.493,1.066-0.285c0.363,0.207,0.493,0.701,0.286,1.064c-0.624,1.065-0.936,2.287-0.936,3.509
				C276.449,284.777,276.111,285.115,275.67,285.115z"/>
		</g>
		<g>
			<path fill="#71C2FF" d="M275.67,288.233h-2.599c-0.441,0-0.779-0.339-0.779-0.779c0-0.442,0.337-0.78,0.779-0.78h2.599
				c1.299,0,2.338-1.039,2.338-2.338c0-1.923,0.988-3.665,2.625-4.651c0.363-0.234,0.857-0.104,1.064,0.26
				c0.235,0.364,0.105,0.857-0.259,1.065c-1.17,0.701-1.871,1.948-1.871,3.326C279.567,286.492,277.826,288.233,275.67,288.233z"/>
		</g>
		<g>
			<path fill="#71C2FF" d="M287.907,283.789c-0.337,0-0.649-0.207-0.753-0.545c-0.468-1.455-1.688-2.547-3.17-2.755
				c-0.415-0.052-0.728-0.468-0.65-0.883c0.052-0.417,0.467-0.728,0.883-0.649c2.054,0.286,3.794,1.792,4.417,3.846
				c0.13,0.415-0.104,0.856-0.52,0.986C288.063,283.764,287.985,283.789,287.907,283.789z"/>
		</g>
		<g>
			<path fill="#71C2FF" d="M292.819,292.391h-1.56c-2.155,0-3.897-1.741-3.897-3.897v-2.287c0-0.441,0.338-0.779,0.779-0.779
				s0.778,0.338,0.778,0.779v2.287c0,1.299,1.041,2.338,2.34,2.338h1.56c0.441,0,0.779,0.338,0.779,0.78
				C293.599,292.053,293.261,292.391,292.819,292.391z"/>
		</g>
		<g>
			<path fill="#71C2FF" d="M275.773,294.469h-0.623c-0.442,0-0.78-0.338-0.78-0.779s0.338-0.778,0.78-0.778h0.623
				c4.678,0,8.471-3.795,8.471-8.472c0-0.469-0.337-0.884-0.754-0.884h-0.026c-0.26,0-0.441,0.13-0.545,0.208
				c-0.052,0.052-0.156,0.182-0.208,0.337c-0.026,0.079-0.026,0.157-0.026,0.235c0,0.441-0.338,0.779-0.78,0.779
				c-0.441,0-0.779-0.338-0.779-0.779c0-0.235,0.026-0.442,0.104-0.65c0.156-0.493,0.416-0.831,0.624-1.013
				c0.259-0.26,0.832-0.677,1.716-0.65c1.246,0.052,2.234,1.144,2.234,2.443C285.804,289.975,281.308,294.469,275.773,294.469z"/>
		</g>
		<g>
			<path fill="#71C2FF" d="M275.67,291.352h-2.079c-0.442,0-0.78-0.339-0.78-0.78s0.338-0.779,0.78-0.779h2.079
				c2.104,0,3.975-1.169,4.911-3.065c0.182-0.391,0.649-0.546,1.039-0.364c0.391,0.182,0.546,0.649,0.363,1.039
				C280.789,289.845,278.372,291.352,275.67,291.352z"/>
		</g>
		<g>
			<path fill="#71C2FF" d="M277.826,297.405c-0.364,0-0.701-0.26-0.779-0.649c-0.078-0.416,0.208-0.832,0.624-0.91
				c2.443-0.415,4.703-1.61,6.366-3.325c0.441-0.468,1.064-0.728,1.716-0.728l0,0c0.623,0,1.194,0.233,1.636,0.675
				c0.961,0.988,2.262,1.481,3.846,1.481c0.441,0,0.779,0.338,0.779,0.78c0,0.441-0.338,0.779-0.779,0.779
				c-2.521,0-4.079-1.04-4.962-1.923c-0.182-0.182-0.39-0.233-0.52-0.208c-0.208,0-0.443,0.104-0.6,0.26
				c-1.896,1.949-4.468,3.3-7.222,3.768C277.93,297.405,277.878,297.405,277.826,297.405z"/>
		</g>
	</g>
	<g>
		<path fill="#71C2FF" d="M272.551,285.115c-0.441,0-0.779-0.338-0.779-0.779c0-1.092,0.156-2.157,0.441-3.196
			c0.52-1.793,1.455-3.481,2.754-4.833c0.287-0.312,0.78-0.338,1.091-0.026c0.312,0.286,0.338,0.78,0.026,1.092
			c-1.117,1.194-1.948,2.624-2.39,4.209c-0.26,0.91-0.39,1.818-0.39,2.78C273.331,284.777,272.993,285.115,272.551,285.115z"/>
	</g>
	<g>
		<path fill="#71C2FF" d="M294.378,285.896c-0.441,0-0.779-0.339-0.779-0.78v-0.779c0-3.379-1.664-6.522-4.471-8.394
			c-0.363-0.233-0.441-0.727-0.208-1.091c0.236-0.364,0.729-0.442,1.093-0.208c3.223,2.183,5.145,5.794,5.145,9.692v0.779
			C295.157,285.557,294.819,285.896,294.378,285.896z"/>
	</g>
	<g>
		<path fill="#71C2FF" d="M294.378,289.013c-0.052,0-0.104,0-0.156-0.026c-0.052,0-0.104-0.026-0.155-0.052
			c-0.052-0.026-0.078-0.052-0.13-0.078s-0.078-0.052-0.13-0.104c-0.156-0.156-0.234-0.338-0.234-0.546
			c0-0.207,0.078-0.415,0.234-0.545c0.025-0.027,0.078-0.078,0.13-0.105c0.052-0.024,0.078-0.052,0.13-0.077
			s0.104-0.025,0.155-0.052c0.26-0.053,0.52,0.026,0.701,0.207c0.156,0.157,0.234,0.338,0.234,0.547
			c0,0.207-0.078,0.415-0.234,0.545C294.793,288.935,294.586,289.013,294.378,289.013z"/>
	</g>
</g>
</svg>
