<?xml version="1.0" encoding="utf-8"?>
<!-- Generator: Adobe Illustrator 16.0.0, SVG Export Plug-In . SVG Version: 6.00 Build 0)  -->
<!DOCTYPE svg PUBLIC "-//W3C//DTD SVG 1.1//EN" "http://www.w3.org/Graphics/SVG/1.1/DTD/svg11.dtd">
<svg version="1.1" id="Layer_1" xmlns="http://www.w3.org/2000/svg" xmlns:xlink="http://www.w3.org/1999/xlink" x="0px" y="0px"
	 width="30px" height="30px" viewBox="268.465 268.465 30 30" enable-background="new 268.465 268.465 30 30" xml:space="preserve">
<g>
	<g>
		<path fill="#444B54" d="M269.359,283.465c0-3.625,1.387-7.227,4.136-9.976c2.677-2.676,6.204-4.136,9.975-4.136
			c3.772,0,7.325,1.46,9.977,4.136c5.499,5.499,5.499,14.452,0,19.952l0,0l0,0c-2.676,2.676-6.204,4.135-9.977,4.135
			c-3.771,0-7.322-1.459-9.975-4.135C270.746,290.691,269.359,287.09,269.359,283.465z M296.122,283.465
			c0-3.237-1.24-6.473-3.697-8.954c-2.408-2.385-5.572-3.698-8.955-3.698c-3.382,0-6.543,1.313-8.952,3.698
			c-4.915,4.939-4.915,12.969,0,17.907c2.409,2.385,5.57,3.699,8.952,3.699c3.383,0,6.547-1.314,8.955-3.699l0,0
			C294.882,289.938,296.122,286.701,296.122,283.465z"/>
	</g>
	<g>
		<path fill="#FFFFFF" d="M283.981,288.842l3.65-3.648c0.292-0.293,0.292-0.756,0-1.023c-0.293-0.292-0.755-0.292-1.022,0
			l-2.409,2.41v-7.494c0-0.414-0.315-0.73-0.73-0.73c-0.412,0-0.729,0.316-0.729,0.73v7.494l-2.409-2.41
			c-0.292-0.292-0.755-0.292-1.022,0c-0.146,0.146-0.219,0.316-0.219,0.512c0,0.193,0.073,0.365,0.219,0.512l3.65,3.648
			C283.252,289.135,283.69,289.135,283.981,288.842z"/>
	</g>
</g>
</svg>
