<?xml version="1.0" encoding="utf-8"?>
<!-- Generator: Adobe Illustrator 16.0.0, SVG Export Plug-In . SVG Version: 6.00 Build 0)  -->
<!DOCTYPE svg PUBLIC "-//W3C//DTD SVG 1.1//EN" "http://www.w3.org/Graphics/SVG/1.1/DTD/svg11.dtd">
<svg version="1.1" id="Layer_1" xmlns="http://www.w3.org/2000/svg" xmlns:xlink="http://www.w3.org/1999/xlink" x="0px" y="0px"
	 width="100px" height="100px" viewBox="0 0 100 100" enable-background="new 0 0 100 100" xml:space="preserve">
<g>
	<g>
		<path fill="#FF6CB2" d="M19.128,15.428h52.188c4.551,0,8.24,1.954,8.24,4.363V47.44c0,2.41-3.689,4.364-8.24,4.364H19.128
			c-4.55,0-8.24-1.954-8.24-4.364V19.791C10.888,17.383,14.578,15.428,19.128,15.428z"/>
		<g>
			<path fill="#444B54" d="M65.38,88.893H25.113c-10.431,0-18.864-8.434-18.864-18.863V29.761c0-10.429,8.436-18.862,18.864-18.862
				H65.38c10.428,0,18.861,8.434,18.861,18.862v40.269C84.241,80.459,75.808,88.893,65.38,88.893z M25.113,16.339
				c-7.437,0-13.422,5.985-13.422,13.422v40.269c0,7.348,5.985,13.424,13.422,13.424H65.38c7.344,0,13.422-5.986,13.422-13.424
				V29.761c0-7.347-5.986-13.422-13.422-13.422H25.113z"/>
		</g>
		<g>
			<path fill="#444B54" d="M9.595,89.102c-1.277,0-2.396-1.039-2.396-2.395c0-1.357,1.039-2.396,2.396-2.396l71.867-0.396l0,0
				c1.271,0,2.395,1.035,2.395,2.395s-1.037,2.396-2.395,2.396L9.595,89.102L9.595,89.102z"/>
		</g>
		<g>
			<path fill="#444B54" d="M91.358,88.729c-0.641,0-1.275-0.238-1.676-0.717c-0.082-0.08-0.242-0.238-0.318-0.396
				c-0.08-0.162-0.16-0.24-0.242-0.4c-0.078-0.16-0.078-0.318-0.158-0.479c0-0.159-0.082-0.318-0.082-0.479s0-0.32,0.082-0.48
				c0-0.157,0.08-0.316,0.158-0.479c0.082-0.158,0.162-0.32,0.242-0.398c0.076-0.162,0.156-0.239,0.318-0.398
				c0.078-0.08,0.24-0.24,0.316-0.318c0.162-0.082,0.242-0.162,0.398-0.24c0.16-0.08,0.318-0.08,0.48-0.16
				c0.32-0.079,0.639-0.079,0.957,0c0.16,0,0.318,0.08,0.48,0.16c0.158,0.078,0.318,0.158,0.396,0.24
				c0.16,0.078,0.24,0.158,0.322,0.318c0.479,0.479,0.717,1.039,0.717,1.676c0,0.162,0,0.32-0.078,0.48
				c0,0.158-0.08,0.318-0.162,0.479s-0.158,0.32-0.24,0.398c-0.08,0.16-0.158,0.24-0.316,0.4
				C92.64,88.49,91.999,88.729,91.358,88.729z"/>
		</g>
	</g>
	<path fill="#FFFFFF" d="M45.526,22.877c-15.049,0-27.246,12.197-27.246,27.246c0,15.048,12.197,27.247,27.246,27.247
		c15.047,0,27.248-12.199,27.248-27.247C72.774,35.074,60.575,22.877,45.526,22.877z M45.526,73.167
		c-12.729,0-23.043-10.316-23.043-23.044c0-12.729,10.314-23.044,23.043-23.044s23.043,10.315,23.043,23.044
		C68.571,62.851,58.255,73.167,45.526,73.167z"/>
	<path fill="none" stroke="#FFFFFF" stroke-width="4" stroke-miterlimit="10" d="M35.899,26.203c0,0,20.73,25.218,20.516,47.657"/>
	<path fill="none" stroke="#FFFFFF" stroke-width="4" stroke-miterlimit="10" d="M20.298,47.147c0,0,28.853,4.273,44.025-14.532"/>
	<path fill="none" stroke="#FFFFFF" stroke-width="4" stroke-miterlimit="10" d="M27.991,69.587c0,0,14.318-25.004,43.17-14.959"/>
</g>
</svg>
