<?xml version="1.0" encoding="utf-8"?>
<!-- Generator: Adobe Illustrator 16.0.0, SVG Export Plug-In . SVG Version: 6.00 Build 0)  -->
<!DOCTYPE svg PUBLIC "-//W3C//DTD SVG 1.1//EN" "http://www.w3.org/Graphics/SVG/1.1/DTD/svg11.dtd">
<svg version="1.1" id="Layer_1" xmlns="http://www.w3.org/2000/svg" xmlns:xlink="http://www.w3.org/1999/xlink" x="0px" y="0px"
	 width="100px" height="100px" viewBox="0 0 100 100" enable-background="new 0 0 100 100" xml:space="preserve">
<g>
	<g>
		<path fill="#659EC9" d="M60.493,35.834H49.455v-7.228c0-2.72,1.788-3.342,3.111-3.342c1.243,0,7.849,0,7.849,0v-11.97
			l-10.882-0.078c-11.893,0-14.611,8.938-14.611,14.69v8.005h-6.917v12.282h6.917c0,15.857,0,34.975,0,34.975h14.534
			c0,0,0-19.276,0-34.975h9.795L60.493,35.834z"/>
	</g>
	<g>
		<g>
			<path fill="#FFFFFF" d="M49.532,20.988l10.729,0.079v-7.773l-10.729-0.078c-11.893,0-14.611,8.939-14.611,14.689v7.773
				C34.92,29.928,37.64,20.988,49.532,20.988z"/>
		</g>
	</g>
	<g>
		<path fill="#FFFFFF" d="M49.455,85.5H34.921c-1.321,0-2.332-1.011-2.332-2.334V50.524h-4.585c-1.323,0-2.333-1.01-2.333-2.332
			c0-1.323,1.01-2.332,2.333-2.332h6.917c1.322,0,2.333,1.01,2.333,2.332v32.645h9.871V48.192c0-1.323,1.01-2.332,2.331-2.332h7.694
			l0.779-7.693h-8.474c-1.322,0-2.332-1.011-2.332-2.333v-7.228c0-3.964,2.72-5.674,5.442-5.674h5.518v-7.383h-8.473
			c-3.73,0-12.356,1.165-12.356,12.357v8.006c0,1.321-1.012,2.332-2.333,2.332h-6.917c-1.322,0-2.333-1.011-2.333-2.332
			c0-1.322,1.011-2.332,2.333-2.332h4.585v-5.674c0-7.85,4.43-17.022,16.943-17.022l10.804,0.077c1.322,0,2.333,1.012,2.333,2.333
			v11.97c0,1.321-1.011,2.333-2.333,2.333h-7.85c-0.467,0-0.778,0-0.778,1.01v4.896h8.706c0.622,0,1.322,0.311,1.71,0.777
			c0.465,0.465,0.622,1.166,0.622,1.789l-1.243,12.357c-0.156,1.165-1.089,2.098-2.332,2.098h-7.463v32.645
			C51.787,84.489,50.698,85.5,49.455,85.5z"/>
	</g>
	<g>
		<path fill="#FFFFFF" d="M60.337,85.5H27.147c-1.321,0-2.332-1.011-2.332-2.334c0-1.32,1.011-2.331,2.332-2.331h33.189
			c1.322,0,2.332,1.011,2.332,2.331C62.669,84.489,61.58,85.5,60.337,85.5z"/>
	</g>
	<g>
		<path fill="#FFFFFF" d="M72.773,85.5c-0.622,0-1.243-0.233-1.633-0.701c-0.466-0.466-0.699-1.01-0.699-1.633
			c0-0.153,0-0.31,0.079-0.466c0-0.154,0.076-0.31,0.154-0.464c0.078-0.155,0.155-0.235,0.234-0.39
			c0.079-0.157,0.156-0.232,0.309-0.388c0.856-0.855,2.412-0.855,3.267,0c0.467,0.466,0.699,1.011,0.699,1.633
			c0,0.621-0.232,1.242-0.699,1.632C73.938,85.268,73.395,85.5,72.773,85.5z"/>
	</g>
</g>
</svg>
