<?xml version="1.0" encoding="utf-8"?>
<!-- Generator: Adobe Illustrator 16.0.0, SVG Export Plug-In . SVG Version: 6.00 Build 0)  -->
<!DOCTYPE svg PUBLIC "-//W3C//DTD SVG 1.1//EN" "http://www.w3.org/Graphics/SVG/1.1/DTD/svg11.dtd">
<svg version="1.1" id="ﾃ神xA1_ﾃ神xBB_ﾃ神xBE_ﾃ神xB9__x5F_1"
	 xmlns="http://www.w3.org/2000/svg" xmlns:xlink="http://www.w3.org/1999/xlink" x="0px" y="0px" width="30px" height="30px"
	 viewBox="268.465 268.465 30 30" enable-background="new 268.465 268.465 30 30" xml:space="preserve">
<g>
	<g>
		<g>
			<polygon fill="#C7D7E2" points="294.416,283.978 296.487,281.905 284.544,271.839 284.544,269.815 282.398,269.815 
				282.398,271.887 270.504,281.905 272.575,283.978 282.398,275.373 282.398,286.244 281.302,288.414 281.302,297.115 
				285.641,297.115 285.641,288.414 284.544,286.244 284.544,275.349 			"/>
		</g>
	</g>
	<g>
		<g>
			<path fill="#454B54" d="M284.787,272.594c-0.414,0-0.73-0.316-0.73-0.73v-1.316h-1.195v1.316c0,0.414-0.316,0.73-0.73,0.73
				c-0.415,0-0.731-0.316-0.731-0.73v-2.048c0-0.414,0.316-0.731,0.731-0.731h2.656c0.415,0,0.731,0.317,0.731,0.731v2.048
				C285.519,272.277,285.202,272.594,284.787,272.594z"/>
		</g>
	</g>
	<g>
		<g>
			<g>
				<path fill="#454B54" d="M272.648,283.953h-1.023c-0.22,0-0.415-0.098-0.561-0.269l-1.121-1.341
					c-0.244-0.316-0.22-0.755,0.097-1.023l11.603-9.921c0.317-0.268,0.78-0.219,1.024,0.073c0.268,0.317,0.219,0.78-0.073,1.024
					l-11.066,9.481l0.438,0.512h0.683c0.414,0,0.731,0.317,0.731,0.731S273.038,283.953,272.648,283.953z"/>
			</g>
		</g>
	</g>
	<g>
		<g>
			<g>
				<path fill="#454B54" d="M295.342,284.172c-0.171,0-0.342-0.049-0.463-0.17c-0.317-0.269-0.342-0.731-0.098-1.024l0.658-0.779
					l-11.091-9.678c-0.292-0.268-0.341-0.73-0.073-1.023c0.269-0.292,0.731-0.341,1.023-0.073l11.603,10.141
					c0.293,0.268,0.342,0.706,0.073,1.023l-1.121,1.341C295.756,284.075,295.537,284.172,295.342,284.172z"/>
			</g>
		</g>
	</g>
	<g>
		<g>
			<path fill="#454B54" d="M294.294,297.846h-21.646c-0.414,0-0.731-0.316-0.731-0.73v-13.649c0-0.415,0.317-0.731,0.731-0.731
				s0.731,0.316,0.731,0.731v12.917h20.207v-13.088c0-0.415,0.316-0.731,0.731-0.731h1.023c0.414,0,0.731,0.316,0.731,0.731
				c0,0.414-0.317,0.731-0.731,0.731h-0.293v13.089C295.025,297.529,294.708,297.846,294.294,297.846z"/>
		</g>
	</g>
	<g>
		<g>
			<g>
				<rect x="287.347" y="283.197" fill="#C7D7E2" width="4.777" height="3.266"/>
			</g>
		</g>
		<g>
			<g>
				<rect x="274.842" y="283.197" fill="#C7D7E2" width="4.778" height="3.266"/>
			</g>
		</g>
		<g>
			<g>
				<rect x="287.347" y="290.582" fill="#C7D7E2" width="4.777" height="3.268"/>
			</g>
		</g>
		<g>
			<g>
				<rect x="274.842" y="290.582" fill="#C7D7E2" width="4.778" height="3.268"/>
			</g>
		</g>
	</g>
</g>
</svg>
