<?xml version="1.0" encoding="utf-8"?>
<!-- Generator: Adobe Illustrator 16.0.0, SVG Export Plug-In . SVG Version: 6.00 Build 0)  -->
<!DOCTYPE svg PUBLIC "-//W3C//DTD SVG 1.1//EN" "http://www.w3.org/Graphics/SVG/1.1/DTD/svg11.dtd">
<svg version="1.1" id="Layer_1" xmlns="http://www.w3.org/2000/svg" xmlns:xlink="http://www.w3.org/1999/xlink" x="0px" y="0px"
	 width="100px" height="100px" viewBox="0 0 100 100" enable-background="new 0 0 100 100" xml:space="preserve">
<g>
	<path fill="#58B5E8" d="M17.703,16.247H72.02c4.734,0,8.576,2.325,8.576,5.192v32.895c0,2.867-3.842,5.191-8.576,5.191H17.703
		c-4.734,0-8.576-2.324-8.576-5.191V21.439C9.126,18.572,12.967,16.247,17.703,16.247z"/>
	<path fill="#FFFFFF" d="M33.406,34.171c0,2.764-2.24,5.001-5.004,5.001c-2.763,0-5.002-2.238-5.002-5.001
		c0-2.765,2.239-5.003,5.002-5.003C31.166,29.169,33.406,31.407,33.406,34.171z"/>
	<path fill="#FFFFFF" d="M57.363,42.031c-3.16,0-7.146,2.546-8.848,3.988v-1.899c0-0.793-0.644-1.43-1.432-1.43H39.81
		c-0.792,0-1.429,0.636-1.429,1.43v30.018c0,0.787,0.636,1.43,1.429,1.43h7.717c0.792,0,1.429-0.643,1.429-1.43V59.01
		c0-4.514,2.546-7.631,5.562-7.631c3.014,0,4.818,3.416,4.818,7.877v14.91c0,0.787,0.637,1.428,1.43,1.428h7.717
		c0.793,0,1.43-0.641,1.43-1.428V57.424C69.709,49.81,68.242,42.031,57.363,42.031z"/>
	<path fill="#FFFFFF" d="M23.4,43.461h10.006v31.445H23.4V43.461z"/>
	<path fill="#444B54" d="M33.406,42.031H23.4c-0.788,0-1.43,0.643-1.43,1.43v31.445c0,0.787,0.642,1.43,1.43,1.43h10.006
		c0.788,0,1.429-0.643,1.429-1.43V43.461C34.834,42.674,34.193,42.031,33.406,42.031z M31.976,73.479H24.83V44.892h7.146V73.479z"/>
	<path fill="#444B54" d="M57.531,41.234c-2.826-0.039-5.578,0.91-7.772,2.685v-0.456c0-0.789-0.641-1.432-1.429-1.432h-9.207
		c-0.788,0-1.43,0.643-1.43,1.432v31.443c0,0.787,0.642,1.43,1.43,1.43H48.7c0.792,0,1.43-0.643,1.43-1.43V59.027
		c0-4.734,1.171-6.502,4.289-6.502c3.113,0,3.562,2.086,3.562,6.742v15.639c0,0.787,0.637,1.43,1.428,1.43h9.588
		c0.793,0,1.43-0.643,1.43-1.43V57.352C70.457,49.38,68.928,41.234,57.531,41.234z M67.537,73.479h-6.672V59.268
		c0-3.355,0-9.602-6.422-9.602c-7.146,0-7.146,7.043-7.146,9.361v14.451h-6.745V44.892h6.331v2.858
		c0.062,0.815,0.744,1.439,1.56,1.429c0.524,0,1.011-0.29,1.255-0.759c1.613-2.753,4.611-4.406,7.806-4.288
		c8.391,0,10.006,5.075,10.006,13.283L67.537,73.479z"/>
	<path fill="#444B54" d="M28.402,27.738c-3.551,0-6.432,2.881-6.432,6.433s2.881,6.433,6.432,6.433c3.552,0,6.433-2.88,6.433-6.433
		C34.834,30.619,31.954,27.738,28.402,27.738z M28.402,38.213c-2.233,0-4.041-1.81-4.041-4.042c0-2.232,1.808-4.043,4.041-4.043
		c2.233,0,4.043,1.811,4.043,4.043C32.445,36.404,30.635,38.213,28.402,38.213z"/>
	<g>
		<path fill="#444B54" d="M65.377,88.893H25.11c-10.429,0-18.865-8.434-18.865-18.863V29.761c0-10.429,8.436-18.863,18.865-18.863
			h40.267c10.428,0,18.861,8.434,18.861,18.863v40.269C84.238,80.459,75.805,88.893,65.377,88.893z M25.11,16.339
			c-7.436,0-13.422,5.986-13.422,13.422v40.269c0,7.346,5.986,13.422,13.422,13.422h40.267c7.344,0,13.422-5.986,13.422-13.422
			V29.761c0-7.345-5.986-13.422-13.422-13.422H25.11z"/>
	</g>
	<g>
		<path fill="#444B54" d="M9.593,89.102c-1.279,0-2.396-1.039-2.396-2.395c0-1.357,1.038-2.396,2.396-2.396l71.866-0.398l0,0
			c1.275,0,2.395,1.037,2.395,2.395c0,1.359-1.037,2.396-2.395,2.396L9.593,89.102L9.593,89.102z"/>
	</g>
	<g>
		<path fill="#444B54" d="M91.357,88.729c-0.641,0-1.277-0.238-1.676-0.717c-0.082-0.08-0.242-0.238-0.32-0.396
			c-0.08-0.164-0.16-0.242-0.242-0.402c-0.078-0.16-0.078-0.318-0.158-0.479c0-0.16-0.082-0.32-0.082-0.48s0-0.32,0.082-0.48
			c0-0.158,0.08-0.318,0.158-0.479c0.082-0.158,0.162-0.32,0.242-0.398c0.078-0.162,0.158-0.24,0.32-0.4
			c0.078-0.08,0.24-0.24,0.316-0.318c0.162-0.082,0.242-0.162,0.4-0.24c0.16-0.08,0.318-0.08,0.48-0.16
			c0.32-0.08,0.639-0.08,0.957,0c0.16,0,0.318,0.08,0.482,0.16c0.158,0.078,0.318,0.158,0.396,0.24
			c0.16,0.078,0.24,0.158,0.322,0.318c0.479,0.479,0.717,1.039,0.717,1.676c0,0.162,0,0.32-0.078,0.482
			c0,0.158-0.08,0.318-0.162,0.477c-0.082,0.16-0.158,0.32-0.24,0.4c-0.08,0.16-0.16,0.24-0.318,0.4
			C92.637,88.49,91.996,88.729,91.357,88.729z"/>
	</g>
</g>
</svg>
