<?xml version="1.0" encoding="utf-8"?>
<!-- Generator: Adobe Illustrator 16.0.0, SVG Export Plug-In . SVG Version: 6.00 Build 0)  -->
<!DOCTYPE svg PUBLIC "-//W3C//DTD SVG 1.1//EN" "http://www.w3.org/Graphics/SVG/1.1/DTD/svg11.dtd">
<svg version="1.1" id="Layer_1" xmlns="http://www.w3.org/2000/svg" xmlns:xlink="http://www.w3.org/1999/xlink" x="0px" y="0px"
	 width="30px" height="30px" viewBox="268.465 268.465 30 30" enable-background="new 268.465 268.465 30 30" xml:space="preserve">
<g>
	<path fill="#444B54" d="M289.521,268.927c-3.667,0-6.636,2.967-6.755,6.731c-0.097,3.499,3.256,8.108,5.259,10.521
		c0.362,0.434,0.918,0.699,1.496,0.699c0.579,0,1.11-0.266,1.496-0.699c2.003-2.437,5.381-7.021,5.26-10.521
		C296.156,271.894,293.188,268.927,289.521,268.927z"/>
	<g>
		<circle fill="#FFFFFF" cx="289.521" cy="275.683" r="2.413"/>
	</g>
	<g>
		<path fill="#71C2FF" d="M274.729,293.948L274.729,293.948c0.941,0.82,2.292,0.941,3.354,0.338c0.435-0.24,0.894-0.531,1.4-0.869
			c0.338-0.24,0.627-0.555,0.845-0.916c0.241-0.436,0.531-0.893,0.676-1.424c0.941-3.619-2.196-3.766-2.293-4.559
			c-0.096-0.895,1.062-1.57,1.762-2.27c0.7-0.701,0.917-1.787,0.555-2.414c-1.158-2.075-3.909-0.989-4.174,1.231
			c-0.145,1.327-0.941,2.679-1.616,3.378c-0.676,0.676-2.003,0.312-2.365-0.676c-0.41-1.109,1.014-1.52,0.796-2.944
			c-0.049-0.386-0.458-0.579-0.965-0.651l-2.389,0.097c-0.048,0.555-0.097,1.134-0.097,1.712c0,2.968,0.965,5.694,2.631,7.915
			C272.848,291.897,274.729,293.706,274.729,293.948z"/>
	</g>
	<g>
		<path fill="#444B54" d="M283.489,298.003c-2.028,0-4.03-0.436-5.912-1.328c-3.378-1.568-5.96-4.391-7.239-7.891
			c-1.279-3.498-1.11-7.287,0.483-10.688c1.881-4.029,5.453-6.877,9.82-7.77c0.386-0.072,0.772,0.168,0.868,0.555
			c0.072,0.386-0.168,0.772-0.555,0.869c-3.909,0.82-7.118,3.354-8.807,6.973c-1.424,3.04-1.569,6.444-0.411,9.579
			c1.134,3.137,3.451,5.672,6.491,7.07c3.04,1.422,6.442,1.568,9.579,0.41c3.137-1.133,5.67-3.451,7.069-6.492
			c0.603-1.303,0.989-2.678,1.11-4.078c0.048-0.385,0.41-0.699,0.797-0.65c0.385,0.049,0.699,0.387,0.651,0.797
			c-0.146,1.568-0.58,3.113-1.256,4.537c-1.568,3.377-4.392,5.959-7.89,7.238C286.722,297.735,285.105,298.003,283.489,298.003z"/>
	</g>
</g>
</svg>
