<?xml version="1.0" encoding="utf-8"?>
<!-- Generator: Adobe Illustrator 16.0.0, SVG Export Plug-In . SVG Version: 6.00 Build 0)  -->
<!DOCTYPE svg PUBLIC "-//W3C//DTD SVG 1.1//EN" "http://www.w3.org/Graphics/SVG/1.1/DTD/svg11.dtd">
<svg version="1.1" id="Layer_1" xmlns="http://www.w3.org/2000/svg" xmlns:xlink="http://www.w3.org/1999/xlink" x="0px" y="0px"
	 width="30px" height="30px" viewBox="268.465 268.465 30 30" enable-background="new 268.465 268.465 30 30" xml:space="preserve">
<g>
	<g>
		<g>
			<g>
				<g>
					<g>
						<g>
							<path fill="#FF697B" d="M281.875,291.63l-3.021-1.746c-0.678-0.389-0.86-1.274-0.391-1.9l9.04-12.349l3.83,2.215
								l-7.686,13.312C283.281,291.787,282.5,291.996,281.875,291.63z"/>
						</g>
					</g>
				</g>
			</g>
		</g>
		<g>
			<g>
				<g>
					<g>
						<g>
							<path fill="#FFFFFF" d="M282.995,292.803c-0.209,0-0.417-0.13-0.495-0.339l-2.788-7.633c-0.104-0.26,0.026-0.573,0.312-0.678
								c0.261-0.104,0.573,0.026,0.677,0.312l2.813,7.634c0.105,0.261-0.026,0.573-0.312,0.677
								C283.125,292.803,283.073,292.803,282.995,292.803z"/>
						</g>
					</g>
				</g>
			</g>
		</g>
		<g>
			<g>
				<g>
					<g>
						<g>
							<path fill="#FFFFFF" d="M284.947,289.417c-0.207,0-0.416-0.132-0.494-0.339l-2.787-7.634
								c-0.104-0.26,0.026-0.573,0.313-0.677c0.261-0.104,0.573,0.026,0.677,0.312l2.814,7.632c0.104,0.261-0.027,0.573-0.314,0.678
								C285.08,289.417,285.027,289.417,284.947,289.417z"/>
						</g>
					</g>
				</g>
			</g>
		</g>
		<g>
			<g>
				<g>
					<g>
						<g>
							<path fill="#FFFFFF" d="M286.902,286.029c-0.207,0-0.416-0.131-0.494-0.338l-2.788-7.634
								c-0.105-0.26,0.025-0.572,0.312-0.677c0.286-0.104,0.573,0.026,0.676,0.312l2.814,7.633c0.104,0.26-0.025,0.572-0.312,0.677
								C287.033,286.029,286.982,286.029,286.902,286.029z"/>
						</g>
					</g>
				</g>
			</g>
		</g>
		<g>
			<g>
				<g>
					<g>
						<g>
							<path fill="#FFFFFF" d="M288.857,282.668c-0.209,0-0.418-0.13-0.496-0.338l-2.787-7.659
								c-0.104-0.261,0.025-0.573,0.312-0.678c0.26-0.104,0.572,0.026,0.678,0.312l2.812,7.634c0.105,0.261-0.025,0.573-0.312,0.677
								C288.986,282.643,288.936,282.668,288.857,282.668z"/>
						</g>
					</g>
				</g>
			</g>
		</g>
		<g>
			<g>
				<g>
					<g>
						<g>
							<path fill="#FFFFFF" d="M290.811,279.282c-0.209,0-0.418-0.13-0.494-0.338l-0.574-1.59c-0.104-0.26,0.025-0.572,0.314-0.676
								c0.26-0.104,0.572,0.025,0.676,0.312l0.574,1.589c0.104,0.261-0.027,0.573-0.314,0.678
								C290.941,279.256,290.889,279.282,290.811,279.282z"/>
						</g>
					</g>
				</g>
			</g>
		</g>
		<g>
			<g>
				<g>
					<g>
						<g>
							<path fill="#FFFFFF" d="M279.165,290.067l-0.443-0.26c-0.625-0.365-0.833-1.147-0.468-1.771l7.686-13.313l1.588,0.912
								L279.165,290.067z"/>
						</g>
					</g>
				</g>
			</g>
		</g>
		<g>
			<g>
				<g>
					<g>
						<g>
							<polygon fill="#FCF09D" points="284.35,273.812 292.922,278.761 292.27,269.981 							"/>
						</g>
					</g>
				</g>
			</g>
		</g>
		<g>
			<g>
				<g>
					<g>
						<g>
							<g>
								<polygon fill="#FFFFFF" points="284.35,273.812 292.27,269.981 292.531,271.31 286.59,275.114 								"/>
							</g>
						</g>
					</g>
				</g>
			</g>
		</g>
	</g>
	<g>
		<g>
			<g>
				<path fill="#444B54" d="M276.273,284.884c-0.365-0.209-0.86-0.105-1.068,0.286l-1.875,3.152
					c-0.208,0.364-0.104,0.86,0.287,1.067c0.13,0.078,0.26,0.105,0.39,0.105c0.287,0,0.521-0.157,0.678-0.392l1.876-3.152
					C276.769,285.586,276.638,285.092,276.273,284.884z"/>
			</g>
			<g>
				<path fill="#444B54" d="M289.092,296.686c-0.027-0.053-0.053-0.079-0.078-0.131c-0.027-0.052-0.053-0.079-0.105-0.13
					c-0.025-0.026-0.078-0.078-0.104-0.078c-0.053-0.026-0.078-0.053-0.156-0.078c-0.051-0.027-0.104-0.027-0.156-0.053
					c-0.26-0.053-0.521,0.025-0.705,0.209c-0.154,0.155-0.232,0.338-0.232,0.547c0,0.052,0,0.104,0.025,0.13
					c0,0.053,0.025,0.104,0.053,0.157c0.025,0.052,0.051,0.103,0.078,0.129c0.025,0.053,0.076,0.105,0.104,0.131
					c0.156,0.156,0.338,0.234,0.547,0.234s0.418-0.078,0.547-0.209c0.053-0.025,0.078-0.078,0.105-0.13
					c0.025-0.053,0.051-0.078,0.078-0.13c0.025-0.052,0.025-0.078,0.051-0.13c0-0.053,0.027-0.105,0.027-0.156
					c0-0.053,0-0.105-0.027-0.157C289.117,296.789,289.092,296.736,289.092,296.686z"/>
			</g>
			<g>
				<path fill="#444B54" d="M290.342,287.488c-0.363-0.234-0.859-0.104-1.068,0.261l-0.494,0.833
					c-1.068,1.798-1.615,3.855-1.564,5.966c0,0.417,0.365,0.756,0.809,0.756l0,0c0.443,0,0.781-0.364,0.756-0.808
					c-0.053-1.798,0.416-3.569,1.354-5.132l0.496-0.834C290.838,288.192,290.707,287.696,290.342,287.488z"/>
			</g>
			<g>
				<path fill="#444B54" d="M293.051,269.903c-0.027-0.261-0.154-0.495-0.391-0.626c-0.234-0.13-0.494-0.13-0.729-0.025l-7.92,3.855
					c-0.261,0.13-0.417,0.391-0.444,0.677c0,0.287,0.131,0.573,0.391,0.703l6.305,3.648l-7.294,12.634
					c-0.078,0.131-0.183,0.209-0.313,0.234c-0.13,0.026-0.287,0.026-0.391-0.052l-3.152-1.823c-0.13-0.079-0.208-0.183-0.235-0.313
					c-0.025-0.13-0.025-0.286,0.053-0.391l6.721-11.619c0.209-0.365,0.078-0.86-0.285-1.068c-0.184-0.104-0.393-0.13-0.602-0.079
					c-0.207,0.053-0.363,0.183-0.469,0.366l-6.747,11.619c-0.287,0.469-0.338,1.042-0.208,1.589c0.157,0.548,0.495,0.99,0.964,1.276
					l3.152,1.824c0.313,0.183,0.678,0.286,1.042,0.286c0.182,0,0.365-0.025,0.547-0.078c0.547-0.156,0.99-0.494,1.277-0.965
					l7.293-12.633l0.914,0.521c0.232,0.131,0.572,0.131,0.807-0.026s0.391-0.417,0.365-0.729L293.051,269.903z M292.035,277.354
					l-6.018-3.49l5.574-2.71L292.035,277.354z"/>
			</g>
			<g>
				<path fill="#444B54" d="M279.634,291.344c-0.183-0.104-0.391-0.13-0.6-0.078c-0.208,0.052-0.364,0.183-0.469,0.364l-2.605,4.508
					c-0.208,0.365-0.078,0.86,0.287,1.068c0.13,0.078,0.261,0.104,0.391,0.104c0.287,0,0.547-0.156,0.677-0.391l2.606-4.508
					C280.155,292.048,280.025,291.577,279.634,291.344z"/>
			</g>
		</g>
	</g>
</g>
</svg>
