<?xml version="1.0" encoding="utf-8"?>
<!-- Generator: Adobe Illustrator 16.0.0, SVG Export Plug-In . SVG Version: 6.00 Build 0)  -->
<!DOCTYPE svg PUBLIC "-//W3C//DTD SVG 1.1//EN" "http://www.w3.org/Graphics/SVG/1.1/DTD/svg11.dtd">
<svg version="1.1" id="Layer_1" xmlns="http://www.w3.org/2000/svg" xmlns:xlink="http://www.w3.org/1999/xlink" x="0px" y="0px"
	 width="70px" height="70px" viewBox="248.465 248.465 70 70" enable-background="new 248.465 248.465 70 70" xml:space="preserve">
<g>
	<g>
		<path fill="#FFFFFF" d="M275.131,294.577h-16.668c-1.556,0-2.778-1.224-2.778-2.778v-16.668c0-1.556,1.222-2.778,2.778-2.778
			h16.668c1.556,0,2.778,1.223,2.778,2.778v16.668C277.909,293.354,276.687,294.577,275.131,294.577z"/>
	</g>
	<g>
		<path fill="#FFFFFF" d="M308.467,294.577h-16.668c-1.556,0-2.777-1.224-2.777-2.778v-16.668c0-1.556,1.222-2.778,2.777-2.778
			h16.668c1.556,0,2.778,1.223,2.778,2.778v16.668C311.245,293.354,310.022,294.577,308.467,294.577z"/>
	</g>
	<g>
		<rect x="260.13" y="276.798" fill="#FF5576" width="13.334" height="13.334"/>
	</g>
	<g>
		<rect x="293.465" y="276.798" fill="#2CA4D5" width="13.336" height="13.334"/>
	</g>
	<g>
		<path fill="#444B54" d="M255.685,282.354c-0.946,0-1.667-0.723-1.667-1.666v-5.557c0-2.444,2-4.445,4.445-4.445h16.668
			c0.945,0,1.667,0.723,1.667,1.667c0,0.945-0.722,1.667-1.667,1.667h-16.668c-0.611,0-1.111,0.5-1.111,1.111v5.557
			C257.352,281.631,256.63,282.354,255.685,282.354z"/>
	</g>
	<g>
		<path fill="#444B54" d="M275.131,296.244h-16.668c-2.445,0-4.445-2-4.445-4.445v-5.556c0-0.944,0.722-1.667,1.667-1.667
			c0.945,0,1.667,0.723,1.667,1.667v5.556c0,0.612,0.5,1.111,1.111,1.111h16.668c0.611,0,1.11-0.499,1.11-1.111v-11.111
			c0-0.945,0.723-1.668,1.668-1.668c0.944,0,1.667,0.723,1.667,1.668v11.111C279.576,294.244,277.576,296.244,275.131,296.244z"/>
	</g>
	<g>
		<path fill="#444B54" d="M308.467,296.244h-16.668c-2.443,0-4.444-2-4.444-4.445v-16.668c0-2.444,2.001-4.445,4.444-4.445h16.668
			c2.443,0,4.444,2.001,4.444,4.445v5.557c0,0.943-0.722,1.666-1.666,1.666c-0.945,0-1.666-0.723-1.666-1.666v-5.557
			c0-0.611-0.501-1.111-1.112-1.111h-16.668c-0.611,0-1.112,0.5-1.112,1.111v16.668c0,0.612,0.501,1.111,1.112,1.111h16.668
			c0.611,0,1.112-0.499,1.112-1.111v-5.556c0-0.944,0.721-1.667,1.666-1.667c0.944,0,1.666,0.723,1.666,1.667v5.556
			C312.911,294.244,310.91,296.244,308.467,296.244z"/>
	</g>
	<g>
		<path fill="#444B54" d="M289.021,282.354c-0.946,0-1.667-0.723-1.667-1.666c0-2.168-1.723-3.89-3.89-3.89s-3.889,1.722-3.889,3.89
			c0,0.943-0.723,1.666-1.667,1.666c-0.945,0-1.668-0.723-1.668-1.666c0-4.001,3.224-7.224,7.224-7.224s7.222,3.223,7.222,7.224
			C290.687,281.631,289.966,282.354,289.021,282.354z"/>
	</g>
	<g>
		<path fill="#444B54" d="M255.685,282.354h-3.889c-0.945,0-1.667-0.723-1.667-1.666c0-0.945,0.722-1.668,1.667-1.668h3.889
			c0.945,0,1.667,0.723,1.667,1.668C257.352,281.631,256.63,282.354,255.685,282.354z"/>
	</g>
	<g>
		<path fill="#444B54" d="M315.135,282.354h-3.89c-0.945,0-1.666-0.723-1.666-1.666c0-0.945,0.721-1.668,1.666-1.668h3.89
			c0.943,0,1.666,0.723,1.666,1.668C316.801,281.631,316.078,282.354,315.135,282.354z"/>
	</g>
</g>
</svg>
