<?xml version="1.0" encoding="utf-8"?>
<!-- Generator: Adobe Illustrator 16.0.0, SVG Export Plug-In . SVG Version: 6.00 Build 0)  -->
<!DOCTYPE svg PUBLIC "-//W3C//DTD SVG 1.1//EN" "http://www.w3.org/Graphics/SVG/1.1/DTD/svg11.dtd">
<svg version="1.1" id="Layer_1" xmlns="http://www.w3.org/2000/svg" xmlns:xlink="http://www.w3.org/1999/xlink" x="0px" y="0px"
	 width="100px" height="100px" viewBox="233.465 233.465 100 100" enable-background="new 233.465 233.465 100 100"
	 xml:space="preserve">
<g>
	<path fill="#FFFFFF" d="M312.901,326.566L312.901,326.566c-6.44,0-11.973-4.375-13.459-10.65l-9.248-39.222
		c-2.478-10.404,5.449-20.312,16.102-20.312h3.88c9.083,0,16.515,7.432,16.515,16.514v39.881
		C326.69,320.375,320.498,326.566,312.901,326.566z"/>
	<path fill="#C3DBEA" d="M294.652,283.878l-2.56,0.743l1.074,4.459c1.898,8.174,6.688,12.963,14.862,11.146
		c8.258-1.898,17.67-0.826,18.909,4.707v-6.109v-16.515l-3.716-0.578C313.727,280.328,303.901,281.07,294.652,283.878z"/>
	<path fill="#FF5576" d="M294.735,296.264l0.991-0.33c9.991-3.221,20.643-3.965,31.047-2.146l0,0v-20.643l-3.716-0.578
		c-9.661-1.404-19.404-0.661-28.652,2.146l-4.211,1.239L294.735,296.264z"/>
	<path fill="#FFFFFF" d="M300.516,285.447c-1.073,0-2.146-0.744-2.395-1.899c-0.331-1.322,0.495-2.643,1.816-2.972
		c5.367-1.404,11.229-1.9,17.918-1.487c1.403,0.083,2.395,1.239,2.312,2.643c-0.082,1.404-1.238,2.395-2.643,2.312
		c-6.109-0.33-11.477,0.083-16.349,1.32C300.929,285.447,300.764,285.447,300.516,285.447z"/>
	<path fill="#444B54" d="M312.901,329.291c-7.019,0-11.56-4.211-13.377-12.633l-2.725-11.725c-0.33-1.32,0.495-2.643,1.899-2.973
		c1.32-0.33,2.643,0.496,2.973,1.9l2.725,11.807c1.734,7.68,5.284,8.752,8.587,8.752c4.624,0,9.33-1.32,9.33-11.312v-11.064
		c0-1.402,1.074-2.477,2.478-2.477c1.404,0,2.478,1.074,2.478,2.477v10.982C327.186,326.484,319.425,329.291,312.901,329.291z"/>
	<path fill="#444B54" d="M310.176,254.152h-3.88c-5.863,0-11.23,2.643-14.863,7.184c-3.633,4.542-4.954,10.487-3.633,16.101
		l4.541,19.323v0.082v0.082c0.33,1.074,1.321,1.734,2.395,1.734c0.248,0,0.495,0,0.743-0.082c9.908-3.139,21.139-4.047,30.799-2.395
		c0.743,0.164,1.486-0.082,1.982-0.578c0.578-0.496,0.908-1.156,0.908-1.898l0,0l0,0v-20.644
		C329.168,262.658,320.663,254.152,310.176,254.152z M296.553,293.127l-3.964-16.763c-0.99-4.211,0-8.587,2.642-11.891
		c2.643-3.303,6.688-5.284,10.982-5.284h3.881c6.771,0,12.386,4.789,13.707,11.147l-0.578-0.083c-9-1.321-17.918-0.908-26.753,1.322
		c-1.321,0.33-2.146,1.651-1.817,2.972c0.331,1.321,1.652,2.147,2.973,1.817c8.175-2.064,16.515-2.478,24.771-1.239l1.569,0.248
		v15.605C315.378,289.906,305.552,290.648,296.553,293.127z"/>
	<path fill="#FFFFFF" d="M254.028,310.053L254.028,310.053c6.441,0,11.973-4.377,13.459-10.652l9.248-39.22
		c2.478-10.404-5.449-20.312-16.101-20.312h-3.88c-9.083,0-16.515,7.432-16.515,16.514v39.882
		C240.238,303.861,246.431,310.053,254.028,310.053z"/>
	<path fill="#C3DBEA" d="M242.633,263.318l-2.642,0.165v4.624c0,8.422,3.633,14.202,11.973,14.202
		c8.421,0,17.422,3.138,17.422,8.835l1.322-5.945l3.715-16.102l-3.468-1.404C262.038,264.144,252.294,262.658,242.633,263.318z"/>
	<path fill="#FF5576" d="M240.651,275.539l0.992-0.083c10.486-0.908,21.055,0.826,30.716,4.872l0,0l4.624-20.147l-3.468-1.404
		c-9-3.55-18.661-5.037-28.321-4.376l-4.376,0.33L240.651,275.539z"/>
	<path fill="#FFFFFF" d="M266.91,269.016c-0.248,0-0.496,0-0.744-0.083c-6.11-1.817-11.56-2.643-16.762-2.56
		c-1.403,0-2.477-1.074-2.56-2.395c0-1.404,1.074-2.478,2.395-2.56c5.698-0.165,11.725,0.743,18.331,2.725
		c1.322,0.413,2.065,1.734,1.652,3.055C268.891,268.354,267.9,269.016,266.91,269.016z"/>
	<path fill="#444B54" d="M275.497,244.822c-3.633-4.541-9.083-7.184-14.863-7.184h-3.88c-10.487,0-18.992,8.504-18.992,18.992
		v18.991c0,0,0,0,0,0.083s0,0.083,0,0.165c0.083,1.403,1.321,2.395,2.643,2.229c10.238-0.826,21.385,0.826,30.551,4.706
		c0.331,0.166,0.661,0.166,0.991,0.166c0.413,0,0.744-0.083,1.156-0.248c0.579-0.331,0.991-0.826,1.157-1.404
		c0.082-0.083,0.165-0.165,0.165-0.248l4.706-20.147C280.451,255.308,279.129,249.446,275.497,244.822z M242.716,273.061V256.63
		c0-7.762,6.276-14.038,14.038-14.038h3.88c4.294,0,8.339,1.899,10.982,5.285c2.064,2.642,3.138,5.78,3.055,9.083l-0.661-0.248
		c-8.422-3.303-17.257-4.872-26.34-4.707c-1.404,0-2.477,1.156-2.395,2.56c0,1.404,1.156,2.478,2.56,2.395
		c8.422-0.165,16.597,1.239,24.441,4.376l1.486,0.578l-3.55,15.276C261.708,274.135,251.964,272.648,242.716,273.061z"/>
	<path fill="#444B54" d="M254.028,312.777c-5.202,0-13.79-2.146-13.79-16.266v-12.469c0-1.404,1.074-2.477,2.478-2.477
		s2.478,1.073,2.478,2.477v12.469c0,10.156,5.036,11.312,8.834,11.312c4.294,0,6.771-1.404,8.587-8.918l2.478-11.064
		c0.33-1.321,1.651-2.146,2.973-1.899c1.321,0.33,2.146,1.651,1.898,2.974l-2.477,11.062
		C265.836,306.668,263.111,312.777,254.028,312.777z"/>
</g>
</svg>
