<?xml version="1.0" encoding="utf-8"?>
<!-- Generator: Adobe Illustrator 16.0.0, SVG Export Plug-In . SVG Version: 6.00 Build 0)  -->
<!DOCTYPE svg PUBLIC "-//W3C//DTD SVG 1.1//EN" "http://www.w3.org/Graphics/SVG/1.1/DTD/svg11.dtd">
<svg version="1.1" id="ﾃ神xA1_ﾃ神xBB_ﾃ神xBE_ﾃ神xB9__x5F_1"
	 xmlns="http://www.w3.org/2000/svg" xmlns:xlink="http://www.w3.org/1999/xlink" x="0px" y="0px" width="100px" height="100px"
	 viewBox="233.465 233.465 100 100" enable-background="new 233.465 233.465 100 100" xml:space="preserve">
<g>
	<g>
		<g>
			<g>
				<g>
					<g>
						<path fill="#F0D6BF" d="M321.156,298.143l-18.335,6.23l0,0c0.541-0.902,0.903-1.896,0.812-3.07
							c-0.181-2.529-2.438-4.426-5.058-4.426H285.48c-5.059-7.314-18.878-7.314-18.878-7.314h-11.019v22.127l26.012,8.129
							c0,0,7.858,2.26,13.458,0c4.786-1.896,24.025-12.012,30.077-15.264c1.174-0.633,2.8-2.439,1.896-4.516l0,0
							C326.214,298.322,324.859,297.148,321.156,298.143z"/>
					</g>
					<g>
						<path fill="#454B54" d="M298.757,309.252h-19.058c-1.535,0-2.709-1.176-2.709-2.711s1.174-2.709,2.709-2.709h19.148
							c1.174,0,2.167-0.902,2.167-2.076c0-1.537,1.174-2.711,2.71-2.711c1.535,0,2.709,1.174,2.709,2.711
							C306.344,305.91,303.001,309.252,298.757,309.252z"/>
					</g>
					<g>
						<path fill="#454B54" d="M289.002,323.521c-4.335,0-7.947-1.084-8.219-1.084l-26.012-8.129
							c-1.175-0.359-1.897-1.445-1.897-2.619v-22.037c0-1.535,1.174-2.711,2.71-2.711h11.019c0.633,0,13.909,0.092,20.142,7.316
							h11.832c3.974,0,7.406,2.98,7.768,6.865c0.181,1.715-0.271,3.25-1.175,4.697c-0.631,0.992-1.896,1.535-3.07,1.174l0,0
							c-0.812-0.271-1.536-0.904-1.807-1.717s-0.181-1.717,0.271-2.439c0.182-0.27,0.361-0.723,0.361-1.354
							c-0.09-1.084-1.174-1.896-2.348-1.896H285.48c-0.904,0-1.717-0.453-2.259-1.176c-3.522-5.057-13.187-6.141-16.619-6.141
							h-8.309v17.34l24.114,7.498c0,0,6.955,1.986,11.651,0.09c4.697-1.896,24.025-12.102,29.807-15.174
							c0.09-0.09,0.812-0.631,0.632-0.992c-0.181-0.453-0.361-0.904-2.528-0.361l-10.479,3.521
							c-1.444,0.451-2.979-0.271-3.432-1.717c-0.451-1.443,0.271-2.98,1.717-3.432l10.477-3.521h0.091
							c5.961-1.627,8.219,1.445,9.031,3.432c1.445,3.342-0.541,6.594-3.161,7.947c-7.496,3.975-25.561,13.459-30.257,15.355
							C293.789,323.16,291.26,323.521,289.002,323.521z"/>
					</g>
					<g>
						<path fill="#FFFFFF" d="M252.874,315.303c1.535,0,2.71-1.174,2.71-2.709V289.02c0-1.535-1.265-2.8-2.891-2.8h-12.915
							c-0.362,0,0,29.083,0,29.083H252.874z"/>
					</g>
					<g>
						<path fill="#454B54" d="M252.874,318.014h-13.096c-1.536,0-2.711-1.176-2.711-2.711s1.175-2.709,2.711-2.709h13.096V289.02
							c0-0.09-0.091-0.09-0.181-0.09h-12.915c-1.536,0-2.711-1.174-2.711-2.71c0-1.535,1.175-2.709,2.711-2.709h12.915
							c3.071,0,5.601,2.438,5.601,5.509v23.574C258.294,315.574,255.854,318.014,252.874,318.014z"/>
					</g>
				</g>
			</g>
		</g>
	</g>
	<g>
		<g>
			<g>
				<g>
					<path fill="#788EEF" d="M286.563,243.408c4.155,0,7.857,1.716,10.478,4.426c2.528-2.71,6.321-4.426,10.477-4.426
						c7.677,0,13.909,5.78,13.909,13.006c0,4.064-1.986,7.678-5.147,10.116l0,0l-19.238,14.09l-18.877-13.909l0,0
						c-3.342-2.349-5.51-6.142-5.51-10.297C272.654,249.188,278.887,243.408,286.563,243.408z"/>
				</g>
			</g>
		</g>
	</g>
	<g>
		<path fill="#FFFFFF" d="M281.687,259.124c-1.535,0-2.71-1.174-2.71-2.71c0-3.702,3.432-6.684,7.587-6.684
			c1.535,0,2.709,1.174,2.709,2.71c0,1.535-1.174,2.71-2.709,2.71c-1.354,0-2.168,0.812-2.168,1.264
			C284.396,257.859,283.222,259.124,281.687,259.124z"/>
	</g>
</g>
</svg>
