<?xml version="1.0" encoding="utf-8"?>
<!-- Generator: Adobe Illustrator 16.0.0, SVG Export Plug-In . SVG Version: 6.00 Build 0)  -->
<!DOCTYPE svg PUBLIC "-//W3C//DTD SVG 1.1//EN" "http://www.w3.org/Graphics/SVG/1.1/DTD/svg11.dtd">
<svg version="1.1" id="ﾃ神xA1_ﾃ神xBB_ﾃ神xBE_ﾃ神xB9__x5F_1"
	 xmlns="http://www.w3.org/2000/svg" xmlns:xlink="http://www.w3.org/1999/xlink" x="0px" y="0px" width="70px" height="70px"
	 viewBox="248.465 248.465 70 70" enable-background="new 248.465 248.465 70 70" xml:space="preserve">
<g>
	<path fill="#F4EFCB" d="M307.621,273.771c0-2.354-1.208-4.407-3.08-5.555c0.543-0.786,0.906-1.752,0.906-2.778
		c0-2.658-2.175-4.832-4.832-4.832c-0.06,0-0.12,0-0.181,0c0.121-0.422,0.181-0.846,0.181-1.329c0-2.415-1.992-4.409-4.407-4.409
		c-0.968,0-1.873,0.303-2.657,0.906l0,0c0-2.174-1.752-3.926-3.926-3.926s-3.926,1.752-3.926,3.926s0,27.539,0,31.223
		c0,0.846,0.181,1.691,0.483,2.414h-5.314c0.302-0.723,0.482-1.568,0.482-2.414c0-3.623,0-28.988,0-31.223
		c0-2.174-1.752-3.926-3.926-3.926c-2.173,0-3.924,1.752-3.924,3.926l0,0c-0.726-0.543-1.632-0.906-2.658-0.906
		c-2.416,0-4.408,1.994-4.408,4.409c0,0.483,0.06,0.907,0.181,1.329c-0.061,0-0.121,0-0.181,0c-2.657,0-4.832,2.174-4.832,4.832
		c0,1.026,0.303,1.992,0.906,2.778c-1.992,1.148-3.201,3.201-3.201,5.555c0,2.356,1.209,4.409,3.021,5.557
		c-0.543,0.966-0.846,2.052-0.846,3.261c0,3.624,2.958,6.583,6.583,6.583c0.12,0,0.24,0,0.361,0c0,0.061,0.062,0.182,0.121,0.24
		h-0.664c3.383,3.08,5.254,7.549,5.254,12.139v1.572h10.327h10.326v-1.633c0-4.588,1.812-9.057,5.256-12.137h-0.666
		c0.061-0.061,0.061-0.182,0.122-0.24c0.12,0,0.241,0,0.36,0c3.624,0,6.584-2.961,6.584-6.584c0-1.148-0.302-2.294-0.846-3.261
		C306.413,278.12,307.621,276.068,307.621,273.771z"/>
	<path fill="#FFFFFF" d="M280.808,289.354c0.302-0.725,0.482-1.57,0.482-2.416c0-3.624,0-28.988,0-31.222
		c0-2.175-1.751-3.926-3.926-3.926c-2.173,0-3.924,1.751-3.924,3.926l0,0c-0.726-0.543-1.631-0.906-2.657-0.906
		c-2.417,0-4.409,1.993-4.409,4.409c0,0.483,0.061,0.906,0.181,1.329c-0.061,0-0.12,0-0.181,0c-2.657,0-4.831,2.174-4.831,4.832
		c0,1.026,0.303,1.992,0.905,2.777c-1.932,1.208-3.141,3.261-3.141,5.616c0,2.356,1.209,4.409,3.021,5.557
		c-0.543,0.966-0.846,2.052-0.846,3.261c0,3.624,2.958,6.583,6.583,6.583c0.12,0,0.24,0,0.361,0c0,0.061,0.062,0.182,0.121,0.24
		h-0.664c3.383,3.08,5.254,7.549,5.254,12.139v1.572h10.327v-13.77H280.808z"/>
	<path fill="#454B54" d="M265.892,282.167c-4.651,0-8.396-3.744-8.396-8.395c0-1.026,0.786-1.812,1.812-1.812
		c1.027,0,1.812,0.786,1.812,1.812c0,2.658,2.114,4.771,4.771,4.771c2.656,0,4.77-2.174,4.77-4.771v-2.173
		c0-1.028,0.786-1.812,1.812-1.812c1.028,0,1.813,0.784,1.813,1.812v2.173C274.286,278.422,270.541,282.167,265.892,282.167z"/>
	<path fill="#454B54" d="M270.723,265.438c-3.442,0-6.221-2.778-6.221-6.22c0-1.027,0.784-1.812,1.812-1.812
		s1.812,0.785,1.812,1.812c0,1.449,1.146,2.597,2.597,2.597c1.026,0,1.812,0.784,1.812,1.812
		C272.534,264.653,271.749,265.438,270.723,265.438z"/>
	<path fill="#F1E9B4" d="M307.621,273.771c0-2.354-1.208-4.407-3.08-5.555c0.543-0.786,0.906-1.752,0.906-2.778
		c0-2.658-2.175-4.832-4.832-4.832c-0.06,0-0.12,0-0.181,0c0.121-0.422,0.181-0.846,0.181-1.329c0-2.415-1.992-4.409-4.407-4.409
		c-0.665,0-1.268,0.121-1.812,0.423c3.865,4.832,6.28,11.655,6.28,19.265c0,7.126-2.112,13.589-5.555,18.359
		c1.57-0.785,2.776-2.113,3.382-3.744c0.12,0,0.241,0,0.36,0c3.624,0,6.584-2.959,6.584-6.583c0-1.146-0.302-2.295-0.846-3.261
		C306.413,278.12,307.621,276.068,307.621,273.771z"/>
	<path fill="#454B54" d="M300.375,282.167c-4.651,0-8.396-3.744-8.396-8.395c0-1.026,0.786-1.812,1.812-1.812
		c1.027,0,1.812,0.786,1.812,1.812c0,2.658,2.114,4.771,4.772,4.771c1.026,0,1.812,0.786,1.812,1.812
		C302.187,281.381,301.341,282.167,300.375,282.167z"/>
	<path fill="#454B54" d="M291.979,261.09c-1.025,0-1.812-0.786-1.812-1.812c0-3.442,2.778-6.22,6.221-6.22
		c1.027,0,1.812,0.786,1.812,1.812c0,1.028-0.784,1.812-1.812,1.812c-1.448,0-2.598,1.148-2.598,2.597
		C293.791,260.244,293.007,261.09,291.979,261.09z"/>
	<path fill="#454B54" d="M292.282,295.332c-4.65,0-8.395-3.744-8.395-8.395v-31.222c0-3.201,2.598-5.737,5.737-5.737
		c2.295,0,4.228,1.328,5.193,3.262c0.483-0.122,0.905-0.182,1.39-0.182c3.321,0,6.099,2.658,6.219,5.979
		c2.779,0.785,4.832,3.382,4.832,6.402c0,0.786-0.12,1.57-0.423,2.295c1.631,1.569,2.598,3.743,2.598,6.1
		c0,2.355-0.967,4.529-2.657,6.099c0.302,0.846,0.422,1.751,0.422,2.657c0,4.348-3.32,7.971-7.608,8.395
		C298.2,293.58,295.362,295.332,292.282,295.332z M289.625,253.601c-1.208,0-2.114,0.967-2.114,2.114v31.222
		c0,2.658,2.114,4.77,4.771,4.77c2.053,0,3.804-1.266,4.529-3.199c0.24-0.785,1.026-1.27,1.812-1.207h0.121c0.06,0,0.119,0,0.119,0
		c2.658,0,4.772-2.176,4.772-4.772c0-0.846-0.242-1.631-0.604-2.355c-0.483-0.845-0.182-1.872,0.604-2.417
		c1.389-0.906,2.234-2.415,2.234-4.046c0-1.63-0.846-3.141-2.234-4.046c-0.423-0.24-0.726-0.664-0.785-1.146
		c-0.121-0.483,0-0.968,0.303-1.389c0.362-0.485,0.543-1.088,0.543-1.751c0-1.691-1.329-3.02-3.021-3.02h-0.12
		c-0.604,0-1.146-0.242-1.509-0.725c-0.363-0.483-0.483-1.086-0.303-1.63c0.06-0.242,0.119-0.545,0.119-0.785
		c0-1.449-1.146-2.597-2.595-2.597c-0.545,0-1.088,0.182-1.571,0.543c-0.543,0.423-1.269,0.483-1.871,0.182
		c-0.604-0.303-1.027-0.906-1.027-1.631C291.799,254.568,290.832,253.601,289.625,253.601z"/>
	<path fill="#454B54" d="M274.707,295.332c-1.026,0-1.812-0.785-1.812-1.812s0.785-1.812,1.812-1.812
		c2.657,0,4.771-2.172,4.771-4.77v-31.222c0-1.208-0.966-2.114-2.114-2.114c-1.206,0-2.112,0.967-2.112,2.114
		c0,0.665-0.362,1.328-1.027,1.631c-0.604,0.301-1.329,0.241-1.872-0.182c-0.423-0.361-0.966-0.543-1.569-0.543
		c-1.45,0-2.598,1.148-2.598,2.597c0,0.24,0.061,0.543,0.12,0.785c0.303,0.966-0.24,1.993-1.208,2.294
		c-0.966,0.303-1.992-0.242-2.295-1.208c-0.181-0.604-0.301-1.269-0.301-1.872c0-3.443,2.778-6.221,6.221-6.221
		c0.483,0,0.966,0.06,1.389,0.181c0.967-1.932,2.898-3.261,5.193-3.261c3.2,0,5.737,2.597,5.737,5.737v31.222
		C283.103,291.588,279.298,295.332,274.707,295.332z"/>
	<path fill="#454B54" d="M268.126,290.924c-3.504,0-6.644-2.176-7.852-5.496c-0.362-0.967,0.122-1.993,1.088-2.355
		c0.966-0.364,1.992,0.12,2.354,1.087c0.664,1.871,2.476,3.141,4.469,3.141c1.026,0,1.812,0.783,1.812,1.812
		C269.997,290.139,269.092,290.924,268.126,290.924z"/>
	<path fill="#454B54" d="M262.328,281.14c-0.362,0-0.665-0.121-0.966-0.302c-2.417-1.57-3.866-4.227-3.866-7.066
		c0-2.354,0.967-4.529,2.598-6.099c-0.242-0.725-0.423-1.511-0.423-2.294c0-1.028,0.785-1.812,1.812-1.812s1.812,0.784,1.812,1.812
		c0,0.603,0.181,1.207,0.544,1.751c0.302,0.423,0.422,0.906,0.302,1.389c-0.12,0.482-0.362,0.906-0.785,1.146
		c-1.389,0.906-2.234,2.417-2.234,4.046c0,1.631,0.846,3.14,2.234,4.046c0.846,0.545,1.086,1.631,0.543,2.477
		C263.536,280.838,262.932,281.14,262.328,281.14z"/>
	<path fill="#454B54" d="M291.92,267.13c-0.483,0-0.966-0.182-1.269-0.544c-0.362-0.361-0.543-0.785-0.543-1.268
		c0-0.484,0.181-0.967,0.543-1.268c0.665-0.666,1.872-0.666,2.537,0c0.362,0.362,0.543,0.784,0.543,1.268
		c0,0.483-0.181,0.966-0.543,1.268C292.886,266.948,292.403,267.13,291.92,267.13z"/>
	<path fill="#454B54" d="M304.541,270.028h-2.174c-1.026,0-1.812-0.786-1.812-1.812c0-1.026,0.785-1.812,1.812-1.812h2.174
		c1.026,0,1.812,0.785,1.812,1.812C306.353,269.242,305.567,270.028,304.541,270.028z"/>
	<path fill="#454B54" d="M264.562,270.028h-2.174c-1.026,0-1.812-0.786-1.812-1.812c0-1.026,0.786-1.812,1.812-1.812h2.174
		c1.026,0,1.812,0.785,1.812,1.812C266.374,269.242,265.589,270.028,264.562,270.028z"/>
	<path fill="#454B54" d="M293.791,310.973h-20.653c-1.026,0-1.812-0.785-1.812-1.812v-6.037c0-1.027,0.785-1.812,1.812-1.812h18.842
		c0.062-5.133,2.175-9.965,5.858-13.287c0.726-0.662,1.872-0.604,2.537,0.123c0.664,0.723,0.603,1.871-0.122,2.535
		c-2.958,2.656-4.65,6.582-4.65,10.809v1.633l0,0l-0.06,6.037C295.543,310.188,294.758,310.973,293.791,310.973z M274.95,307.35
		h17.029v-2.416H274.95V307.35z"/>
	<path fill="none" stroke="#454B54" stroke-width="6" stroke-linecap="round" stroke-linejoin="round" stroke-miterlimit="10" d="
		M268.488,289.113"/>
	<path fill="#454B54" d="M284.674,317.012h-2.417c-1.026,0-1.812-0.785-1.812-1.811c0-1.027,0.785-1.812,1.812-1.812h2.417
		c1.025,0,1.812,0.785,1.812,1.812C286.485,316.227,285.699,317.012,284.674,317.012z"/>
</g>
</svg>
