<?xml version="1.0" encoding="utf-8"?>
<!-- Generator: Adobe Illustrator 16.0.0, SVG Export Plug-In . SVG Version: 6.00 Build 0)  -->
<!DOCTYPE svg PUBLIC "-//W3C//DTD SVG 1.1//EN" "http://www.w3.org/Graphics/SVG/1.1/DTD/svg11.dtd">
<svg version="1.1" id="ﾃ神xA1_ﾃ神xBB_ﾃ神xBE_ﾃ神xB9__x5F_1"
	 xmlns="http://www.w3.org/2000/svg" xmlns:xlink="http://www.w3.org/1999/xlink" x="0px" y="0px" width="70px" height="70px"
	 viewBox="248.465 248.465 70 70" enable-background="new 248.465 248.465 70 70" xml:space="preserve">
<g>
	<g>
		<g>
			<path fill="#FFFFFF" d="M310.326,310.385h-53.782c-2.994,0-5.402-2.406-5.402-5.401v-43.037c0-2.995,2.408-5.403,5.402-5.403
				h53.841c2.994,0,5.402,2.408,5.402,5.403v43.037C315.729,307.979,313.32,310.385,310.326,310.385z"/>
		</g>
	</g>
	<g>
		<g>
			<path fill="#DEDFE6" d="M269.167,310.796c-0.997,0-1.761-0.763-1.761-1.761v-31.529c0-0.999,0.764-1.762,1.761-1.762
				c0.999,0,1.762,0.763,1.762,1.762v31.588C270.929,310.033,270.166,310.796,269.167,310.796z"/>
		</g>
	</g>
	<g>
		<g>
			<g>
				<g>
					<path fill="#A8B2C6" d="M315.729,267.348h-64.586v-5.401c0-2.995,2.408-5.403,5.402-5.403h53.841
						c2.994,0,5.402,2.408,5.402,5.403L315.729,267.348L315.729,267.348z"/>
				</g>
			</g>
		</g>
		<g>
			<g>
				<g>
					<path fill="#DEDFE6" d="M279.795,275.45h26.068c1,0,1.762,0.764,1.762,1.762v7.222c0,0.998-0.762,1.762-1.762,1.762h-26.068
						c-0.998,0-1.762-0.764-1.762-1.762v-7.222C278.033,276.214,278.797,275.45,279.795,275.45z"/>
				</g>
			</g>
			<g>
				<g>
					<path fill="#D3B3D5" d="M279.795,291.597h7.221c1,0,1.762,0.764,1.762,1.762v7.222c0,0.999-0.762,1.761-1.762,1.761h-7.221
						c-0.998,0-1.762-0.762-1.762-1.761v-7.222C278.033,292.36,278.797,291.597,279.795,291.597z"/>
				</g>
			</g>
		</g>
	</g>
	<path fill="#464C55" d="M310.385,254.783h-53.841c-3.934,0-7.163,3.229-7.163,7.164v43.037c0,3.934,3.229,7.163,7.163,7.163h53.782
		c3.934,0,7.164-3.17,7.223-7.163v-43.037C317.549,258.012,314.318,254.783,310.385,254.783z M252.904,262.005
		c0-1.996,1.644-3.64,3.64-3.64v-0.059h53.782c1.996,0,3.641,1.644,3.641,3.641v3.639h-61.063V262.005z M310.385,308.683h-53.841
		c-1.996,0-3.64-1.644-3.64-3.641v-35.933h61.122v35.933C314.025,307.039,312.381,308.683,310.385,308.683z"/>
	<g>
		<g>
			<path fill="#FFFFFF" d="M257.895,264.001c-1.117,0-2.055-0.94-2.055-2.055c0-1.117,0.938-2.055,2.055-2.055
				c1.115,0,2.055,0.938,2.055,2.055C259.892,263.062,259.01,264.001,257.895,264.001z"/>
		</g>
	</g>
	<g>
		<g>
			<path fill="#FFFFFF" d="M263.238,264.001c-1.116,0-2.055-0.94-2.055-2.055c0-1.117,0.939-2.055,2.055-2.055
				c1.115,0,2.055,0.938,2.055,2.055C265.292,263.062,264.353,264.001,263.238,264.001z"/>
		</g>
	</g>
	<g>
		<g>
			<path fill="#FFFFFF" d="M268.64,264.001c-1.117,0-2.055-0.94-2.055-2.055c0-1.117,0.938-2.055,2.055-2.055
				c1.115,0,2.055,0.938,2.055,2.055C270.636,263.062,269.754,264.001,268.64,264.001z"/>
		</g>
	</g>
	<g>
		<g>
			<g>
				<path fill="#DEDFE6" d="M305.277,294.943h-10.746c-0.996,0-1.76-0.764-1.76-1.762s0.764-1.762,1.76-1.762h10.746
					c0.998,0,1.762,0.764,1.762,1.762S306.275,294.943,305.277,294.943z"/>
			</g>
		</g>
		<g>
			<g>
				<path fill="#DEDFE6" d="M305.277,302.459h-10.746c-0.996,0-1.76-0.764-1.76-1.762c0-0.997,0.764-1.761,1.76-1.761h10.746
					c0.998,0,1.762,0.764,1.762,1.761C307.039,301.695,306.275,302.459,305.277,302.459z"/>
			</g>
		</g>
	</g>
</g>
</svg>
