<?xml version="1.0" encoding="utf-8"?>
<!-- Generator: Adobe Illustrator 16.0.0, SVG Export Plug-In . SVG Version: 6.00 Build 0)  -->
<!DOCTYPE svg PUBLIC "-//W3C//DTD SVG 1.1//EN" "http://www.w3.org/Graphics/SVG/1.1/DTD/svg11.dtd">
<svg version="1.1" id="Layer_1" xmlns="http://www.w3.org/2000/svg" xmlns:xlink="http://www.w3.org/1999/xlink" x="0px" y="0px"
	 width="500px" height="500px" viewBox="0 0 500 500" enable-background="new 0 0 500 500" xml:space="preserve">
<g>
	<path fill="#222222" d="M404.719,169.337c-1.523-15.591-13.99-27.755-29.143-27.755H124.415c-16.181,0-29.304,13.873-29.304,30.977
		c0,17.109,13.123,30.977,29.304,30.977h63.804c17.029,0.097,30.805,13.921,30.805,30.974v0.003h0.003v92.929
		c0,17.11,13.87,30.977,30.976,30.977c17.107,0,30.98-13.866,30.98-30.977v-93.229c0.16-16.934,13.898-30.61,30.85-30.676h0.236
		c17.055,0.066,30.865,13.903,30.865,30.977v92.929c0,17.11,13.869,30.977,30.977,30.977c17.105,0,30.979-13.866,30.979-30.977
		v-92.929v-0.003v-61.95C404.889,171.47,404.832,170.396,404.719,169.337z"/>
	<path fill="#222222" d="M126.09,358.418c-17.106,0-30.977-13.866-30.977-30.977v-61.953c0-17.108,13.87-30.976,30.977-30.976l0,0
		c17.107,0,30.977,13.868,30.977,30.976v61.953C157.067,344.552,143.197,358.418,126.09,358.418L126.09,358.418z"/>
</g>
</svg>
