<?xml version="1.0" encoding="utf-8"?>
<!-- Generator: Adobe Illustrator 16.0.0, SVG Export Plug-In . SVG Version: 6.00 Build 0)  -->
<!DOCTYPE svg PUBLIC "-//W3C//DTD SVG 1.1//EN" "http://www.w3.org/Graphics/SVG/1.1/DTD/svg11.dtd">
<svg version="1.1" id="Layer_1" xmlns="http://www.w3.org/2000/svg" xmlns:xlink="http://www.w3.org/1999/xlink" x="0px" y="0px"
	 width="566.93px" height="566.93px" viewBox="0 0 566.93 566.93" enable-background="new 0 0 566.93 566.93" xml:space="preserve">
<g>
	<g>
		<path fill="#8EABB2" d="M398.622,549.213H168.307c-24.36,0-44.292-19.931-44.292-44.291V62.008
			c0-24.36,19.931-44.292,44.292-44.292h230.315c24.36,0,44.292,19.931,44.292,44.292v442.914
			C442.914,529.282,422.982,549.213,398.622,549.213z"/>
	</g>
	<g>
		<path fill="#FFFFFF" d="M150.591,272.835c-7.53,0-13.288-5.758-13.288-13.287V62.008c0-17.274,13.73-31.004,31.004-31.004
			c7.53,0,13.288,5.758,13.288,13.287c0,7.53-5.758,13.288-13.288,13.288c-2.657,0-4.429,1.771-4.429,4.429v197.54
			C163.878,266.634,158.12,272.835,150.591,272.835z"/>
	</g>
	<g>
		<path fill="#FFFFFF" d="M150.591,444.686c-7.53,0-13.288-5.758-13.288-13.287v-18.603c0-7.529,5.758-13.287,13.288-13.287
			c7.529,0,13.287,5.758,13.287,13.287v18.603C163.878,438.928,158.12,444.686,150.591,444.686z"/>
	</g>
	<g>
		<path fill="#444B54" d="M398.622,4.429H168.307c-31.89,0-57.579,25.689-57.579,57.579v442.914
			c0,31.89,25.689,57.579,57.579,57.579h230.315c31.89,0,57.579-25.689,57.579-57.579V62.008
			C456.201,30.118,430.512,4.429,398.622,4.429z M429.626,504.922c0,17.273-13.729,31.004-31.004,31.004H168.307
			c-17.273,0-31.004-13.73-31.004-31.004V62.008c0-17.274,13.73-31.004,31.004-31.004h35.433v13.287
			c0,7.53,5.758,13.288,13.288,13.288h132.875c7.529,0,13.287-5.758,13.287-13.288V31.004h35.433
			c17.274,0,31.004,13.73,31.004,31.004V504.922z"/>
	</g>
</g>
</svg>
