<svg version="1.1" id="Layer_1" xmlns="http://www.w3.org/2000/svg" xmlns:xlink="http://www.w3.org/1999/xlink" x="0px" y="0px" viewBox="0 0 128 128" style="enable-background:new 0 0 128 128;" xml:space="preserve">

<polygon points="64,80 117,10 55,39 " style="fill:#FFFFFF;"></polygon>
<polygon points="117,10 19,30 55,39 64,80 67,43 107,50 " style="fill:#FFFFFF;"></polygon>
<polygon points="55,39 117,12 67,43 64,80 " style="fill:#88E3FF;"></polygon>
<polyline points="64,80 67,43 107,50 117,10 19,30 55,39 58.5,50 " style="fill:none;stroke:#444B54;stroke-width:6;stroke-linecap:round;stroke-linejoin:round;stroke-miterlimit:10;"></polyline>
<g>
	<g>
		<path d="M39,57.5c-0.8,0.6-1.6,1.2-2.4,1.8" style="fill:none;stroke:#444B54;stroke-width:6;stroke-linecap:round;stroke-linejoin:round;"></path>
		<path d="M23.4,69.2C15.6,75.7,12.8,81,12.5,95c-0.7,33,67.6,10.3,76,8.5c15-3.2,14.5-18.1-4.5-14.6
			c-14,2.6-15.8,26.1,13.8,26.1" style="fill:none;stroke:#444B54;stroke-width:6;stroke-linecap:round;stroke-linejoin:round;stroke-dasharray:6.1978,16.5275;"></path>
		<path d="M106,114.4c1-0.1,2-0.3,3-0.4" style="fill:none;stroke:#444B54;stroke-width:6;stroke-linecap:round;stroke-linejoin:round;"></path>
	</g>
</g>
</svg>
