<?xml version="1.0" encoding="utf-8"?>
<!-- Generator: Adobe Illustrator 16.0.0, SVG Export Plug-In . SVG Version: 6.00 Build 0)  -->
<!DOCTYPE svg PUBLIC "-//W3C//DTD SVG 1.1//EN" "http://www.w3.org/Graphics/SVG/1.1/DTD/svg11.dtd">
<svg version="1.1" id="Layer_1" xmlns="http://www.w3.org/2000/svg" xmlns:xlink="http://www.w3.org/1999/xlink" x="0px" y="0px"
	 width="33px" height="33px" viewBox="29.5 28.5 33 33" enable-background="new 29.5 28.5 33 33" xml:space="preserve">
<g>
	<path fill="#222222" d="M61.345,36.999c-0.151-1.547-1.388-2.753-2.89-2.753h-24.91c-1.605,0-2.907,1.376-2.907,3.073
		c0,1.697,1.301,3.072,2.907,3.072h6.328c1.688,0.009,3.055,1.381,3.055,3.072l0,0l0,0v9.217c0,1.697,1.376,3.072,3.073,3.072
		s3.073-1.375,3.073-3.072v-9.246c0.017-1.68,1.379-3.037,3.06-3.043h0.023c1.692,0.006,3.062,1.379,3.062,3.072v9.216
		c0,1.697,1.375,3.073,3.072,3.073c1.696,0,3.072-1.376,3.072-3.073v-9.216v-0.001V37.32C61.361,37.21,61.356,37.104,61.345,36.999z
		"/>
	<path fill="#222222" d="M33.71,55.751c-1.696,0-3.073-1.374-3.073-3.072v-6.145c0-1.695,1.375-3.071,3.073-3.071l0,0
		c1.697,0,3.072,1.376,3.072,3.071v6.145C36.783,54.377,35.408,55.751,33.71,55.751L33.71,55.751z"/>
</g>
</svg>
