<?xml version="1.0" encoding="utf-8"?>
<!-- Generator: Adobe Illustrator 16.0.0, SVG Export Plug-In . SVG Version: 6.00 Build 0)  -->
<!DOCTYPE svg PUBLIC "-//W3C//DTD SVG 1.1//EN" "http://www.w3.org/Graphics/SVG/1.1/DTD/svg11.dtd">
<svg version="1.1" id="Layer_1" xmlns="http://www.w3.org/2000/svg" xmlns:xlink="http://www.w3.org/1999/xlink" x="0px" y="0px"
	 width="92px" height="90px" viewBox="204 205 92 90" enable-background="new 204 205 92 90" xml:space="preserve">
<g>
	<path fill="#222222" d="M289.846,229.227c-0.393-4.016-3.604-7.148-7.506-7.148h-64.683c-4.167,0-7.546,3.573-7.546,7.979
		s3.379,7.978,7.546,7.978h16.433c4.385,0.024,7.933,3.585,7.933,7.977v0.001h0.001v23.932c0,4.407,3.572,7.979,7.978,7.979
		c4.406,0,7.978-3.571,7.978-7.979v-24.009c0.041-4.361,3.58-7.884,7.945-7.9h0.061c4.393,0.017,7.949,3.58,7.949,7.978v23.933
		c0,4.406,3.572,7.978,7.979,7.978c4.404,0,7.977-3.57,7.977-7.978v-23.933v-0.001v-15.954
		C289.889,229.775,289.875,229.499,289.846,229.227z"/>
	<path fill="#222222" d="M218.088,277.921c-4.405,0-7.978-3.57-7.978-7.978v-15.955c0-4.405,3.572-7.977,7.978-7.977l0,0
		c4.406,0,7.978,3.571,7.978,7.977v15.955C226.066,274.351,222.495,277.921,218.088,277.921L218.088,277.921z"/>
</g>
</svg>
