<?xml version="1.0" encoding="utf-8"?>
<!-- Generator: Adobe Illustrator 16.0.0, SVG Export Plug-In . SVG Version: 6.00 Build 0)  -->
<!DOCTYPE svg PUBLIC "-//W3C//DTD SVG 1.1//EN" "http://www.w3.org/Graphics/SVG/1.1/DTD/svg11.dtd">
<svg version="1.1" id="Layer_1" xmlns="http://www.w3.org/2000/svg" xmlns:xlink="http://www.w3.org/1999/xlink" x="0px" y="0px"
	 width="92px" height="90px" viewBox="0 0 92 90" enable-background="new 0 0 92 90" xml:space="preserve">
<g>
	<path fill="#FFFFFF" d="M85.846,24.224c-0.393-4.016-3.604-7.147-7.506-7.147H13.657c-4.167,0-7.546,3.573-7.546,7.979
		c0,4.405,3.379,7.978,7.546,7.978H30.09c4.385,0.024,7.934,3.585,7.934,7.978l0,0l0,0v23.932c0,4.408,3.572,7.979,7.979,7.979
		s7.979-3.57,7.979-7.979V40.935c0.041-4.361,3.58-7.885,7.944-7.9h0.062c4.393,0.018,7.949,3.58,7.949,7.979v23.932
		c0,4.406,3.571,7.979,7.979,7.979c4.404,0,7.977-3.57,7.977-7.979V41.013v-0.002V25.058C85.889,24.773,85.875,24.497,85.846,24.224
		z"/>
	<path fill="#FFFFFF" d="M14.088,72.918c-4.404,0-7.979-3.568-7.979-7.977V48.986c0-4.406,3.572-7.978,7.979-7.978l0,0
		c4.406,0,7.979,3.571,7.979,7.978v15.955C22.066,69.35,18.495,72.918,14.088,72.918L14.088,72.918z"/>
</g>
</svg>
