<?xml version="1.0" encoding="utf-8"?>
<!-- Generator: Adobe Illustrator 16.0.0, SVG Export Plug-In . SVG Version: 6.00 Build 0)  -->
<!DOCTYPE svg PUBLIC "-//W3C//DTD SVG 1.1//EN" "http://www.w3.org/Graphics/SVG/1.1/DTD/svg11.dtd">
<svg version="1.1" id="Layer_1" xmlns="http://www.w3.org/2000/svg" xmlns:xlink="http://www.w3.org/1999/xlink" x="0px" y="0px"
	 width="30px" height="30px" viewBox="268.465 268.465 30 30" enable-background="new 268.465 268.465 30 30" xml:space="preserve">
<g>
	<g>
		<g>
			<g>
				<path fill="#FFFFFF" d="M292.62,281.466v6.431l0,0c0,0.756-0.343,1.487-0.915,1.968c-4.784,3.846-11.811,3.96-16.479,0.023
					c-0.572-0.504-0.916-1.235-0.916-1.991l0,0v-6.477"/>
			</g>
		</g>
	</g>
	<g>
		<g>
			<g>
				<polygon fill="#FFFFFF" points="269.732,279.887 283.694,285.607 297.198,279.887 283.694,274.164 				"/>
			</g>
		</g>
	</g>
	<path fill="#444B54" d="M297.473,279.245l-13.504-5.722c-0.161-0.069-0.367-0.069-0.526,0l-13.962,5.722
		c-0.274,0.115-0.436,0.366-0.436,0.642c0,0.273,0.161,0.526,0.436,0.641l4.143,1.693v5.676c0,0.984,0.412,1.899,1.145,2.518
		c2.403,2.037,5.47,3.044,8.56,3.044c3.113,0,6.249-1.03,8.789-3.066c0.756-0.596,1.19-1.511,1.19-2.495v-5.607l4.166-1.762
		c0.252-0.115,0.412-0.367,0.412-0.641C297.885,279.611,297.725,279.36,297.473,279.245z M275.66,289.361
		c-0.412-0.366-0.664-0.893-0.664-1.465v-5.104l8.446,3.456h0.022c1.259,0.55,2.586,0.915,3.914,0.984
		c0.366,0.023,0.664,0.32,0.664,0.687v3.273C283.9,292.841,279.047,292.223,275.66,289.361z M283.694,284.875l-12.154-4.988
		l12.154-4.99l11.741,4.99L283.694,284.875z"/>
	<g>
		<g>
			<g>
				<path fill="#444B54" d="M297.198,287.188c-0.389,0-0.688-0.299-0.688-0.688v-4.325c0-0.39,0.299-0.687,0.688-0.687
					s0.687,0.297,0.687,0.687v4.325C297.885,286.866,297.587,287.188,297.198,287.188z"/>
			</g>
		</g>
	</g>
</g>
</svg>
