<?xml version="1.0" encoding="utf-8"?>
<!-- Generator: Adobe Illustrator 16.0.0, SVG Export Plug-In . SVG Version: 6.00 Build 0)  -->
<!DOCTYPE svg PUBLIC "-//W3C//DTD SVG 1.1//EN" "http://www.w3.org/Graphics/SVG/1.1/DTD/svg11.dtd">
<svg version="1.1" id="Layer_1" xmlns="http://www.w3.org/2000/svg" xmlns:xlink="http://www.w3.org/1999/xlink" x="0px" y="0px"
	 width="30px" height="30px" viewBox="282.64 405.945 30 30" enable-background="new 282.64 405.945 30 30" xml:space="preserve">
<g>
	<path fill="#454B54" d="M297.667,418.762c1.38,0,2.761-0.013,4.141,0.011c0.367,0.006,0.443-0.105,0.439-0.453
		c-0.02-1.554-0.01-3.109-0.008-4.664c0.002-0.788,0.233-1.016,1.025-1.018c1.031-0.001,2.062-0.002,3.094,0
		c0.768,0.002,0.997,0.229,1.002,0.982c0.001,0.365,0.029,0.733-0.009,1.094c-0.043,0.419,0.129,0.502,0.51,0.487
		c0.712-0.028,1.427-0.014,2.141-0.006c0.691,0.006,0.947,0.262,0.952,0.95c0.006,0.825,0.007,1.65-0.002,2.475
		c-0.002,0.235,0.009,0.399,0.296,0.483c0.345,0.099,0.47,0.408,0.472,0.75c0.006,0.81,0.006,1.619,0,2.428
		c-0.002,0.364-0.141,0.667-0.507,0.775c-0.243,0.073-0.261,0.218-0.26,0.422c0.006,0.841,0.007,1.682,0.002,2.522
		c-0.006,0.687-0.269,0.947-0.95,0.95c-0.762,0.003-1.523,0.015-2.284-0.007c-0.305-0.009-0.384,0.095-0.366,0.38
		c0.022,0.38,0.014,0.762,0.001,1.143c-0.016,0.494-0.275,0.774-0.766,0.779c-1.189,0.014-2.38,0.015-3.569-0.001
		c-0.529-0.006-0.777-0.31-0.78-0.922c-0.006-1.491-0.015-2.983,0.007-4.474c0.005-0.37-0.092-0.479-0.471-0.476
		c-2.76,0.017-5.521,0.018-8.282-0.001c-0.395-0.003-0.465,0.13-0.46,0.485c0.018,1.46,0.01,2.919,0.006,4.379
		c-0.002,0.784-0.236,1.014-1.027,1.016c-1.063,0.003-2.126,0.005-3.189-0.002c-0.641-0.003-0.895-0.258-0.903-0.889
		c-0.004-0.364-0.015-0.73,0.004-1.095c0.013-0.254-0.08-0.325-0.326-0.319c-0.762,0.013-1.523,0.006-2.285,0.003
		c-0.743-0.001-0.987-0.249-0.989-1.006c-0.003-0.825-0.007-1.649,0.002-2.476c0.002-0.211-0.032-0.344-0.269-0.415
		c-0.344-0.103-0.494-0.389-0.497-0.733c-0.008-0.84-0.01-1.682,0.001-2.522c0.005-0.324,0.148-0.614,0.473-0.7
		c0.299-0.079,0.292-0.258,0.291-0.486c-0.006-0.809-0.005-1.619-0.001-2.427c0.003-0.745,0.249-0.989,1.006-0.993
		c0.729-0.003,1.459-0.012,2.189,0.004c0.296,0.006,0.43-0.061,0.408-0.394c-0.031-0.458-0.017-0.92-0.004-1.379
		c0.014-0.495,0.277-0.775,0.765-0.781c1.19-0.013,2.38-0.014,3.569,0.001c0.532,0.006,0.778,0.308,0.78,0.921
		c0.007,1.571,0.017,3.141-0.007,4.711c-0.006,0.397,0.096,0.502,0.494,0.495C294.906,418.746,296.286,418.762,297.667,418.762z"/>
	<path fill="#F2787A" d="M289.469,424.936c-0.005-1.22-0.013-2.442-0.016-3.664c0-0.226-0.007-0.448-0.148-0.636
		c-0.197-0.263-0.458-0.395-0.786-0.308c-0.357,0.094-0.583,0.319-0.592,0.707c-0.012,0.508-0.012,1.015-0.017,1.523
		c-0.587,0.299-1.204,0.151-1.811,0.105c-0.198-0.016-0.22-0.191-0.218-0.363c0.016-1.331-0.029-2.663,0.024-3.994
		c0.135-0.176,0.333-0.17,0.521-0.171c0.664-0.001,1.33-0.048,1.989,0.072c0.657,0.121,1.023-0.176,1.035-0.851
		c0.01-0.551,0.011-1.103,0.016-1.655c0.667-0.224,1.333-0.247,1.996,0.018c0.065,0.151,0.034,0.312,0.034,0.468
		c0.002,2.754,0.002,5.508,0.002,8.262c0,0.596-0.039,0.656-0.645,0.642C290.39,425.08,289.902,425.232,289.469,424.936z"/>
	<path fill="#F2787A" d="M307.371,422.558c-0.006-0.521-0.003-1.042-0.017-1.564c-0.013-0.497-0.297-0.799-0.739-0.811
		c-0.462-0.011-0.776,0.302-0.782,0.818c-0.015,1.312-0.016,2.623-0.021,3.935c-0.603,0.299-1.231,0.176-1.848,0.09
		c-0.252-0.035-0.178-0.302-0.178-0.48c-0.004-2.182-0.007-4.364,0-6.545c0.002-0.757-0.041-1.516,0.027-2.273
		c0.663-0.283,1.331-0.247,2.002-0.025c0.004,0.553,0.007,1.105,0.016,1.657c0.009,0.673,0.375,0.971,1.036,0.848
		c0.655-0.119,1.318-0.072,1.979-0.071c0.188,0,0.384-0.004,0.523,0.161c0.067,1.354,0.013,2.71,0.029,4.065
		c0.002,0.139-0.039,0.276-0.183,0.29C308.597,422.715,307.972,422.851,307.371,422.558z"/>
	<path fill="#969EA9" d="M294.888,420.293c2.252-0.001,4.503,0.009,6.755-0.016c0.449-0.005,0.652,0.097,0.576,0.569
		c-0.024,0.155-0.01,0.316-0.014,0.475c-0.149,0.145-0.342,0.156-0.531,0.157c-2.115,0.005-4.23,0.009-6.346-0.003
		c-0.247-0.001-0.547,0.018-0.632-0.292C294.61,420.869,294.53,420.525,294.888,420.293z"/>
	<path fill="#C55C61" d="M289.469,424.936c0.523,0.002,1.047-0.009,1.568,0.011c0.301,0.013,0.418-0.074,0.417-0.396
		c-0.012-2.946-0.011-5.893-0.013-8.839l0.03-0.028l0.034,0.023c0.011,0.173,0.032,0.346,0.032,0.52
		c-0.001,3.646-0.01,7.292,0.003,10.938c0.001,0.429-0.1,0.6-0.55,0.557c-0.409-0.04-0.823-0.017-1.235-0.007
		c-0.226,0.007-0.309-0.082-0.305-0.306C289.462,426.585,289.463,425.761,289.469,424.936z"/>
	<path fill="#C55C61" d="M303.841,415.711c-0.002,2.946,0,5.893-0.014,8.839c-0.001,0.322,0.116,0.409,0.416,0.396
		c0.523-0.02,1.047-0.009,1.568-0.011c0.006,0.81,0.005,1.617,0.021,2.426c0.007,0.267-0.085,0.365-0.354,0.354
		c-0.444-0.017-0.889-0.021-1.332,0.002c-0.319,0.017-0.407-0.105-0.402-0.41c0.015-0.841,0-1.682,0-2.521
		c-0.001-2.9-0.001-5.802,0-8.703c0-0.125,0.021-0.252,0.031-0.378l0.035-0.022L303.841,415.711z"/>
	<path fill="#C55C61" d="M307.371,422.558c0.521,0.004,1.046-0.013,1.568,0.017c0.35,0.019,0.422-0.13,0.418-0.445
		c-0.016-1.283-0.01-2.566-0.012-3.85c0.013-0.01,0.025-0.019,0.037-0.028c0.013,0.01,0.024,0.021,0.037,0.03
		c0.005,2.278,0.009,4.557,0.017,6.834c0.002,0.223-0.077,0.312-0.303,0.308c-0.49-0.01-0.982-0.014-1.472,0.002
		c-0.271,0.007-0.312-0.129-0.308-0.353C307.365,424.236,307.365,423.398,307.371,422.558z"/>
	<path fill="#C55C61" d="M285.936,418.28c-0.003,1.283,0.002,2.566-0.013,3.85c-0.004,0.315,0.069,0.464,0.42,0.445
		c0.521-0.029,1.044-0.013,1.568-0.017c0.004,0.84,0.004,1.678,0.016,2.515c0.003,0.224-0.037,0.359-0.307,0.353
		c-0.49-0.016-0.981-0.011-1.472-0.002c-0.226,0.005-0.305-0.085-0.304-0.308c0.01-2.277,0.013-4.556,0.018-6.834
		c0.012-0.01,0.024-0.021,0.036-0.03C285.91,418.261,285.923,418.27,285.936,418.28z"/>
	<path fill="#6C717A" d="M294.888,420.293c-0.147,0.196-0.077,0.426-0.102,0.642c-0.036,0.32,0.111,0.399,0.411,0.397
		c2.336-0.012,4.673-0.01,7.009-0.011c0.061,0.359-0.056,0.497-0.452,0.494c-2.744-0.017-5.489-0.015-8.233-0.002
		c-0.353,0.002-0.463-0.096-0.461-0.456c0.006-1.076-0.009-1.077,1.069-1.076C294.382,420.282,294.635,420.29,294.888,420.293z"/>
	<path fill="#FDFDFD" d="M288.415,418.208c-0.823,0.148-1.655,0.009-2.479,0.072l-0.013-0.009c-0.1-0.489-0.001-0.985-0.053-1.477
		c0.606-0.134,1.221-0.035,1.831-0.059c0.329-0.013,0.215,0.252,0.215,0.41C287.913,417.585,287.912,418.011,288.415,418.208z"/>
	<path fill="#FDFDFD" d="M309.346,418.28c-0.825-0.064-1.656,0.077-2.479-0.073c0.475-0.188,0.532-0.588,0.487-1.014
		c-0.04-0.373,0.088-0.505,0.463-0.466c0.528,0.054,1.066-0.067,1.593,0.067c-0.052,0.492,0.048,0.988-0.052,1.477L309.346,418.28z"
		/>
	<path fill="#FDFDFD" d="M291.44,415.711c-0.659-0.003-1.316-0.007-1.973-0.01c-0.006-0.423-0.011-0.846-0.015-1.27
		c-0.001-0.125-0.018-0.267,0.175-0.258c0.623,0.029,1.249-0.073,1.868,0.059c-0.016,0.486,0.043,0.975-0.033,1.46L291.44,415.711z"
		/>
	<path fill="#FDFDFD" d="M305.816,415.702c-0.659,0.003-1.316,0.006-1.975,0.01l-0.022-0.019c-0.074-0.485-0.018-0.974-0.032-1.46
		c0.619-0.131,1.244-0.029,1.867-0.059c0.193-0.009,0.178,0.133,0.176,0.258C305.825,414.855,305.82,415.278,305.816,415.702z"/>
	<path fill="#F2787A" d="M309.359,418.271c0.018-0.493,0.035-0.985,0.052-1.478c0.059,0.496,0.039,0.992,0.01,1.488
		C309.399,418.281,309.378,418.276,309.359,418.271z"/>
	<path fill="#F2787A" d="M285.87,416.794c0.018,0.493,0.036,0.984,0.053,1.477c-0.021,0.005-0.041,0.009-0.062,0.011
		C285.831,417.786,285.812,417.29,285.87,416.794z"/>
	<path fill="#F2787A" d="M303.786,414.233c0.011,0.486,0.021,0.974,0.033,1.461c-0.001-0.001-0.043,0.012-0.043,0.012
		C303.74,415.215,303.72,414.724,303.786,414.233z"/>
	<path fill="#F2787A" d="M291.462,415.693c0.011-0.486,0.021-0.974,0.033-1.46c0.066,0.491,0.046,0.982,0.009,1.474L291.462,415.693
		z"/>
</g>
</svg>
