<?xml version="1.0" encoding="utf-8"?>
<!-- Generator: Adobe Illustrator 16.0.0, SVG Export Plug-In . SVG Version: 6.00 Build 0)  -->
<!DOCTYPE svg PUBLIC "-//W3C//DTD SVG 1.1//EN" "http://www.w3.org/Graphics/SVG/1.1/DTD/svg11.dtd">
<svg version="1.1" id="ﾃ神xA1_ﾃ神xBB_ﾃ神xBE_ﾃ神xB9__x5F_1"
	 xmlns="http://www.w3.org/2000/svg" xmlns:xlink="http://www.w3.org/1999/xlink" x="0px" y="0px" width="30px" height="30px"
	 viewBox="268.465 268.465 30 30" enable-background="new 268.465 268.465 30 30" xml:space="preserve">
<g>
	<g>
		<g>
			<path fill="#FFFFFF" d="M293.971,296.094H272.96c-1.561,0-2.838-1.277-2.838-2.839v-19.306c0-1.561,1.277-2.84,2.838-2.84h21.011
				c1.561,0,2.838,1.279,2.838,2.84v19.306C296.809,294.816,295.531,296.094,293.971,296.094z"/>
		</g>
	</g>
	<g>
		<g>
			<path fill="#454B54" d="M296.809,278.208h-26.687c-0.483,0-0.852-0.369-0.852-0.852c0-0.483,0.369-0.852,0.852-0.852h26.687
				c0.483,0,0.852,0.369,0.852,0.852C297.66,277.839,297.292,278.208,296.809,278.208z"/>
		</g>
	</g>
	<g>
		<g>
			<path fill="#454B54" d="M275.799,275.084c-0.227,0-0.454-0.085-0.597-0.256c-0.17-0.142-0.255-0.369-0.255-0.596
				c0-0.227,0.085-0.455,0.255-0.597c0.312-0.312,0.88-0.312,1.192,0c0.171,0.171,0.256,0.37,0.256,0.597
				c0,0.227-0.085,0.454-0.256,0.596C276.253,275,276.026,275.084,275.799,275.084z"/>
		</g>
	</g>
	<g>
		<g>
			<path fill="#454B54" d="M283.465,275.084c-0.227,0-0.455-0.085-0.596-0.256c-0.171-0.142-0.257-0.369-0.257-0.596
				c0-0.227,0.086-0.455,0.257-0.597c0.312-0.312,0.879-0.312,1.191,0c0.171,0.171,0.256,0.37,0.256,0.597
				c0,0.227-0.085,0.454-0.256,0.596C283.919,275,283.692,275.084,283.465,275.084z"/>
		</g>
	</g>
	<g>
		<g>
			<path fill="#454B54" d="M291.982,275.084c-0.228,0-0.454-0.085-0.597-0.256c-0.17-0.142-0.255-0.369-0.255-0.596
				c0-0.227,0.085-0.455,0.255-0.597c0.313-0.312,0.881-0.312,1.193,0c0.171,0.171,0.255,0.37,0.255,0.597
				c0,0.227-0.084,0.454-0.255,0.596C292.437,275,292.21,275.084,291.982,275.084z"/>
		</g>
	</g>
	<g>
		<g>
			<path fill="#454B54" d="M293.971,296.946H272.96c-2.044,0-3.69-1.646-3.69-3.691v-19.306c0-2.044,1.646-3.69,3.69-3.69h21.011
				c2.044,0,3.689,1.646,3.689,3.69v19.306C297.66,295.3,296.015,296.946,293.971,296.946z M272.96,271.961
				c-1.107,0-1.987,0.881-1.987,1.987v19.306c0,1.108,0.879,1.986,1.987,1.986h21.011c1.106,0,1.985-0.878,1.985-1.986v-19.306
				c0-1.106-0.879-1.987-1.985-1.987H272.96z"/>
		</g>
	</g>
	<g>
		<g>
			<g>
				<rect x="280.625" y="280.195" fill="#DAE7EF" width="5.68" height="5.678"/>
			</g>
		</g>
		<g>
			<g>
				<rect x="272.96" y="280.195" fill="#C7D7E2" width="5.679" height="5.678"/>
			</g>
		</g>
		<g>
			<g>
				<rect x="288.291" y="280.195" fill="#DAE7EF" width="5.68" height="5.678"/>
			</g>
		</g>
		<g>
			<g>
				<rect x="280.625" y="287.861" fill="#C7D7E2" width="5.68" height="5.678"/>
			</g>
		</g>
		<g>
			<g>
				<rect x="272.96" y="287.861" fill="#C7D7E2" width="5.679" height="5.678"/>
			</g>
		</g>
		<g>
			<g>
				<rect x="288.291" y="287.861" fill="#98BED8" width="5.68" height="5.678"/>
			</g>
		</g>
	</g>
</g>
</svg>
