<?xml version="1.0" encoding="utf-8"?>
<!-- Generator: Adobe Illustrator 16.0.0, SVG Export Plug-In . SVG Version: 6.00 Build 0)  -->
<!DOCTYPE svg PUBLIC "-//W3C//DTD SVG 1.1//EN" "http://www.w3.org/Graphics/SVG/1.1/DTD/svg11.dtd">
<svg version="1.1" id="Layer_1" xmlns="http://www.w3.org/2000/svg" xmlns:xlink="http://www.w3.org/1999/xlink" x="0px" y="0px"
	 width="30px" height="30px" viewBox="268.465 268.465 30 30" enable-background="new 268.465 268.465 30 30" xml:space="preserve">
<g>
	<g>
		<polygon fill="#FFFFFF" points="278.687,276.948 276.515,279.337 280.858,279.337 280.858,296.497 286.072,296.497 
			286.072,279.337 290.416,279.337 288.025,276.948 		"/>
	</g>
	<g>
		<g>
			<rect x="274.342" y="285.854" fill="#FFFFFF" width="2.607" height="11.296"/>
		</g>
		<g>
			<path fill="#FFFFFF" d="M276.08,279.337h-3.475c-1.195,0-2.173,0.978-2.173,2.173v6.516l0,0c0.717,0,1.304,0.588,1.304,1.305
				v7.819h2.606v-9.124h2.607h1.303v-6.516C278.251,280.315,277.274,279.337,276.08,279.337z"/>
		</g>
		<g>
			<path fill="#71C2FF" d="M276.949,297.149c-0.37,0-0.651-0.282-0.651-0.652v-8.472c0-0.368,0.282-0.65,0.651-0.65
				s0.652,0.282,0.652,0.65v8.472C277.601,296.867,277.318,297.149,276.949,297.149z"/>
		</g>
		<g>
			<path fill="#71C2FF" d="M274.342,297.149c-0.369,0-0.651-0.282-0.651-0.652v-7.167c0-0.37,0.282-0.652,0.651-0.652
				c0.37,0,0.652,0.282,0.652,0.652v7.167C274.994,296.867,274.711,297.149,274.342,297.149z"/>
		</g>
		<g>
			<circle fill="#FFFFFF" cx="274.342" cy="274.776" r="2.172"/>
		</g>
		<g>
			<path fill="#71C2FF" d="M274.342,277.6c-1.564,0-2.823-1.259-2.823-2.824c0-1.564,1.259-2.824,2.823-2.824
				c1.564,0,2.825,1.26,2.825,2.824C277.167,276.341,275.906,277.6,274.342,277.6z M274.342,273.255c-0.847,0-1.52,0.673-1.52,1.521
				c0,0.847,0.673,1.521,1.52,1.521s1.521-0.674,1.521-1.521C275.863,273.929,275.189,273.255,274.342,273.255z"/>
		</g>
		<g>
			<path fill="#71C2FF" d="M271.736,297.149c-0.37,0-0.652-0.282-0.652-0.652v-7.167c0-0.37,0.283-0.652,0.652-0.652
				c0.369,0,0.652,0.282,0.652,0.652v7.167C272.388,296.867,272.104,297.149,271.736,297.149z"/>
		</g>
		<g>
			<path fill="#71C2FF" d="M270.432,288.678c-0.369,0-0.652-0.282-0.652-0.652v-6.516c0-1.564,1.26-2.824,2.825-2.824h0.434
				c0.37,0,0.652,0.282,0.652,0.651c0,0.37-0.283,0.652-0.652,0.652h-0.434c-0.847,0-1.521,0.674-1.521,1.521v6.516
				C271.083,288.396,270.801,288.678,270.432,288.678z"/>
		</g>
	</g>
	<g>
		<g>
			<g>
				<rect x="292.588" y="285.854" fill="#FFFFFF" width="2.607" height="11.296"/>
			</g>
			<g>
				<path fill="#FFFFFF" d="M294.326,279.337h-3.475c-1.195,0-2.174,0.978-2.174,2.173v6.516l0,0c0.719,0,1.305,0.588,1.305,1.305
					v7.819h2.605v-9.124h2.607h1.303v-6.516C296.498,280.315,295.521,279.337,294.326,279.337z"/>
			</g>
			<g>
				<path fill="#71C2FF" d="M295.195,297.149c-0.369,0-0.652-0.282-0.652-0.652v-8.472c0-0.368,0.283-0.65,0.652-0.65h0.652v-5.865
					c0-0.847-0.674-1.521-1.521-1.521h-0.436c-0.369,0-0.65-0.282-0.65-0.652c0-0.369,0.281-0.651,0.65-0.651h0.436
					c1.564,0,2.824,1.259,2.824,2.824v6.516c0,0.37-0.283,0.652-0.652,0.652h-0.65v7.819
					C295.848,296.867,295.564,297.149,295.195,297.149z"/>
			</g>
			<g>
				<path fill="#71C2FF" d="M292.588,297.149c-0.369,0-0.65-0.282-0.65-0.652v-7.167c0-0.37,0.281-0.652,0.65-0.652
					s0.652,0.282,0.652,0.652v7.167C293.24,296.867,292.957,297.149,292.588,297.149z"/>
			</g>
			<g>
				<circle fill="#FFFFFF" cx="292.588" cy="274.776" r="2.172"/>
			</g>
			<g>
				<path fill="#71C2FF" d="M292.588,277.6c-1.562,0-2.824-1.259-2.824-2.824c0-1.564,1.262-2.824,2.824-2.824
					c1.564,0,2.824,1.26,2.824,2.824C295.412,276.341,294.152,277.6,292.588,277.6z M292.588,273.255
					c-0.848,0-1.52,0.673-1.52,1.521c0,0.847,0.672,1.521,1.52,1.521s1.521-0.674,1.521-1.521
					C294.109,273.929,293.436,273.255,292.588,273.255z"/>
			</g>
		</g>
		<g>
			<path fill="#71C2FF" d="M289.982,297.149c-0.369,0-0.652-0.282-0.652-0.652v-8.472c0-0.368,0.283-0.65,0.652-0.65
				s0.65,0.282,0.65,0.65v8.472C290.633,296.867,290.352,297.149,289.982,297.149z"/>
		</g>
	</g>
	<g>
		<g>
			<path fill="#444B54" d="M288.025,277.6h-9.339c-0.37,0-0.652-0.282-0.652-0.652c0-0.369,0.282-0.651,0.652-0.651h9.339
				c0.371,0,0.652,0.283,0.652,0.651C288.678,277.318,288.396,277.6,288.025,277.6z"/>
		</g>
		<g>
			<circle fill="#FFFFFF" cx="283.465" cy="272.604" r="2.173"/>
		</g>
		<g>
			<path fill="#444B54" d="M283.465,275.428c-1.563,0-2.824-1.26-2.824-2.824c0-1.564,1.26-2.824,2.824-2.824
				c1.564,0,2.824,1.259,2.824,2.824C286.289,274.168,285.029,275.428,283.465,275.428z M283.465,271.083
				c-0.847,0-1.521,0.674-1.521,1.521s0.674,1.52,1.521,1.52s1.519-0.673,1.519-1.52S284.312,271.083,283.465,271.083z"/>
		</g>
	</g>
	<path fill="#444B54" d="M290.416,279.989c0.369,0,0.652-0.282,0.652-0.652c0-0.369-0.283-0.651-0.652-0.651h-4.344
		c-0.369,0-0.652,0.282-0.652,0.651v16.51h-1.303v-7.929c0-0.37-0.282-0.652-0.652-0.652s-0.652,0.282-0.652,0.652v7.929h-1.303
		v-16.51c0-0.369-0.282-0.651-0.652-0.651h-4.344c-0.37,0-0.652,0.282-0.652,0.651c0,0.37,0.282,0.652,0.652,0.652h3.693v15.858
		h-3.259c-0.37,0-0.651,0.282-0.651,0.65c0,0.37,0.282,0.652,0.651,0.652h13.034c0.369,0,0.65-0.282,0.65-0.652
		c0-0.368-0.281-0.65-0.65-0.65h-3.26v-15.858H290.416z"/>
</g>
</svg>
