<?xml version="1.0" encoding="utf-8"?>
<!-- Generator: Adobe Illustrator 16.0.0, SVG Export Plug-In . SVG Version: 6.00 Build 0)  -->
<!DOCTYPE svg PUBLIC "-//W3C//DTD SVG 1.1//EN" "http://www.w3.org/Graphics/SVG/1.1/DTD/svg11.dtd">
<svg version="1.1" id="Layer_1" xmlns="http://www.w3.org/2000/svg" xmlns:xlink="http://www.w3.org/1999/xlink" x="0px" y="0px"
	 width="30px" height="30px" viewBox="197.6 268.465 30 30" enable-background="new 197.6 268.465 30 30" xml:space="preserve">
<g>
	<path fill="#464C55" d="M208.292,275.792c1.575,0,2.987,0.007,4.401-0.003c0.62-0.005,1.23-0.102,1.824-0.289
		c1.468-0.463,2.132-1.316,2.221-2.851c0.041-0.7,0.362-1.177,0.927-1.371c0.905-0.311,1.822,0.353,1.829,1.342
		c0.009,1.845,0.007,3.688-0.005,5.531c-0.002,0.265,0.057,0.384,0.331,0.474c1.406,0.466,2.332,1.765,2.323,3.204
		c-0.009,1.433-0.924,2.706-2.312,3.17c-0.263,0.09-0.347,0.195-0.345,0.472c0.016,1.845,0.014,3.688,0.007,5.532
		c-0.002,0.59-0.279,1.027-0.812,1.288c-0.513,0.252-0.995,0.158-1.437-0.179c-0.368-0.279-0.487-0.695-0.54-1.13
		c-0.235-1.912-1.094-2.791-3.009-3.075c-0.508-0.076-1.017-0.087-1.529-0.103c-0.214-0.008-0.293,0.066-0.361,0.27
		c-0.369,1.104-1.108,1.855-2.221,2.211c-0.231,0.073-0.273,0.183-0.271,0.396c0.01,0.888,0.007,1.776,0.003,2.664
		c-0.007,1.325-1.013,2.371-2.285,2.384c-1.234,0.011-2.305-1.073-2.314-2.37c-0.011-1.614-0.003-3.229-0.003-4.845
		c0-0.582-0.093-0.682-0.658-0.712c-3.469-0.194-5.952-2.933-5.799-6.397c0.122-2.747,2.452-5.239,5.193-5.532
		C205.115,275.693,206.787,275.859,208.292,275.792z"/>
	<path fill="#464C55" d="M225.055,281.097c0.389,0,0.779-0.014,1.167,0.003c0.447,0.019,0.719,0.292,0.726,0.697
		c0.009,0.412-0.245,0.721-0.688,0.736c-0.807,0.027-1.613,0.026-2.417,0.002c-0.438-0.013-0.712-0.329-0.71-0.723
		c0.002-0.418,0.286-0.69,0.754-0.717c0.026-0.001,0.053-0.002,0.081-0.002c0.361,0,0.725,0,1.087,0
		C225.055,281.095,225.055,281.096,225.055,281.097z"/>
	<path fill="#464C55" d="M225.557,277.838c-0.012,0.282-0.129,0.47-0.312,0.622c-0.493,0.411-0.984,0.826-1.484,1.229
		c-0.385,0.309-0.791,0.277-1.066-0.063c-0.271-0.337-0.218-0.741,0.156-1.055c0.501-0.424,1.01-0.839,1.516-1.255
		c0.241-0.194,0.509-0.228,0.787-0.087C225.416,277.359,225.535,277.588,225.557,277.838z"/>
	<path fill="#464C55" d="M223.263,283.731c0.214,0.02,0.388,0.113,0.545,0.244c0.474,0.396,0.951,0.786,1.421,1.186
		c0.37,0.319,0.422,0.732,0.149,1.062c-0.265,0.322-0.71,0.346-1.073,0.048c-0.507-0.418-1.012-0.837-1.51-1.264
		c-0.269-0.228-0.32-0.528-0.197-0.84C222.712,283.88,222.965,283.755,223.263,283.731z"/>
	<path fill="#F5F5F9" d="M200.514,282.568c0.242-0.009,0.484-0.003,0.724-0.031c0.433-0.05,0.694-0.348,0.681-0.754
		c-0.014-0.405-0.291-0.67-0.741-0.684c-0.39-0.012-0.78-0.009-1.17-0.001c-0.184,0.003-0.226-0.06-0.197-0.24
		c0.058-0.365,0.154-0.613,0.624-0.556c0.45,0.054,0.913,0.019,1.37,0.01c0.482-0.01,0.789-0.31,0.779-0.741
		c-0.01-0.418-0.306-0.698-0.769-0.709c-0.308-0.009-0.615-0.002-0.926-0.002c-0.03-0.146,0.087-0.196,0.155-0.263
		c0.892-0.887,1.977-1.332,3.226-1.339c2.272-0.013,4.545,0.003,6.817-0.011c0.325-0.004,0.371,0.114,0.367,0.395
		c-0.015,1.062-0.011,2.125-0.003,3.187c0.003,0.544,0.17,0.737,0.7,0.872c0.025,0.031,0.063,0.056,0.067,0.097
		c0.078,0.791,0.131,1.583-0.033,2.371c-0.145,0.157-0.341,0.142-0.526,0.142c-2.518,0.004-5.034,0.02-7.551-0.006
		c-1.164-0.011-2.217-0.409-3.146-1.113C200.757,283.035,200.5,282.892,200.514,282.568z"/>
	<path fill="#F17B7D" d="M212.134,284.192c0.005-0.831,0.01-1.662,0.015-2.493c0.562-0.088,0.738-0.284,0.741-0.852
		c0.004-1.062,0.017-2.125-0.009-3.186c-0.007-0.337,0.108-0.44,0.417-0.466c0.916-0.076,1.795-0.297,2.618-0.731
		c1.021-0.54,1.71-1.356,2.117-2.448c0.003,0.056,0.009,0.112,0.009,0.168c0,4.182,0,8.363,0,12.544
		c0,0.094-0.009,0.187-0.012,0.282c-0.157,0.007-0.197-0.123-0.247-0.227c-0.525-1.143-1.517-1.693-2.643-2.052
		c-0.861-0.273-1.746-0.418-2.649-0.438c-0.106-0.002-0.215-0.003-0.312-0.059C212.164,284.222,212.149,284.206,212.134,284.192z"/>
	<path fill="#DEDFE3" d="M200.514,282.568c0.748,0.907,1.755,1.322,2.873,1.542c0.479,0.094,0.96,0.079,1.443,0.08
		c2.434,0.001,4.869,0.001,7.304,0.002l0.035-0.007c0.157,0.726,0.203,1.452-0.024,2.173c-2.716,0.002-5.433,0.039-8.148-0.005
		c-1.936-0.03-3.654-1.503-4.137-3.389c-0.088-0.346-0.025-0.472,0.335-0.416C200.299,282.567,200.408,282.562,200.514,282.568z"/>
	<path fill="#DB7173" d="M212.144,286.358c0.007-0.725,0.015-1.448,0.024-2.173c1.026-0.023,2.03,0.14,3.006,0.439
		c1.276,0.392,2.32,1.088,2.854,2.386c0,0.885,0,1.771,0,2.726c-0.764-2.3-2.544-3.049-4.68-3.298
		C212.947,286.391,212.546,286.386,212.144,286.358z"/>
	<path fill="#E2C8A4" d="M207.79,293.648c-0.14,0.418-0.516,0.677-0.903,0.616c-0.396-0.059-0.718-0.405-0.721-0.845
		c-0.008-1.38,0.004-2.762,0.008-4.143c0.469-0.24,0.964-0.12,1.451-0.09c0.134,0.009,0.202,0.11,0.199,0.254
		C207.804,290.845,207.867,292.246,207.79,293.648z"/>
	<path fill="#FEFEFE" d="M219.51,283.553c0-1.172,0-2.307,0-3.443c0.639,0.181,1.102,0.812,1.168,1.598
		C220.744,282.469,220.299,283.193,219.51,283.553z"/>
	<path fill="#CCB595" d="M207.79,293.648c-0.001-1.326-0.015-2.65,0.001-3.976c0.004-0.327-0.104-0.418-0.414-0.399
		c-0.4,0.021-0.803,0.004-1.204,0.004c-0.052-0.427,0.033-0.859-0.056-1.286c-0.033-0.159,0.071-0.182,0.19-0.182
		c0.444,0,0.888,0.001,1.332-0.001c0.142,0,0.226,0.034,0.225,0.204c-0.007,1.829-0.008,3.66-0.015,5.49
		C207.85,293.552,207.81,293.6,207.79,293.648z"/>
	<path fill="#FCFCFD" d="M209.344,288.825c-0.077-0.953,0.077-1.104,0.99-0.981C210.142,288.302,209.828,288.608,209.344,288.825z"
		/>
</g>
</svg>
