<?xml version="1.0" encoding="utf-8"?>
<!-- Generator: Adobe Illustrator 16.0.0, SVG Export Plug-In . SVG Version: 6.00 Build 0)  -->
<!DOCTYPE svg PUBLIC "-//W3C//DTD SVG 1.1//EN" "http://www.w3.org/Graphics/SVG/1.1/DTD/svg11.dtd">
<svg version="1.1" id="Layer_1" xmlns="http://www.w3.org/2000/svg" xmlns:xlink="http://www.w3.org/1999/xlink" x="0px" y="0px"
	 width="30px" height="30px" viewBox="282.64 405.945 30 30" enable-background="new 282.64 405.945 30 30" xml:space="preserve">
<g>
	<path fill="#444B54" d="M287.277,431.691c-0.023,0.045-0.034,0.056-0.035,0.067c-0.098,1.103-0.132,1.134-1.237,1.134
		c-0.499,0-0.998,0.005-1.498-0.002c-0.487-0.006-0.752-0.24-0.755-0.651c-0.003-0.416,0.253-0.642,0.748-0.649
		c0.377-0.008,0.755-0.01,1.133,0.001c0.199,0.006,0.292-0.046,0.292-0.267c-0.006-2.294-0.006-4.586,0-6.88
		c0-0.223-0.094-0.272-0.292-0.268c-0.391,0.01-0.783,0.01-1.174,0c-0.463-0.012-0.71-0.245-0.707-0.649
		c0.004-0.384,0.251-0.639,0.676-0.646c0.701-0.015,1.403-0.016,2.104,0c0.48,0.011,0.694,0.283,0.695,0.847
		c0.003,1.793-0.003,3.588,0.004,5.381c0.001,0.39-0.156,0.868,0.066,1.142c0.204,0.251,0.672,0.29,1.029,0.411
		c2.431,0.824,4.904,1.492,7.486,1.561c4.034,0.106,7.656-1.154,10.939-3.458c0.916-0.645,1.774-1.361,2.567-2.157
		c0.114-0.113,0.232-0.228,0.325-0.359c0.273-0.383,0.233-0.887-0.082-1.182c-0.312-0.291-0.826-0.298-1.178,0.029
		c-0.573,0.53-1.136,1.074-1.746,1.566c-1.455,1.171-3.038,2.097-4.903,2.438c-2.118,0.387-4.159,0.158-6.089-0.843
		c-0.382-0.196-0.772-0.381-1.147-0.593c-1.458-0.825-1.482-2.647-0.043-3.498c1.033-0.606,2.079-1.191,3.114-1.797
		c0.529-0.31,0.771-0.797,0.658-1.269c-0.181-0.762-0.964-1.066-1.697-0.645c-1.321,0.755-2.636,1.521-3.954,2.284
		c-1.13,0.653-2.261,1.308-3.392,1.961c-0.265,0.154-0.536,0.187-0.799,0.006c-0.223-0.154-0.291-0.381-0.248-0.641
		c0.035-0.215,0.163-0.362,0.349-0.47c2.52-1.454,5.028-2.926,7.561-4.357c1.124-0.634,2.521-0.213,3.173,0.879
		c0.655,1.103,0.343,2.525-0.773,3.231c-1.022,0.648-2.09,1.225-3.139,1.833c-0.105,0.062-0.215,0.116-0.312,0.187
		c-0.397,0.292-0.407,0.834,0.02,1.081c1.519,0.877,3.099,1.547,4.913,1.521c2.054-0.028,3.829-0.772,5.439-1.989
		c0.745-0.562,1.415-1.207,2.1-1.837c1.19-1.097,3.042-0.66,3.532,0.825c0.287,0.871,0.099,1.658-0.533,2.316
		c-2.813,2.923-6.193,4.843-10.139,5.784c-3.287,0.785-6.529,0.504-9.752-0.354C289.458,432.417,288.357,432.079,287.277,431.691z"
		/>
	<path fill="#71C1FE" d="M303.127,417.77c-0.108-0.152-0.271-0.092-0.409-0.094c-0.648-0.006-1.295,0.001-1.942-0.004
		c-0.195-0.002-0.431,0.064-0.555-0.145c-0.122-0.208,0.036-0.388,0.137-0.557c0.996-1.649,1.994-3.296,2.991-4.943
		c0.642-1.061,1.281-2.121,1.92-3.182c0.049-0.081,0.105-0.158,0.148-0.242c0.098-0.194,0.243-0.301,0.456-0.21
		c0.21,0.089,0.166,0.289,0.133,0.458c-0.106,0.568-0.226,1.134-0.34,1.701c-0.311,1.541-0.615,3.083-0.935,4.623
		c-0.062,0.298-0.032,0.423,0.325,0.41c0.753-0.028,1.508-0.008,2.263-0.008c0.164-0.001,0.326-0.006,0.427,0.163
		c0.112,0.188-0.031,0.31-0.12,0.433c-1.724,2.358-3.451,4.715-5.18,7.072c-0.119,0.162-0.242,0.364-0.484,0.252
		c-0.248-0.115-0.158-0.343-0.111-0.533c0.193-0.793,0.394-1.586,0.593-2.379c0.466-0.679,0.959-1.339,1.433-2.012
		c0.121-0.171,0.309-0.341,0.181-0.578c-0.132-0.243-0.383-0.209-0.61-0.209C303.34,417.786,303.232,417.818,303.127,417.77z"/>
	<path fill="#2C9FE4" d="M303.127,417.77c0.239-0.147,0.501-0.11,0.743-0.057c0.323,0.071,0.453,0.385,0.267,0.654
		c-0.521,0.749-1.062,1.485-1.596,2.224c-0.032,0.045-0.068,0.021-0.098-0.007C302.671,419.646,302.9,418.708,303.127,417.77z"/>
</g>
</svg>
