<?xml version="1.0" encoding="utf-8"?>
<!-- Generator: Adobe Illustrator 16.0.0, SVG Export Plug-In . SVG Version: 6.00 Build 0)  -->
<!DOCTYPE svg PUBLIC "-//W3C//DTD SVG 1.1//EN" "http://www.w3.org/Graphics/SVG/1.1/DTD/svg11.dtd">
<svg version="1.1" id="Layer_1" xmlns="http://www.w3.org/2000/svg" xmlns:xlink="http://www.w3.org/1999/xlink" x="0px" y="0px"
	 width="50px" height="50px" viewBox="258.465 258.465 50 50" enable-background="new 258.465 258.465 50 50" xml:space="preserve">
<g>
	<g>
		<path fill="#FF697B" d="M293.621,283.249h-5.606v-12.074c0-4.271-3.493-7.763-7.763-7.763s-7.763,3.492-7.763,7.763v12.074h-5.606
			v6.901h5.606v15.524h15.525V290.15h5.606V283.249z"/>
	</g>
	<g>
		<path fill="#FFFFFF" d="M276.112,297.61l4.14-34.198c-4.27,0-7.763,3.492-7.763,7.763v12.074h-5.606v6.901h5.606v7.244
			c0,0.992,0.819,1.812,1.812,1.812l0,0C275.249,299.207,276.025,298.517,276.112,297.61z"/>
	</g>
	<g>
		<path fill="#C95065" d="M290.732,287.132c-1.51,0-2.718-1.208-2.718-2.719v-13.584c0-4.27-3.019-3.709-3.019,0v34.502h3.019
			V290.15h5.606v-3.019H290.732z"/>
	</g>
	<g>
		<path fill="#444B54" d="M293.621,291.443h-5.606c-0.733,0-1.294-0.561-1.294-1.293c0-0.734,0.561-1.294,1.294-1.294h4.312v-4.313
			h-4.312c-0.733,0-1.294-0.561-1.294-1.294c0-0.732,0.561-1.293,1.294-1.293l0,0h5.606c0.733,0,1.294,0.561,1.294,1.293v6.901
			C294.915,290.883,294.354,291.443,293.621,291.443z"/>
	</g>
	<g>
		<path fill="#C95065" d="M277.665,306.969c-0.733,0-1.295-0.56-1.295-1.294v-6.468c0-0.734,0.562-1.295,1.295-1.295
			c0.732,0,1.293,0.561,1.293,1.295v6.468C278.958,306.409,278.397,306.969,277.665,306.969z"/>
	</g>
	<g>
		<path fill="#C95065" d="M282.84,306.969c-0.733,0-1.295-0.56-1.295-1.294v-6.468c0-0.734,0.562-1.295,1.295-1.295
			s1.293,0.561,1.293,1.295v6.468C284.133,306.409,283.573,306.969,282.84,306.969z"/>
	</g>
	<g>
		<g>
			<path fill="#FF697B" d="M277.665,274.625c-0.733,0-1.295-0.562-1.295-1.295v-3.45c0-0.733,0.562-1.293,1.295-1.293
				c0.732,0,1.293,0.56,1.293,1.293v3.45C278.958,274.063,278.397,274.625,277.665,274.625z"/>
		</g>
	</g>
	<g>
		<path fill="#C95065" d="M282.84,274.625c-0.733,0-1.295-0.562-1.295-1.295v-3.45c0-0.733,0.562-1.293,1.295-1.293
			s1.293,0.56,1.293,1.293v3.45C284.133,274.063,283.573,274.625,282.84,274.625z"/>
	</g>
	<g>
		<path fill="#C95065" d="M269.901,287.562h-3.019v2.589h4.312v-1.294C271.195,288.122,270.635,287.562,269.901,287.562z"/>
	</g>
	<g>
		<path fill="#FFFFFF" d="M271.195,284.543L271.195,284.543c0,0.734-0.561,1.294-1.294,1.294h-3.019v-2.588h3.019
			C270.635,283.249,271.195,283.811,271.195,284.543z"/>
	</g>
	<g>
		<g>
			<path fill="#FFFFFF" d="M272.489,272.037L272.489,272.037c1.812,0,3.364-1.251,3.709-3.02c0.518-2.76,1.983-4.83,4.916-5.434
				c-0.561-0.13-0.259-0.172-0.862-0.172C275.508,263.412,272.489,267.293,272.489,272.037z"/>
		</g>
	</g>
	<g>
		<path fill="#444B54" d="M272.489,302.655c-0.733,0-1.294-0.56-1.294-1.292V290.15c0-0.734,0.561-1.294,1.294-1.294
			s1.293,0.56,1.293,1.294v11.213C273.782,302.096,273.223,302.655,272.489,302.655z"/>
	</g>
	<g>
		<path fill="#444B54" d="M292.759,306.969c-3.32,0-6.038-2.717-6.038-6.037V290.15c0-0.734,0.561-1.294,1.294-1.294
			s1.294,0.56,1.294,1.294v10.781c0,1.898,1.552,3.45,3.45,3.45c0.732,0,1.293,0.561,1.293,1.293
			C294.052,306.409,293.491,306.969,292.759,306.969z"/>
	</g>
	<g>
		<path fill="#444B54" d="M294.483,306.969h-28.463c-0.733,0-1.294-0.56-1.294-1.294c0-0.732,0.561-1.293,1.294-1.293h28.463
			c0.733,0,1.294,0.561,1.294,1.293C295.777,306.409,295.217,306.969,294.483,306.969z"/>
	</g>
	<g>
		<path fill="#444B54" d="M300.953,306.969c-0.087,0-0.173,0-0.259-0.042c-0.086,0-0.173-0.044-0.26-0.086
			c-0.085-0.045-0.128-0.088-0.215-0.13c-0.087-0.044-0.13-0.086-0.173-0.173c-0.042-0.044-0.129-0.129-0.172-0.173
			c-0.043-0.087-0.087-0.129-0.13-0.215c-0.044-0.085-0.044-0.174-0.086-0.26c0-0.086-0.043-0.172-0.043-0.258
			c0-0.346,0.129-0.69,0.389-0.907c0.042-0.042,0.128-0.127,0.172-0.171c0.087-0.045,0.13-0.087,0.215-0.131
			c0.086-0.042,0.174-0.042,0.26-0.086c0.172-0.041,0.345-0.041,0.517,0c0.086,0,0.174,0.044,0.26,0.086
			c0.085,0.044,0.172,0.086,0.216,0.131c0.086,0.044,0.129,0.086,0.172,0.171c0.26,0.261,0.388,0.562,0.388,0.907
			c0,0.344-0.128,0.69-0.388,0.905c-0.043,0.042-0.129,0.129-0.172,0.173c-0.087,0.042-0.131,0.085-0.216,0.13
			c-0.086,0.042-0.174,0.042-0.26,0.086C301.125,306.969,301.04,306.969,300.953,306.969z"/>
	</g>
	<g>
		<path fill="#444B54" d="M272.489,275.056c-0.733,0-1.294-0.562-1.294-1.293v-2.588c0-5.004,4.054-9.058,9.057-9.058
			c5.002,0,9.057,4.054,9.057,9.058v2.155c0,0.733-0.561,1.295-1.294,1.295s-1.294-0.562-1.294-1.295v-2.155
			c0-3.58-2.89-6.47-6.469-6.47c-3.58,0-6.47,2.89-6.47,6.47v2.588C273.782,274.494,273.223,275.056,272.489,275.056z"/>
	</g>
	<g>
		<path fill="#444B54" d="M288.015,284.543c-0.733,0-1.294-0.561-1.294-1.294v-5.175c0-0.733,0.561-1.293,1.294-1.293
			s1.294,0.56,1.294,1.293v5.175C289.309,283.982,288.748,284.543,288.015,284.543z"/>
	</g>
	<g>
		<path fill="#444B54" d="M272.489,284.543c-0.733,0-1.294-0.561-1.294-1.294v-5.175c0-0.733,0.561-1.293,1.294-1.293
			s1.293,0.56,1.293,1.293v5.175C273.782,283.982,273.223,284.543,272.489,284.543z"/>
	</g>
	<g>
		<path fill="#444B54" d="M290.171,275.056h-19.838c-0.733,0-1.294-0.562-1.294-1.293c0-0.733,0.561-1.295,1.294-1.295h19.838
			c0.733,0,1.295,0.562,1.295,1.295C291.466,274.494,290.904,275.056,290.171,275.056z"/>
	</g>
	<g>
		<circle fill="#FF697B" cx="280.252" cy="286.7" r="5.391"/>
	</g>
	<g>
		<path fill="#FFFFFF" d="M275.379,285.708c-0.173,0-0.388-0.042-0.562-0.131c-0.646-0.3-0.947-1.078-0.646-1.724
			c0.733-1.64,2.113-2.847,3.753-3.451c1.638-0.603,3.493-0.517,5.131,0.217c0.646,0.302,0.949,1.078,0.646,1.725
			c-0.302,0.646-1.078,0.905-1.725,0.646c-0.991-0.474-2.112-0.517-3.147-0.129s-1.854,1.121-2.329,2.114
			C276.327,285.449,275.854,285.708,275.379,285.708z"/>
	</g>
	<g>
		<path fill="#444B54" d="M280.252,293.383c-0.949,0-1.94-0.213-2.804-0.646c-1.638-0.732-2.846-2.112-3.449-3.751
			c-0.259-0.69,0.086-1.425,0.776-1.641c0.689-0.258,1.423,0.086,1.638,0.776c0.389,1.036,1.122,1.854,2.114,2.328
			c0.991,0.477,2.113,0.519,3.148,0.131c1.034-0.389,1.854-1.121,2.328-2.113c0.474-0.991,0.518-2.114,0.129-3.148
			c-0.388-1.034-1.121-1.854-2.112-2.329c-0.992-0.474-2.113-0.517-3.148-0.129c-0.69,0.259-1.424-0.086-1.639-0.776
			c-0.259-0.689,0.086-1.423,0.776-1.638c1.682-0.604,3.492-0.519,5.132,0.215c1.639,0.733,2.846,2.113,3.45,3.751
			c0.604,1.683,0.518,3.495-0.216,5.134c-0.733,1.638-2.112,2.847-3.753,3.448C281.805,293.256,281.028,293.383,280.252,293.383z"/>
	</g>
	<g>
		<path fill="#444B54" d="M280.252,287.994c-0.086,0-0.174,0-0.259-0.045c-0.086,0-0.173-0.041-0.26-0.085
			c-0.085-0.044-0.128-0.086-0.215-0.13c-0.086-0.043-0.129-0.087-0.172-0.173c-0.044-0.041-0.13-0.13-0.173-0.172
			c-0.043-0.086-0.086-0.13-0.129-0.216c-0.044-0.086-0.044-0.172-0.087-0.259c0-0.085-0.043-0.171-0.043-0.26
			c0-0.086,0-0.171,0.043-0.258c0-0.086,0.043-0.172,0.087-0.259c0.043-0.085,0.086-0.129,0.129-0.215
			c0.043-0.087,0.086-0.131,0.173-0.216c0.086-0.087,0.129-0.131,0.172-0.173c0.087-0.044,0.13-0.086,0.215-0.129
			c0.087-0.043,0.174-0.043,0.26-0.087c0.173-0.042,0.345-0.042,0.517,0c0.087,0,0.174,0.044,0.26,0.087s0.173,0.085,0.216,0.129
			c0.086,0.042,0.129,0.086,0.172,0.173c0.043,0.044,0.13,0.129,0.173,0.216c0.043,0.086,0.087,0.13,0.13,0.215
			c0.042,0.087,0.042,0.173,0.085,0.259c0,0.087,0.043,0.172,0.043,0.258c0,0.089,0,0.175-0.043,0.26
			c0,0.087-0.043,0.173-0.085,0.259c-0.043,0.086-0.087,0.172-0.13,0.216c-0.043,0.087-0.086,0.131-0.173,0.172
			C280.942,287.864,280.597,287.994,280.252,287.994z"/>
	</g>
	<g>
		<path fill="#444B54" d="M266.883,291.443c-0.733,0-1.294-0.561-1.294-1.293v-6.901c0-0.732,0.561-1.293,1.294-1.293
			s1.294,0.561,1.294,1.293v6.901C268.177,290.883,267.616,291.443,266.883,291.443z"/>
	</g>
	<g>
		<path fill="#444B54" d="M272.489,291.443h-5.606c-0.733,0-1.294-0.561-1.294-1.293c0-0.734,0.561-1.294,1.294-1.294h5.606
			c0.733,0,1.293,0.56,1.293,1.294C273.782,290.883,273.223,291.443,272.489,291.443z"/>
	</g>
	<g>
		<path fill="#444B54" d="M272.489,284.543h-5.606c-0.733,0-1.294-0.561-1.294-1.294c0-0.732,0.561-1.293,1.294-1.293h5.606
			c0.733,0,1.293,0.561,1.293,1.293C273.782,283.982,273.223,284.543,272.489,284.543z"/>
	</g>
	<g>
		<path fill="#444B54" d="M280.252,264.705c-0.733,0-1.294-0.561-1.294-1.293v-2.157c0-0.733,0.561-1.294,1.294-1.294
			s1.293,0.561,1.293,1.294v2.157C281.545,264.145,280.985,264.705,280.252,264.705z"/>
	</g>
</g>
</svg>
