<?xml version="1.0" encoding="utf-8"?>
<!-- Generator: Adobe Illustrator 16.0.0, SVG Export Plug-In . SVG Version: 6.00 Build 0)  -->
<!DOCTYPE svg PUBLIC "-//W3C//DTD SVG 1.1//EN" "http://www.w3.org/Graphics/SVG/1.1/DTD/svg11.dtd">
<svg version="1.1" id="Layer_1" xmlns="http://www.w3.org/2000/svg" xmlns:xlink="http://www.w3.org/1999/xlink" x="0px" y="0px"
	 width="30px" height="30px" viewBox="0 0 30 30" enable-background="new 0 0 30 30" xml:space="preserve">
<g>
	<path fill-rule="evenodd" clip-rule="evenodd" fill="#3F4A54" d="M6.913,22.212c-1.025-0.007-2.051-0.014-3.076-0.02
		c-0.817-0.004-1.061-0.33-0.807-1.092c0.675-2.03,1.352-4.062,2.029-6.092c0.188-0.56,0.321-0.656,0.907-0.656
		c5.655-0.001,11.312-0.001,16.966,0c0.697,0,0.945,0.282,0.834,0.945c-0.647,3.882-1.294,7.764-1.943,11.645
		c-0.077,0.461-0.08,0.461,0.408,0.461c0.283,0,0.566-0.007,0.851,0.002c0.436,0.014,0.723,0.278,0.725,0.656
		c0.002,0.383-0.272,0.643-0.724,0.644c-1.2,0.003-2.402-0.011-3.604-0.012c-3.482-0.002-6.965,0-10.446-0.002
		c-1.182,0-1.791-0.525-1.979-1.69c-0.16-0.997-0.327-1.993-0.49-2.991C6.471,23.442,6.56,23.27,7.07,23.016
		c0.383-0.111,0.682,0.045,0.84,0.453c0.099,0.254,0.12,0.526,0.158,0.793c0.117,0.814,0.263,1.624,0.402,2.436
		c0.079,0.467,0.193,0.567,0.675,0.569c2.077,0.009,4.154,0.006,6.231,0.002c0.432,0,0.47-0.044,0.473-0.502
		c0.007-0.985-0.011-1.971,0.008-2.955c0.01-0.565,0.194-0.77,0.743-0.882c0.593,0.119,0.779,0.328,0.786,0.934
		c0.012,0.958,0,1.917,0.005,2.874c0.002,0.502,0.034,0.533,0.522,0.536c0.566,0.004,1.134,0.004,1.7,0
		c0.624-0.004,0.723-0.081,0.825-0.693c0.365-2.156,0.719-4.313,1.082-6.47c0.213-1.264,0.418-2.53,0.632-3.794
		c0.09-0.529,0.074-0.541-0.475-0.545c-0.485-0.003-0.971,0.008-1.458-0.002c-1.265,0.013-2.531,0.023-3.796,0.001
		c-3.144,0.007-6.287,0.001-9.431,0.003c-0.689,0.001-0.689,0.001-0.909,0.656c-0.429,1.279-0.853,2.561-1.279,3.841
		c-0.14,0.417-0.122,0.442,0.304,0.442c2.779,0.001,5.559-0.003,8.339,0.008c0.357,0.001,0.536-0.136,0.641-0.47
		c0.246-0.785,0.505-1.567,0.781-2.342c0.189-0.526,0.42-0.67,0.936-0.628c0.552,0.293,0.685,0.561,0.504,1.151
		c-0.321,1.059-0.688,2.104-1.018,3.16c-0.152,0.485-0.496,0.731-0.998,0.733c-2.335,0.016-4.67,0.008-7.004,0.005
		C7.153,22.329,7.019,22.312,6.913,22.212z"/>
	<path fill-rule="evenodd" clip-rule="evenodd" fill="#FB697D" d="M6.913,22.212c2.398-0.005,4.798-0.011,7.197-0.015
		c0.77-0.001,0.891-0.088,1.126-0.817c0.323-0.999,0.65-1.997,0.967-2.997c0.165-0.524,0.085-0.716-0.382-1.002
		c0.063-0.617,0.258-1.19,0.569-1.725c1.29,0.001,2.58,0.002,3.871,0.003c0.006,0.194-0.166,0.227-0.284,0.299
		c-1.876,1.108-2.936,2.757-3.22,4.906c-0.073,0.547-0.014,1.103-0.028,1.653c-0.006,0.172,0.027,0.354-0.107,0.498
		c-0.55,0.164-0.649,0.29-0.649,0.856c-0.002,1.053-0.009,2.104,0.005,3.155c0.004,0.268-0.052,0.374-0.351,0.371
		c-2.211-0.012-4.422-0.01-6.634-0.003c-0.375,0.001-0.571-0.152-0.63-0.526c-0.158-1.036-0.33-2.072-0.497-3.107
		c-0.081-0.504-0.265-0.676-0.796-0.746C7.017,22.748,6.965,22.479,6.913,22.212z"/>
	<path fill-rule="evenodd" clip-rule="evenodd" fill="#3F4A54" d="M19.453,2.029c-0.167,1.022-0.333,2.06-0.507,3.096
		c-0.42,2.526-0.845,5.05-1.265,7.575c-0.092,0.557-0.362,0.825-0.791,0.77c-0.409-0.053-0.604-0.4-0.51-0.973
		c0.438-2.686,0.887-5.371,1.331-8.056c0.123-0.744,0.246-1.489,0.37-2.233c0.023-0.132,0.042-0.267,0.077-0.396
		c0.098-0.365,0.404-0.563,0.762-0.505C19.241,1.359,19.462,1.652,19.453,2.029z"/>
	<path fill-rule="evenodd" clip-rule="evenodd" fill="#3F4A54" d="M11.455,12.339c-0.375,0.032-0.788-0.048-1.201-0.105
		c-0.964-0.133-1.747,0.191-2.382,0.908c-0.128,0.144-0.262,0.278-0.457,0.315c-0.293,0.057-0.539-0.028-0.697-0.29
		c-0.166-0.274-0.133-0.542,0.069-0.786c0.94-1.136,2.146-1.678,3.609-1.462c1.162,0.171,2.246,0.084,3.285-0.499
		c0.507-0.284,1.064-0.456,1.644-0.537c0.406-0.058,0.714,0.146,0.794,0.512c0.075,0.344-0.146,0.702-0.542,0.773
		c-0.635,0.114-1.2,0.384-1.769,0.667C13.084,12.193,12.311,12.36,11.455,12.339z"/>
	<path fill-rule="evenodd" clip-rule="evenodd" fill="#3F4A54" d="M11.762,1.978c0.006-0.376,0.243-0.644,0.585-0.679
		c0.364-0.038,0.646,0.157,0.719,0.552c0.165,0.899,0.313,1.802,0.462,2.704c0.229,1.394,0.458,2.788,0.677,4.182
		c0.073,0.465-0.148,0.793-0.533,0.841c-0.392,0.047-0.695-0.207-0.771-0.654c-0.375-2.256-0.749-4.511-1.121-6.768
		C11.769,2.089,11.766,2.021,11.762,1.978z"/>
	<path fill-rule="evenodd" clip-rule="evenodd" fill="#3F4A54" d="M25.994,21.514c-0.023,0.348-0.201,0.581-0.549,0.654
		c-0.319,0.065-0.586-0.067-0.689-0.363c-0.395-1.13-0.777-2.266-1.135-3.409c-0.104-0.336,0.065-0.612,0.402-0.74
		c0.341-0.13,0.666-0.034,0.783,0.293c0.418,1.151,0.789,2.32,1.175,3.48C25.991,21.454,25.991,21.482,25.994,21.514z"/>
	<path fill-rule="evenodd" clip-rule="evenodd" fill="#3F4A54" d="M19.265,10.613c0.108-0.008,0.252,0.054,0.392,0.145
		c0.689,0.444,1.267,1.004,1.732,1.677c0.251,0.363,0.209,0.753-0.086,0.975c-0.286,0.215-0.688,0.134-0.95-0.226
		c-0.4-0.553-0.875-1.019-1.456-1.382c-0.261-0.162-0.382-0.416-0.288-0.732C18.695,10.778,18.897,10.625,19.265,10.613z"/>
	<path fill-rule="evenodd" clip-rule="evenodd" fill="#404B55" d="M3.998,12.788c0.022-0.344,0.339-0.629,0.681-0.614
		c0.368,0.017,0.643,0.333,0.613,0.71c-0.027,0.356-0.327,0.61-0.69,0.586C4.25,13.445,3.974,13.135,3.998,12.788z"/>
	<path fill-rule="evenodd" clip-rule="evenodd" fill="#404B55" d="M27.067,28.057c0.004,0.354-0.276,0.64-0.635,0.647
		c-0.365,0.007-0.648-0.258-0.662-0.617c-0.012-0.369,0.287-0.683,0.652-0.68C26.764,27.412,27.064,27.711,27.067,28.057z"/>
	<path fill-rule="evenodd" clip-rule="evenodd" fill="#E24F66" d="M16.622,23.016c0.035-0.951-0.074-1.907,0.146-2.854
		c0.447-1.919,1.519-3.357,3.221-4.333c0.094-0.054,0.182-0.113,0.272-0.168c0.606-0.005,1.213-0.004,1.818-0.018
		c0.227-0.004,0.311,0.046,0.268,0.3c-0.614,3.631-1.225,7.261-1.824,10.895c-0.064,0.394-0.245,0.565-0.64,0.56
		c-0.755-0.01-1.51-0.017-2.264,0.003c-0.297,0.008-0.356-0.103-0.353-0.372c0.013-1.052,0.006-2.102,0.005-3.154
		C17.271,23.306,17.18,23.19,16.622,23.016z"/>
</g>
</svg>
