<?xml version="1.0" encoding="utf-8"?>
<!-- Generator: Adobe Illustrator 16.0.0, SVG Export Plug-In . SVG Version: 6.00 Build 0)  -->
<!DOCTYPE svg PUBLIC "-//W3C//DTD SVG 1.1//EN" "http://www.w3.org/Graphics/SVG/1.1/DTD/svg11.dtd">
<svg version="1.1" id="ﾃ神xA1_ﾃ神xBB_ﾃ神xBE_ﾃ神xB9__x5F_1"
	 xmlns="http://www.w3.org/2000/svg" xmlns:xlink="http://www.w3.org/1999/xlink" x="0px" y="0px" width="30px" height="30px"
	 viewBox="268.465 268.465 30 30" enable-background="new 268.465 268.465 30 30" xml:space="preserve">
<g>
	<rect x="270.861" y="281.173" fill="#F7E6AC" width="6.875" height="11.458"/>
	<rect x="275.444" y="281.173" fill="#E5CC7C" width="2.292" height="11.458"/>
	<rect x="270.861" y="281.173" fill="#FFFFFF" width="1.604" height="11.458"/>
	<rect x="289.193" y="285.756" fill="#EAD69D" width="6.875" height="6.875"/>
	<rect x="289.193" y="285.756" fill="#CEB672" width="2.292" height="6.875"/>
	<rect x="277.736" y="274.299" fill="#F7E6AC" width="11.457" height="18.332"/>
	<path fill="#454B54" d="M283.328,287.108c-0.32-0.046-0.55-0.366-0.55-0.688v-1.351h-0.436c-0.344,0-0.642-0.23-0.71-0.551
		c-0.069-0.435,0.251-0.824,0.688-0.824h0.023c0.228,0,0.436-0.184,0.436-0.436l0,0c0-0.344,0.229-0.642,0.55-0.71
		c0.435-0.092,0.826,0.251,0.826,0.666v3.206C284.153,286.879,283.762,287.2,283.328,287.108z"/>
	<rect x="277.736" y="274.299" fill="#FFFFFF" width="2.291" height="18.332"/>
	<rect x="286.902" y="274.299" fill="#EAD69D" width="2.291" height="18.332"/>
	<polyline fill="none" stroke="#454B54" stroke-linecap="round" stroke-linejoin="round" stroke-miterlimit="10" points="
		289.193,292.631 289.193,274.299 277.736,274.299 277.736,288.048 	"/>
	
		<line fill="none" stroke="#454B54" stroke-linecap="round" stroke-linejoin="round" stroke-miterlimit="10" x1="296.068" y1="285.756" x2="291.485" y2="285.756"/>
	<polyline fill="none" stroke="#454B54" stroke-linecap="round" stroke-linejoin="round" stroke-miterlimit="10" points="
		275.444,281.173 270.861,281.173 270.861,292.631 	"/>
	
		<line fill="none" stroke="#454B54" stroke-linecap="round" stroke-linejoin="round" stroke-miterlimit="10" x1="296.068" y1="292.631" x2="296.068" y2="285.756"/>
	
		<line fill="none" stroke="#454B54" stroke-linecap="round" stroke-linejoin="round" stroke-miterlimit="10" x1="269.716" y1="292.631" x2="297.214" y2="292.631"/>
</g>
</svg>
