<?xml version="1.0" encoding="utf-8"?>
<!-- Generator: Adobe Illustrator 16.0.0, SVG Export Plug-In . SVG Version: 6.00 Build 0)  -->
<!DOCTYPE svg PUBLIC "-//W3C//DTD SVG 1.1//EN" "http://www.w3.org/Graphics/SVG/1.1/DTD/svg11.dtd">
<svg version="1.1" id="Layer_1" xmlns="http://www.w3.org/2000/svg" xmlns:xlink="http://www.w3.org/1999/xlink" x="0px" y="0px"
	 width="30px" height="30px" viewBox="268.465 268.465 30 30" enable-background="new 268.465 268.465 30 30" xml:space="preserve">
<g>
	<g>
		<path fill="#FFFFFF" d="M295.388,295.378L295.388,295.378c-0.61,0.61-1.619,0.61-2.256,0l-3.37-3.37
			c-0.61-0.61-0.61-1.618,0-2.255l0,0c0.61-0.61,1.619-0.61,2.256,0l3.37,3.37C295.997,293.76,295.997,294.768,295.388,295.378z"/>
	</g>
	<g>
		<ellipse fill="#FFFFFF" cx="280.365" cy="280.37" rx="9.286" ry="9.286"/>
	</g>
	<g>
		<ellipse fill="#FFFFFF" cx="280.365" cy="280.37" rx="9.286" ry="9.286"/>
	</g>
	<g>
		<path fill="#71C2FF" d="M280.369,288.851c-0.451,0-0.796-0.345-0.796-0.796s0.345-0.796,0.796-0.796
			c1.831,0,3.582-0.717,4.882-2.017c1.698-1.698,2.389-4.112,1.831-6.474c-0.105-0.424,0.159-0.849,0.584-0.955
			c0.425-0.105,0.849,0.159,0.955,0.584c0.69,2.893-0.133,5.89-2.229,7.986C284.773,287.975,282.651,288.851,280.369,288.851z"/>
	</g>
	<g>
		<path fill="#71C2FF" d="M285.861,275.77c-0.212,0-0.397-0.079-0.557-0.238l-0.054-0.026c-0.318-0.319-0.318-0.823,0-1.115
			c0.319-0.318,0.823-0.318,1.115,0l0.053,0.054c0.318,0.318,0.318,0.822,0,1.114C286.26,275.691,286.074,275.77,285.861,275.77z"/>
	</g>
	<g>
		<path fill="#444B54" d="M280.369,290.442c-2.573,0-5.174-0.981-7.138-2.945c-3.927-3.926-3.927-10.321,0-14.248
			c3.928-3.927,10.322-3.927,14.25,0l0,0c3.953,3.927,3.953,10.321,0.026,14.248C285.543,289.461,282.969,290.442,280.369,290.442z
			 M280.369,271.896c-2.176,0-4.352,0.823-5.996,2.494c-3.317,3.317-3.317,8.703,0,12.02c3.316,3.263,8.703,3.263,12.02-0.027
			c3.316-3.316,3.316-8.703,0-12.019C284.721,272.719,282.544,271.896,280.369,271.896z"/>
	</g>
	<path fill="#444B54" d="M295.944,292.565l-3.369-3.37c-0.451-0.451-1.062-0.689-1.698-0.689c-0.372,0-0.717,0.079-1.035,0.238
		l-0.663-0.663c-0.318-0.318-0.823-0.318-1.114,0c-0.318,0.318-0.318,0.822,0,1.114l0.663,0.664
		c-0.159,0.318-0.239,0.663-0.239,1.034c0,0.637,0.239,1.247,0.69,1.698l3.396,3.344c0.478,0.478,1.087,0.689,1.697,0.689
		s1.221-0.239,1.698-0.689l0,0C296.873,295.007,296.873,293.494,295.944,292.565z M294.83,294.82c-0.318,0.318-0.822,0.318-1.114,0
		l-3.396-3.369c-0.159-0.159-0.239-0.345-0.239-0.558c0-0.212,0.08-0.424,0.239-0.557c0.159-0.159,0.345-0.239,0.558-0.239
		c0.212,0,0.424,0.08,0.557,0.239l3.37,3.369C295.148,293.998,295.148,294.502,294.83,294.82z"/>
</g>
</svg>
