<?xml version="1.0" encoding="utf-8"?>
<!-- Generator: Adobe Illustrator 16.0.0, SVG Export Plug-In . SVG Version: 6.00 Build 0)  -->
<!DOCTYPE svg PUBLIC "-//W3C//DTD SVG 1.1//EN" "http://www.w3.org/Graphics/SVG/1.1/DTD/svg11.dtd">
<svg version="1.1" id="ﾃ神xA1_ﾃ神xBB_ﾃ神xBE_ﾃ神xB9__x5F_1"
	 xmlns="http://www.w3.org/2000/svg" xmlns:xlink="http://www.w3.org/1999/xlink" x="0px" y="0px" width="30px" height="30px"
	 viewBox="268.465 268.465 30 30" enable-background="new 268.465 268.465 30 30" xml:space="preserve">
<g>
	<g>
		<g>
			<g>
				<circle fill="#EDECF2" cx="291.07" cy="274.344" r="4.549"/>
			</g>
		</g>
		<g>
			<g>
				<circle fill="#EDE57A" cx="291.07" cy="292.588" r="4.549"/>
			</g>
		</g>
		<g>
			<g>
				<g>
					<circle fill="#F8F4B2" cx="275.86" cy="283.465" r="4.548"/>
				</g>
			</g>
		</g>
	</g>
	<g>
		<g>
			<path fill="#464C55" d="M296.363,292.588c0,2.906-2.385,5.293-5.293,5.293s-5.295-2.387-5.295-5.293
				c0-2.908,2.387-5.295,5.295-5.295S296.363,289.652,296.363,292.588z M287.242,292.588c0,2.111,1.715,3.801,3.803,3.801
				c2.113,0,3.803-1.715,3.803-3.801c0-2.115-1.715-3.805-3.803-3.805C288.957,288.758,287.242,290.473,287.242,292.588z"/>
		</g>
	</g>
	<g>
		<g>
			<path fill="#464C55" d="M296.363,274.344c0,2.932-2.385,5.293-5.293,5.293s-5.295-2.386-5.295-5.293s2.361-5.294,5.295-5.294
				S296.363,271.436,296.363,274.344z M287.242,274.344c0,2.112,1.715,3.802,3.803,3.802c2.113,0,3.803-1.715,3.803-3.802
				c0-2.113-1.715-3.803-3.803-3.803S287.242,272.255,287.242,274.344z"/>
		</g>
	</g>
	<g>
		<g>
			<path fill="#464C55" d="M281.178,283.465c0,2.931-2.386,5.292-5.293,5.292c-2.909,0-5.319-2.361-5.319-5.292
				c0-2.934,2.386-5.294,5.293-5.294C278.768,278.171,281.178,280.532,281.178,283.465z M272.057,283.465
				c0,2.113,1.714,3.802,3.803,3.802c2.112,0,3.802-1.715,3.802-3.802c0-2.088-1.714-3.803-3.803-3.803
				C273.771,279.662,272.057,281.352,272.057,283.465z"/>
		</g>
	</g>
	<g>
		<g>
			<path fill="#464C55" d="M287.889,276.705c0,0.248-0.123,0.497-0.373,0.646l-4.747,2.858c-0.348,0.223-0.82,0.099-1.019-0.249
				c-0.224-0.348-0.099-0.821,0.249-1.02l4.772-2.858c0.348-0.224,0.818-0.1,1.018,0.249
				C287.863,276.431,287.889,276.556,287.889,276.705z"/>
		</g>
	</g>
	<g>
		<g>
			<path fill="#464C55" d="M285.354,288.586c0,0.123-0.023,0.273-0.1,0.396c-0.223,0.35-0.67,0.447-1.02,0.248l-4.746-2.932
				c-0.348-0.225-0.472-0.672-0.248-1.02c0.223-0.348,0.67-0.447,1.019-0.248l4.722,2.932
				C285.205,288.113,285.354,288.336,285.354,288.586z"/>
		</g>
	</g>
</g>
</svg>
