<?xml version="1.0" encoding="utf-8"?>
<!-- Generator: Adobe Illustrator 16.0.0, SVG Export Plug-In . SVG Version: 6.00 Build 0)  -->
<!DOCTYPE svg PUBLIC "-//W3C//DTD SVG 1.1//EN" "http://www.w3.org/Graphics/SVG/1.1/DTD/svg11.dtd">
<svg version="1.1" id="Layer_1" xmlns="http://www.w3.org/2000/svg" xmlns:xlink="http://www.w3.org/1999/xlink" x="0px" y="0px"
	 width="30px" height="30px" viewBox="268.465 268.465 30 30" enable-background="new 268.465 268.465 30 30" xml:space="preserve">
<g>
	<g>
		<g>
			<path fill="#FFFFFF" d="M281.083,291.298l-5.122,3.569c-1.089,0.763-2.506-0.272-2.125-1.553l1.798-5.967
				c0.164-0.545-0.027-1.172-0.49-1.525l-4.985-3.788c-1.063-0.79-0.518-2.48,0.817-2.507l6.239-0.136
				c0.573,0,1.09-0.381,1.281-0.926l2.07-5.885c0.437-1.253,2.208-1.253,2.643,0l2.043,5.885c0.19,0.545,0.708,0.926,1.28,0.926
				l6.239,0.136c1.336,0.027,1.881,1.717,0.817,2.507l-4.985,3.788c-0.463,0.354-0.654,0.953-0.491,1.525l1.799,5.967
				c0.381,1.253-1.035,2.315-2.125,1.553l-5.123-3.569C282.2,290.943,281.546,290.943,281.083,291.298z"/>
		</g>
		<g>
			<path fill="#F2B630" d="M284.625,291.652l-5.122,3.57c-1.09,0.762-2.507-0.273-2.125-1.555l1.798-5.967
				c0.164-0.544-0.028-1.171-0.491-1.525l-4.986-3.76c-1.062-0.79-0.518-2.479,0.817-2.506l6.24-0.136
				c0.572,0,1.09-0.382,1.281-0.927l2.043-5.885c0.436-1.253,2.208-1.253,2.644,0l2.07,5.885c0.19,0.545,0.709,0.927,1.28,0.927
				l6.239,0.136c1.336,0.027,1.881,1.716,0.817,2.506l-4.959,3.76c-0.463,0.354-0.653,0.954-0.49,1.525l1.798,5.967
				c0.382,1.254-1.035,2.316-2.124,1.555l-5.15-3.57C285.742,291.325,285.089,291.325,284.625,291.652z"/>
		</g>
		<path fill="#444B54" d="M294.842,280.345c-0.299-0.899-1.089-1.499-2.07-1.526l-6.239-0.136c-0.244,0-0.463-0.164-0.545-0.381
			l-2.043-5.885c-0.327-0.899-1.145-1.499-2.098-1.499l0,0c-0.954,0-1.771,0.572-2.098,1.499l-2.016,5.885
			c-0.082,0.218-0.3,0.381-0.544,0.381l-6.212,0.136c-0.954,0.027-1.771,0.627-2.07,1.526c-0.3,0.899,0,1.88,0.762,2.452l4.959,3.76
			c0.19,0.136,0.272,0.409,0.19,0.626l-1.798,5.968c-0.136,0.437,0.109,0.898,0.545,1.008c0.436,0.137,0.899-0.109,1.009-0.545
			l1.853-5.967c0.272-0.872-0.054-1.854-0.791-2.398l-4.986-3.76c-0.3-0.218-0.218-0.544-0.191-0.626
			c0.027-0.082,0.164-0.382,0.545-0.409l6.24-0.136c0.926-0.027,1.744-0.626,2.043-1.499l2.043-5.885
			c0.136-0.354,0.436-0.382,0.545-0.382l0,0c0.109,0,0.409,0.027,0.546,0.382l2.042,5.912c0.301,0.872,1.118,1.471,2.045,1.499
			l6.238,0.136c0.382,0,0.518,0.3,0.546,0.409c0.026,0.108,0.108,0.408-0.191,0.626l-4.986,3.732
			c-0.735,0.545-1.035,1.526-0.789,2.398l1.798,5.967c0.109,0.354-0.137,0.572-0.218,0.627c-0.082,0.055-0.355,0.218-0.682,0
			l-5.123-3.569c-0.763-0.518-1.771-0.518-2.534,0l-5.503,3.813c-0.028,0-0.028,0.028-0.055,0.028
			c-0.027,0.026-0.054,0.026-0.082,0.054s-0.027,0.056-0.054,0.056c-0.028,0.026-0.028,0.026-0.055,0.054
			c-0.027,0.027-0.027,0.055-0.027,0.082s-0.027,0.054-0.027,0.082c0,0.026-0.027,0.055-0.027,0.081
			c0,0.027-0.027,0.055-0.027,0.082c0,0.026,0,0.081,0,0.109c0,0.026,0,0.026,0,0.054l0,0c0,0.056,0,0.082,0,0.137v0.027
			c0,0.026,0.027,0.054,0.027,0.081s0,0.055,0.027,0.082c0,0,0,0.027,0.027,0.027c0.027,0.027,0.027,0.082,0.054,0.108l0,0
			c0,0.028,0.028,0.028,0.028,0.055c0.027,0.028,0.027,0.055,0.054,0.082s0.027,0.027,0.054,0.055
			c0.027,0.026,0.027,0.026,0.054,0.054c0.028,0.027,0.055,0.027,0.082,0.027c0.027,0,0.055,0.027,0.082,0.027
			c0.027,0,0.054,0.027,0.082,0.027s0.054,0.027,0.082,0.027c0.028,0,0.055,0,0.082,0s0.054,0,0.054,0h17.656
			c0.463,0,0.817-0.354,0.817-0.817s-0.354-0.817-0.817-0.817h-2.507c0.109-0.381,0.109-0.817-0.027-1.226l-1.798-5.967
			c-0.081-0.218,0-0.491,0.19-0.627l4.959-3.76C294.842,282.198,295.143,281.245,294.842,280.345z M278.195,294.377l3.351-2.344
			c0.191-0.136,0.463-0.136,0.654,0l3.351,2.344H278.195z"/>
	</g>
	<g>
		<circle fill="#444B54" cx="297.322" cy="295.194" r="0.817"/>
	</g>
</g>
</svg>
