<?xml version="1.0" encoding="utf-8"?>
<!-- Generator: Adobe Illustrator 16.0.0, SVG Export Plug-In . SVG Version: 6.00 Build 0)  -->
<!DOCTYPE svg PUBLIC "-//W3C//DTD SVG 1.1//EN" "http://www.w3.org/Graphics/SVG/1.1/DTD/svg11.dtd">
<svg version="1.1" id="Layer_1" xmlns="http://www.w3.org/2000/svg" xmlns:xlink="http://www.w3.org/1999/xlink" x="0px" y="0px"
	 width="30px" height="30px" viewBox="268.465 268.465 30 30" enable-background="new 268.465 268.465 30 30" xml:space="preserve">
<g>
	<g>
		<polygon fill="#FFFFFF" points="294.26,281.306 272.67,281.306 270.511,285.624 270.511,296.419 296.418,296.419 296.418,285.624 
					"/>
	</g>
	<g>
		<polygon fill="#D3D8DD" points="274.829,285.624 272.67,281.306 280.874,281.306 283.033,285.624 		"/>
	</g>
	<g>
		<polygon fill="#D3D8DD" points="291.236,285.624 291.236,281.306 294.26,281.306 296.418,285.624 		"/>
	</g>
	<g>
		<path fill="#444B54" d="M270.511,286.271c-0.108,0-0.195-0.021-0.281-0.064c-0.324-0.151-0.454-0.54-0.281-0.864l2.159-4.317
			c0.151-0.324,0.539-0.453,0.863-0.281c0.324,0.151,0.453,0.54,0.281,0.864l-2.159,4.317
			C270.986,286.142,270.749,286.271,270.511,286.271z"/>
	</g>
	<g>
		<polygon fill="#D3D8DD" points="283.033,270.511 288.43,270.511 286.057,274.829 280.874,274.829 		"/>
	</g>
	<path fill="#444B54" d="M297.045,285.494L297.045,285.494c-0.021-0.064-0.021-0.107-0.043-0.151c0,0,0,0,0-0.021l-2.16-4.317
		c-0.107-0.217-0.322-0.367-0.582-0.367h-21.59c-0.216,0-0.216,0.107-0.346,0.302c-0.108,0.194-0.345,0.433-0.237,0.626l2.094,4.21
		v9.996h-3.022v-10.146c0-0.367-0.281-0.432-0.647-0.432c-0.367,0-0.647,0.064-0.647,0.432v10.795c0,0.367,0.28,0.647,0.647,0.647
		h25.907c0.367,0,0.648-0.28,0.648-0.647v-10.795C297.066,285.581,297.066,285.538,297.045,285.494z M293.85,281.953l1.512,3.022
		h-20.122l-1.511-3.022H293.85z M275.477,286.271h20.295v9.499h-20.295V286.271z"/>
	<g>
		<polygon fill="#FFFFFF" points="291.236,274.829 291.236,295.771 283.033,295.771 283.033,285.624 280.874,281.306 
			280.874,274.829 283.033,270.511 289.078,270.511 		"/>
	</g>
	<g>
		<path fill="#444B54" d="M288.646,291.669L288.646,291.669c-0.238,0-0.432,0.194-0.432,0.432v4.318h0.863v-4.318
			C289.078,291.863,288.883,291.669,288.646,291.669z"/>
		<path fill="#444B54" d="M289.078,297.066h-0.863c-0.367,0-0.648-0.28-0.648-0.647v-4.318c0-0.604,0.475-1.079,1.08-1.079
			c0.604,0,1.08,0.475,1.08,1.079v4.318C289.727,296.786,289.445,297.066,289.078,297.066z"/>
	</g>
	<g>
		<path fill="#D3D8DD" d="M288.646,279.146L288.646,279.146c-0.129,0-0.217,0.194-0.217,0.432v8.637h0.432v-8.637
			C288.861,279.341,288.775,279.146,288.646,279.146z"/>
		<path fill="#D3D8DD" d="M288.861,288.862h-0.432c-0.367,0-0.646-0.28-0.646-0.647v-8.637c0-0.626,0.367-1.079,0.863-1.079
			s0.863,0.453,0.863,1.079v8.637C289.51,288.582,289.229,288.862,288.861,288.862z"/>
	</g>
	<g>
		<path fill="#D3D8DD" d="M288.646,276.448c-0.475,0-0.863-0.389-0.863-0.863v-0.217c0-0.475,0.389-0.863,0.863-0.863
			s0.863,0.389,0.863,0.863v0.217C289.51,276.06,289.121,276.448,288.646,276.448z"/>
	</g>
	<g>
		<path fill="#D3D8DD" d="M277.528,289.511h-0.432v-1.08c0-0.13,0.086-0.216,0.216-0.216l0,0c0.13,0,0.216,0.086,0.216,0.216
			V289.511z"/>
		<path fill="#D3D8DD" d="M277.528,290.158h-0.432c-0.367,0-0.648-0.281-0.648-0.647v-1.08c0-0.475,0.389-0.863,0.864-0.863
			s0.864,0.389,0.864,0.863v1.08C278.175,289.877,277.895,290.158,277.528,290.158z"/>
	</g>
	<g>
		<path fill="#D3D8DD" d="M280.55,289.511h-0.432v-1.08c0-0.13,0.086-0.216,0.216-0.216l0,0c0.13,0,0.216,0.086,0.216,0.216V289.511
			z"/>
		<path fill="#D3D8DD" d="M280.55,290.158h-0.432c-0.367,0-0.647-0.281-0.647-0.647v-1.08c0-0.475,0.389-0.863,0.863-0.863
			c0.475,0,0.864,0.389,0.864,0.863v1.08C281.198,289.877,280.917,290.158,280.55,290.158z"/>
	</g>
	<path fill="#444B54" d="M291.82,274.548l-2.16-4.317c-0.107-0.237-0.344-0.367-0.582-0.367h-6.045c-0.237,0-0.475,0.13-0.583,0.367
		l-2.159,4.317c-0.043,0.087-0.064,0.173-0.064,0.281v6.477c0,0.108,0.021,0.194,0.064,0.28l2.094,4.188v10.645
		c0,0.367,0.28,0.216,0.647,0.216s0.648,0.151,0.648-0.216v-10.795c0-0.108-0.022-0.194-0.065-0.281l-2.094-4.188v-5.678h3.887
		v20.942c0,0.367,0.279,0.216,0.648,0.216h5.18c0.367,0,0.648,0.151,0.648-0.216v-21.59
		C291.885,274.721,291.863,274.635,291.82,274.548z M283.443,271.158h3.735l-1.512,3.022h-3.734L283.443,271.158z M290.59,295.771
		h-3.887v-20.791l1.922-3.821h0.064l1.9,3.821V295.771z"/>
	<g>
		<path fill="#D3D8DD" d="M277.528,293.828h-0.432v-1.08c0-0.129,0.086-0.216,0.216-0.216l0,0c0.13,0,0.216,0.087,0.216,0.216
			V293.828z"/>
		<path fill="#D3D8DD" d="M277.528,294.476h-0.432c-0.367,0-0.648-0.281-0.648-0.647v-1.08c0-0.475,0.389-0.863,0.864-0.863
			s0.864,0.389,0.864,0.863v1.08C278.175,294.194,277.895,294.476,277.528,294.476z"/>
	</g>
	<g>
		<path fill="#D3D8DD" d="M280.55,293.828h-0.432v-1.08c0-0.129,0.086-0.216,0.216-0.216l0,0c0.13,0,0.216,0.087,0.216,0.216
			V293.828z"/>
		<path fill="#D3D8DD" d="M280.55,294.476h-0.432c-0.367,0-0.647-0.281-0.647-0.647v-1.08c0-0.475,0.389-0.863,0.863-0.863
			c0.475,0,0.864,0.389,0.864,0.863v1.08C281.198,294.194,280.917,294.476,280.55,294.476z"/>
	</g>
	<g>
		<path fill="#D3D8DD" d="M293.936,289.511h-0.432v-1.08c0-0.13,0.086-0.216,0.217-0.216l0,0c0.129,0,0.215,0.086,0.215,0.216
			V289.511z"/>
		<path fill="#D3D8DD" d="M293.936,290.158h-0.432c-0.367,0-0.648-0.281-0.648-0.647v-1.08c0-0.475,0.389-0.863,0.865-0.863
			c0.475,0,0.863,0.389,0.863,0.863v1.08C294.584,289.877,294.303,290.158,293.936,290.158z"/>
	</g>
	<g>
		<path fill="#D3D8DD" d="M293.936,293.828h-0.432v-1.08c0-0.129,0.086-0.216,0.217-0.216l0,0c0.129,0,0.215,0.087,0.215,0.216
			V293.828z"/>
		<path fill="#D3D8DD" d="M293.936,294.476h-0.432c-0.367,0-0.648-0.281-0.648-0.647v-1.08c0-0.475,0.389-0.863,0.865-0.863
			c0.475,0,0.863,0.389,0.863,0.863v1.08C294.584,294.194,294.303,294.476,293.936,294.476z"/>
	</g>
</g>
</svg>
