<?xml version="1.0" encoding="utf-8"?>
<!-- Generator: Adobe Illustrator 16.0.0, SVG Export Plug-In . SVG Version: 6.00 Build 0)  -->
<!DOCTYPE svg PUBLIC "-//W3C//DTD SVG 1.1//EN" "http://www.w3.org/Graphics/SVG/1.1/DTD/svg11.dtd">
<svg version="1.1" id="Layer_1" xmlns="http://www.w3.org/2000/svg" xmlns:xlink="http://www.w3.org/1999/xlink" x="0px" y="0px"
	 width="30px" height="30px" viewBox="268.465 268.465 30 30" enable-background="new 268.465 268.465 30 30" xml:space="preserve">
<g>
	<g>
		<path fill="#FFFFFF" d="M293.382,280.005c0,5.466-4.451,9.917-9.917,9.917c-2.376,0-4.567-0.83-6.273-2.238
			c-2.237-1.821-3.644-4.588-3.644-7.679c0-5.466,4.451-9.917,9.917-9.917S293.382,274.54,293.382,280.005z"/>
	</g>
	<g>
		<g>
			<path fill="#71C2FF" d="M283.465,282.634c-2.376,0-4.29-1.937-4.29-4.29s1.914-4.312,4.29-4.312s4.29,1.937,4.29,4.29
				C287.755,280.674,285.841,282.634,283.465,282.634z M283.465,275.416c-1.614,0-2.906,1.314-2.906,2.906
				c0,1.591,1.292,2.929,2.906,2.929s2.906-1.314,2.906-2.906S285.079,275.416,283.465,275.416z"/>
		</g>
		<g>
			<path fill="#71C2FF" d="M279.036,286.693c-0.207,0-0.392-0.092-0.53-0.254c-0.253-0.3-0.207-0.737,0.093-0.968
				c1.36-1.153,3.091-1.776,4.866-1.776c0.392,0,0.691,0.3,0.691,0.691c0,0.393-0.3,0.692-0.691,0.692
				c-1.453,0-2.883,0.507-3.99,1.453C279.336,286.624,279.198,286.693,279.036,286.693z"/>
		</g>
		<g>
			<path fill="#71C2FF" d="M287.848,286.693c-0.162,0-0.323-0.046-0.439-0.161c-1.106-0.923-2.537-1.453-3.989-1.453
				c-0.393,0-0.692-0.3-0.692-0.692c0-0.392,0.3-0.691,0.692-0.691c1.775,0,3.505,0.623,4.889,1.776
				c0.3,0.253,0.323,0.691,0.093,0.968C288.239,286.602,288.055,286.693,287.848,286.693z"/>
		</g>
	</g>
	<g>
		<path fill="#444B54" d="M283.465,290.614c-2.444,0-4.843-0.853-6.711-2.398c-2.492-2.029-3.898-5.028-3.898-8.21
			c0-5.858,4.751-10.609,10.609-10.609c5.857,0,10.609,4.75,10.609,10.609C294.074,285.863,289.322,290.614,283.465,290.614z
			 M283.465,270.78c-5.098,0-9.226,4.128-9.226,9.225c0,2.768,1.223,5.374,3.391,7.149c1.637,1.338,3.713,2.076,5.835,2.076
			c5.097,0,9.226-4.129,9.226-9.225C292.69,274.908,288.562,270.78,283.465,270.78z"/>
	</g>
	<g>
		<path fill="#71C2FF" d="M290.384,294.074h-13.838c-0.393,0-0.691-0.301-0.691-0.692c0-0.393,0.299-0.691,0.691-0.691h13.838
			c0.393,0,0.691,0.299,0.691,0.691C291.075,293.773,290.776,294.074,290.384,294.074z"/>
	</g>
	<g>
		<path fill="#71C2FF" d="M284.618,297.533h-5.767c-0.392,0-0.691-0.3-0.691-0.691c0-0.393,0.3-0.692,0.691-0.692h5.767
			c0.392,0,0.692,0.3,0.692,0.692C285.311,297.233,285.01,297.533,284.618,297.533z"/>
	</g>
	<g>
		<path fill="#71C2FF" d="M288.077,297.533c-0.185,0-0.368-0.068-0.484-0.207c-0.139-0.139-0.207-0.301-0.207-0.484
			c0-0.046,0-0.093,0.022-0.139c0-0.046,0.023-0.092,0.046-0.139c0.023-0.046,0.047-0.069,0.07-0.115
			c0.022-0.047,0.046-0.069,0.092-0.115c0.254-0.253,0.715-0.253,0.969,0c0.139,0.139,0.207,0.3,0.207,0.484
			s-0.068,0.369-0.207,0.484C288.446,297.465,288.262,297.533,288.077,297.533z"/>
	</g>
</g>
</svg>
