<?xml version="1.0" encoding="utf-8"?>
<!-- Generator: Adobe Illustrator 16.0.0, SVG Export Plug-In . SVG Version: 6.00 Build 0)  -->
<!DOCTYPE svg PUBLIC "-//W3C//DTD SVG 1.1//EN" "http://www.w3.org/Graphics/SVG/1.1/DTD/svg11.dtd">
<svg version="1.1" id="Layer_1" xmlns="http://www.w3.org/2000/svg" xmlns:xlink="http://www.w3.org/1999/xlink" x="0px" y="0px"
	 width="30px" height="30px" viewBox="282.64 405.945 30 30" enable-background="new 282.64 405.945 30 30" xml:space="preserve">
<g>
	<path fill="#444B54" d="M293.52,433.131c-3.645-0.131-6.482-1.673-8.229-4.892c-1.754-3.235-1.667-6.526,0.336-9.64
		c2.29-3.559,4.683-7.051,7.039-10.568c0.496-0.741,1.158-0.749,1.652-0.012c2.386,3.56,4.826,7.084,7.122,10.7
		c1.942,3.06,2.029,6.323,0.295,9.5C299.985,431.425,297.152,432.99,293.52,433.131z"/>
	<path fill="#444B54" d="M305.466,433.105c-0.459-0.008-0.915-0.023-1.367-0.127c-0.687-0.156-0.998-0.528-0.881-1.079
		c0.107-0.508,0.557-0.727,1.22-0.592c2.371,0.479,4.701-0.794,5.514-3.058c0.567-1.58,0.357-3.089-0.572-4.491
		c-1.472-2.219-2.946-4.437-4.419-6.656c-0.097-0.147-0.204-0.292-0.275-0.45c-0.192-0.423-0.113-0.81,0.257-1.083
		c0.381-0.28,0.767-0.2,1.104,0.11c0.089,0.083,0.162,0.186,0.229,0.289c1.541,2.322,3.108,4.626,4.612,6.971
		c2.361,3.68,0.654,8.51-3.445,9.857C306.8,433.008,306.142,433.112,305.466,433.105z"/>
	<path fill="#FEFEFE" d="M293.531,409.897c0.653,0.978,1.306,1.954,1.958,2.933c1.45,2.17,2.917,4.331,4.345,6.516
		c2.721,4.163,1.144,9.539-3.343,11.455c-3.047,1.303-6.57,0.479-8.82-2.063c-2.103-2.375-2.541-6.12-0.834-8.833
		c2.113-3.358,4.378-6.623,6.579-9.925C293.435,409.951,293.473,409.938,293.531,409.897z"/>
</g>
</svg>
