<?xml version="1.0" encoding="utf-8"?>
<!-- Generator: Adobe Illustrator 16.0.0, SVG Export Plug-In . SVG Version: 6.00 Build 0)  -->
<!DOCTYPE svg PUBLIC "-//W3C//DTD SVG 1.1//EN" "http://www.w3.org/Graphics/SVG/1.1/DTD/svg11.dtd">
<svg version="1.1" id="ﾃ神xA1_ﾃ神xBB_ﾃ神xBE_ﾃ神xB9__x5F_1"
	 xmlns="http://www.w3.org/2000/svg" xmlns:xlink="http://www.w3.org/1999/xlink" x="0px" y="0px" width="30px" height="30px"
	 viewBox="282.64 405.945 30 30" enable-background="new 282.64 405.945 30 30" xml:space="preserve">
<g>
	<g>
		<g>
			<path fill="#FFFFFF" d="M308.7,432.031h-22.148c-1.233,0-2.225-0.99-2.225-2.225v-17.724c0-1.234,0.991-2.225,2.225-2.225h22.176
				c1.231,0,2.224,0.991,2.224,2.225v17.724C310.925,431.041,309.935,432.031,308.7,432.031z"/>
		</g>
	</g>
	<g>
		<g>
			<path fill="#DEDFE6" d="M291.752,432.2c-0.412,0-0.726-0.313-0.726-0.723V418.49c0-0.411,0.313-0.725,0.726-0.725
				c0.409,0,0.725,0.314,0.725,0.725v13.01C292.477,431.887,292.161,432.2,291.752,432.2z"/>
		</g>
	</g>
	<g>
		<g>
			<g>
				<g>
					<path fill="#A8B2C6" d="M310.925,414.308h-26.598v-2.225c0-1.234,0.991-2.225,2.225-2.225h22.176
						c1.231,0,2.224,0.991,2.224,2.225L310.925,414.308L310.925,414.308z"/>
				</g>
			</g>
		</g>
		<g>
			<g>
				<g>
					<path fill="#DEDFE6" d="M296.128,417.645h10.736c0.41,0,0.727,0.314,0.727,0.725v2.974c0,0.412-0.316,0.726-0.727,0.726
						h-10.736c-0.411,0-0.725-0.313-0.725-0.726v-2.974C295.404,417.958,295.717,417.645,296.128,417.645z"/>
				</g>
			</g>
			<g>
				<g>
					<path fill="#D3B3D5" d="M296.128,424.294h2.973c0.412,0,0.727,0.313,0.727,0.726v2.976c0,0.409-0.314,0.723-0.727,0.723h-2.973
						c-0.411,0-0.725-0.313-0.725-0.723v-2.976C295.404,424.607,295.717,424.294,296.128,424.294z"/>
				</g>
			</g>
		</g>
	</g>
	<path fill="#464C55" d="M308.728,409.133h-22.176c-1.62,0-2.95,1.329-2.95,2.95v17.724c0,1.621,1.33,2.951,2.95,2.951H308.7
		c1.621,0,2.951-1.308,2.978-2.951v-17.724C311.678,410.462,310.348,409.133,308.728,409.133z M285.053,412.107
		c0-0.824,0.678-1.5,1.499-1.5v-0.024H308.7c0.825,0,1.499,0.678,1.499,1.5v1.499h-25.146V412.107z M308.728,431.331h-22.176
		c-0.821,0-1.499-0.676-1.499-1.501v-14.798h25.173v14.798C310.226,430.655,309.549,431.331,308.728,431.331z"/>
	<g>
		<g>
			<path fill="#FFFFFF" d="M287.109,412.929c-0.46,0-0.847-0.388-0.847-0.847c0-0.46,0.387-0.847,0.847-0.847
				c0.459,0,0.846,0.387,0.846,0.847C287.931,412.542,287.568,412.929,287.109,412.929z"/>
		</g>
	</g>
	<g>
		<g>
			<path fill="#FFFFFF" d="M289.309,412.929c-0.459,0-0.847-0.388-0.847-0.847c0-0.46,0.388-0.847,0.847-0.847
				s0.847,0.387,0.847,0.847C290.156,412.542,289.768,412.929,289.309,412.929z"/>
		</g>
	</g>
	<g>
		<g>
			<path fill="#FFFFFF" d="M291.533,412.929c-0.46,0-0.846-0.388-0.846-0.847c0-0.46,0.386-0.847,0.846-0.847
				s0.846,0.387,0.846,0.847C292.357,412.542,291.993,412.929,291.533,412.929z"/>
		</g>
	</g>
	<g>
		<g>
			<g>
				<path fill="#DEDFE6" d="M306.624,425.674h-4.427c-0.409,0-0.727-0.316-0.727-0.727c0-0.412,0.317-0.726,0.727-0.726h4.427
					c0.409,0,0.724,0.313,0.724,0.726C307.348,425.357,307.033,425.674,306.624,425.674z"/>
			</g>
		</g>
		<g>
			<g>
				<path fill="#DEDFE6" d="M306.624,428.767h-4.427c-0.409,0-0.727-0.312-0.727-0.726c0-0.41,0.317-0.724,0.727-0.724h4.427
					c0.409,0,0.724,0.313,0.724,0.724C307.348,428.454,307.033,428.767,306.624,428.767z"/>
			</g>
		</g>
	</g>
</g>
</svg>
